<?xml version="1.0" encoding="utf-8" ?>
<svg baseProfile="full" height="200mm" version="1.1" viewBox="0,0,200,200" width="200mm" xmlns="http://www.w3.org/2000/svg" xmlns:ev="http://www.w3.org/2001/xml-events" xmlns:xlink="http://www.w3.org/1999/xlink"><defs /><rect fill="#1a1a1a" height="200" width="200" x="0" y="0" /><text alignment-baseline="middle" fill="#e1ed5e" style="dominant-baseline: central; font-size:9.0px; font-family:Arial;" text-anchor="middle" x="100.0" y="100.0">2025</text><line stroke="#e1ed5e" stroke-width="0.3" x1="100.0" x2="100.0" y1="15.0" y2="10.0" /><path d="M 100.0 14.0 a86.0,86.0 0 0,1 42.46469731375804,11.215312516191453" fill="none" id="id49" stroke="none" /><text fill="#e1ed5e" style="font-size:6.75px; font-family:Arial;" text-anchor="middle"><textPath startOffset="22.20632615414155" xlink:href="#id49">January</textPath></text><line stroke="#e1ed5e" stroke-width="0.3" x1="143.23703022742887" x2="145.7803849466894" y1="26.81831364943548" y2="22.513508569990506" /><path d="M 143.74570117128098 25.957352633546492 a86.0,86.0 0 0,1 28.547481713284135,27.462654790039103" fill="none" id="id50" stroke="none" /><text fill="#e1ed5e" style="font-size:6.75px; font-family:Arial;" text-anchor="middle"><textPath startOffset="19.985693538727396" xlink:href="#id50">February</textPath></text><line stroke="#e1ed5e" stroke-width="0.3" x1="172.23445277983987" x2="176.4835382374775" y1="55.19839476539836" y2="52.563006222186495" /><path d="M 173.08426987136738 54.67131705675599 a86.0,86.0 0 0,1 12.851231095245387,41.99856678651699" fill="none" id="id51" stroke="none" /><text fill="#e1ed5e" style="font-size:6.75px; font-family:Arial;" text-anchor="middle"><textPath startOffset="22.20632615414155" xlink:href="#id51">March</textPath></text><path d="M 117.84615892207809 88.93136811851018 l 30.740582175942862 -19.06607407307442 a57.17317477186453,57.17317477186453 0 0,0 0.5115207762597128,0.8408056608388398 l -31.0642187504888 18.5341006390285" fill="red" stroke="none" /><path d="M 119.04729006885535 91.15688171328212 l 30.834902480803947 -14.315773478087555 a54.99606714425368,54.99606714425368 0 0,0 0.39125166702284275,0.8620711859110695 l -31.076756464790137 13.782880283334423" fill="red" stroke="none" /><path d="M 119.97218684219823 93.5106431181261 l 34.857267756579404 -11.325812850976861 a57.65110028620182,57.65110028620182 0 0,0 0.298535286231126,0.9464384394762808 l -35.04705852657874 10.724124245074162" fill="red" stroke="none" /><path d="M 120.37134235888165 94.90015583598534 l 27.26223622329369 -6.824938379219588 a49.10354617792586,49.10354617792586 0 0,0 0.1982081003222056,0.8217005383246414 l -27.375677123876716 6.35465260923554" fill="red" stroke="none" /><path d="M 120.53481517161879 95.60439243477599 l 35.099262592138444 -7.5132200068215065 a56.89438269956446,56.89438269956446 0 0,0 0.19674810143447571,0.9594136162605238 l -35.22338998948792 6.9079307343975715" fill="red" stroke="none" /><path d="M 120.67395015179393 96.31383870115 l 41.65408402158207 -7.42691509518215 a63.31101255592997,63.31101255592997 0 0,0 0.18205877112011418,1.0745211729070414 l -41.77575465422241 6.708808133959271" fill="red" stroke="none" /><path d="M 120.83666639777658 97.38593545837742 l 35.57216866881668 -4.462707374136093 a56.85101031923524,56.85101031923524 0 0,0 0.11345741780326062,0.9720338684609442 l -35.64371643962353 3.8497297673502957" fill="red" stroke="none" /><path d="M 120.87857604477298 97.74499172005257 l 27.079380569347077 -2.9247314217586595 a48.23686666834044,48.23686666834044 0 0,0 0.08205521549886755,0.8262848220356998 l -27.125712910528172 2.458171069018525" fill="red" stroke="none" /><line stroke="#e1ed5e" stroke-width="0.3" x1="184.98032266829074" x2="189.97916517819016" y1="98.17113171792111" y2="98.06355123074" /><path d="M 185.9800911702706 98.14961562048488 a86.0,86.0 0 0,1 -9.607161424134198,41.387399972396054" fill="none" id="id52" stroke="none" /><text fill="#e1ed5e" style="font-size:6.75px; font-family:Arial;" text-anchor="middle"><textPath startOffset="21.466115282336823" xlink:href="#id52">April</textPath></text><path d="M 120.99513854157772 99.54816195383933 l 49.826463381826414 -1.0723192808161712 a70.83800078033326,70.83800078033326 0 0,0 0.015742878354146454,1.2193032777892916 l -49.837539267298276 0.21447974496641692" fill="red" stroke="none" /><path d="M 120.9764740272857 100.99374915477107 l 51.32987386658316 2.431725117532671 a72.38744241744841,72.38744241744841 0 0,0 -0.06967687434168952,1.2441273976475253 l -51.280410641353946 -3.3149242315156195" fill="red" stroke="none" /><path d="M 120.89721153311464 102.0752229133903 l 49.96460801849 4.961795943646694 a71.21037216977926,71.21037216977926 0 0,0 -0.13162965508973226,1.2187271275129312 l -49.87179606189922 -5.821119393044416" fill="red" stroke="none" /><path d="M 120.81339534386255 102.79330883721812 l 50.654756507187514 6.7982362637618605 a72.10890698401192,72.10890698401192 0 0,0 -0.1756914598091711,1.2287856607034358 l -50.530230996361745 -7.669167396445706" fill="red" stroke="none" /><path d="M 120.49622156327973 104.57218783832717 l 40.12491058706701 8.95085114267258 a62.11114430173898,62.11114430173898 0 0,0 -0.241758561172853,1.041489554123256 l -39.96489145996361 -9.640209354144401" fill="red" stroke="none" /><path d="M 120.32669344350535 105.2749913415812 l 49.548710573910164 12.858413002110789 a72.18997464806921,72.18997464806921 0 0,0 -0.3224895424082717,1.200103556355632 l -49.320032955160116 -13.709407491641969" fill="red" stroke="none" /><path d="M 120.13307415673323 105.97154293290107 l 60.1354900323762 17.836404799576158 a83.7249113001235,83.7249113001235 0 0,0 -0.42170733761199164,1.3781639791392462 l -59.819555922258075 -18.86889575126746" fill="red" stroke="none" /><path d="M 119.9155931802556 106.66101706037122 l 49.9384876680577 16.70254635728611 a73.6576452700844,73.6576452700844 0 0,0 -0.41251497404251875,1.198961608546673 l -49.64358186307195 -17.55968066892208" fill="red" stroke="none" /><path d="M 119.67450827220406 107.3425965602758 l 48.05089023643044 17.932763375167134 a72.28812781515057,72.28812781515057 0 0,0 -0.4451080211416527,1.1620365880070636 l -47.735087935695276 -18.75722353000734" fill="red" stroke="none" /><path d="M 119.41010516605496 108.01547362559984 l 47.293859020252754 19.53017134047399 a72.16773097974752,72.16773097974752 0 0,0 -0.4840359094321356,1.1441179080013881 l -46.95067212962831 -20.341363774141545" fill="red" stroke="none" /><path d="M 119.12269723197855 108.67885076344098 l 46.2005294846581 20.968145639976555 a71.7361020994127,71.7361020994127 0 0,0 -0.5200026489761942,1.1200394442873511 l -45.832752218842074 -21.760305151542735" fill="red" stroke="none" /><path d="M 118.81262510543309 109.33194174019688 l 45.89041565544149 22.763792024235944 a72.22616983878315,72.22616983878315 0 0,0 -0.5620617500617522,1.1090011556838817 l -45.491775235593465 -23.55034739162252" fill="red" stroke="none" /><line stroke="#e1ed5e" stroke-width="0.3" x1="174.80103733775053" x2="179.2010983576182" y1="140.37084112569926" y2="142.7455964860345" /><path d="M 175.68104954172406 140.8457921977663 a86.0,86.0 0 0,1 -30.038265399797805,32.042727171017184" fill="none" id="id53" stroke="none" /><text fill="#e1ed5e" style="font-size:6.75px; font-family:Arial;" text-anchor="middle"><textPath startOffset="22.206326154141568" xlink:href="#id53">May</textPath></text><path d="M 118.48025628344425 109.97397251340804 l 33.00922945441811 17.81539943047721 a58.5099678224585,58.5099678224585 0 0,0 -0.4859770795461834,0.8821895609612449 l -32.697675965420416 -18.380959509836263" fill="red" stroke="none" /><path d="M 117.75023020441432 111.22182372390056 l 44.691352436795114 28.254195762695222 a73.87359039091763,73.87359039091763 0 0,0 -0.6887661773055971,1.0689804026690464 l -44.19838139611247 -29.01929776528572" fill="red" stroke="none" /><path d="M 117.35343817320211 111.8261652097733 l 42.25437255105995 28.795860833838294 a72.1334880567085,72.1334880567085 0 0,0 -0.7080729424400368,1.0200318841603742 l -41.752438701457784 -29.518933980185686" fill="red" stroke="none" /><path d="M 117.14729908036423 112.12312394758627 l 22.088764770237322 15.616735434754887 a48.05172738872707,48.05172738872707 0 0,0 -0.48330932551227934,0.6712743817083806 l -21.816675652349442 -15.994643421914398" fill="red" stroke="none" /><path d="M 116.498646956653 112.99209946851258 l 45.858916077656765 36.112270343407296 a79.37067973882864,79.37067973882864 0 0,0 -0.8544899522371371,1.0661075992522986 l -45.23050821336478 -36.896305776237845" fill="red" stroke="none" /><path d="M 116.0416608686014 113.55231037782055 l 32.39442032331343 27.36744295538756 a63.40725647810637,63.40725647810637 0 0,0 -0.7115426160301204,0.8276848133327388 l -31.918535197712533 -27.921004867881827" fill="red" stroke="none" /><path d="M 115.32070863581623 114.36230785411682 l 37.47725645752786 35.132832792889026 a72.36984223877286,72.36984223877286 0 0,0 -0.8598000722053201,0.9014969382718886 l -36.86694983394358 -35.772736847743424" fill="red" stroke="none" /><path d="M 114.81725581225074 114.88116024355365 l 44.45176743675221 44.643480730660954 a84.0,84.0 0 0,0 -1.033400190496823,1.011399588309712 l -43.67671729387959 -45.40203042189324" fill="red" stroke="none" /><line stroke="#e1ed5e" stroke-width="0.3" x1="143.8653032363475" x2="146.44561519142675" y1="172.8068346515853" y2="177.08958963109032" /><path d="M 144.38136562736335 173.6633856474863 a86.0,86.0 0 0,1 -40.68145358897372,12.25698825130547" fill="none" id="id54" stroke="none" /><text fill="#e1ed5e" style="font-size:6.75px; font-family:Arial;" text-anchor="middle"><textPath startOffset="21.466115282336833" xlink:href="#id54">June</textPath></text><line stroke="#e1ed5e" stroke-width="0.3" x1="102.19456741930631" x2="102.32365962044197" y1="184.97166512339345" y2="189.96999836594603" /><path d="M 102.22038585953345 185.97133177190398 a86.0,86.0 0 0,1 -42.740103519485714,-10.115201625700543" fill="none" id="id55" stroke="none" /><text fill="#e1ed5e" style="font-size:6.75px; font-family:Arial;" text-anchor="middle"><textPath startOffset="22.20632615414155" xlink:href="#id55">July</textPath></text><line stroke="#e1ed5e" stroke-width="0.3" x1="58.666819895761336" x2="56.23545636021788" y1="174.27360380694188" y2="178.64263932499728" /><path d="M 58.180547188652646 175.14741091055294 a86.0,86.0 0 0,1 -31.652253787137756,-30.449443065178592" fill="none" id="id56" stroke="none" /><text fill="#e1ed5e" style="font-size:6.75px; font-family:Arial;" text-anchor="middle"><textPath startOffset="22.20632615414155" xlink:href="#id56">August</textPath></text><line stroke="#e1ed5e" stroke-width="0.3" x1="26.63291911575756" x2="22.317208475507996" y1="142.92168965132927" y2="145.44649492493687" /><path d="M 25.769776987707644 143.4266507060508 a86.0,86.0 0 0,1 -11.730757126820373,-40.83630448921669" fill="none" id="id57" stroke="none" /><text fill="#e1ed5e" style="font-size:6.75px; font-family:Arial;" text-anchor="middle"><textPath startOffset="21.46611528233685" xlink:href="#id57">September</textPath></text><line stroke="#e1ed5e" stroke-width="0.3" x1="15.007084014347285" x2="10.007500721073583" y1="101.09737516637583" y2="101.16192664675087" /><path d="M 14.007167355692545 101.11028546245083 a86.0,86.0 0 0,1 10.666146001902534,-42.60595125391555" fill="none" id="id58" stroke="none" /><text fill="#e1ed5e" style="font-size:6.75px; font-family:Arial;" text-anchor="middle"><textPath startOffset="22.20632615414155" xlink:href="#id58">October</textPath></text><line stroke="#e1ed5e" stroke-width="0.3" x1="26.266209847984243" x2="21.928928074336255" y1="57.711370442889674" y2="55.22380399835377" /><path d="M 25.398753493254645 57.213857153982495 a86.0,86.0 0 0,1 29.58750427330803,-30.492523968695096" fill="none" id="id59" stroke="none" /><text fill="#e1ed5e" style="font-size:6.75px; font-family:Arial;" text-anchor="middle"><textPath startOffset="21.46611528233685" xlink:href="#id59">November</textPath></text><line stroke="#e1ed5e" stroke-width="0.3" x1="56.762969772571076" x2="54.21961505331055" y1="26.818313649435495" y2="22.513508569990535" /><path d="M 56.25429882871897 25.957352633546506 a86.0,86.0 0 0,1 42.265352541879196,-11.944610805530505" fill="none" id="id60" stroke="none" /><text fill="#e1ed5e" style="font-size:6.75px; font-family:Arial;" text-anchor="middle"><textPath startOffset="22.20632615414155" xlink:href="#id60">December</textPath></text></svg>