<?xml version="1.0" encoding="utf-8" ?>
<svg baseProfile="full" height="200mm" version="1.1" viewBox="0,0,200,200" width="200mm" xmlns="http://www.w3.org/2000/svg" xmlns:ev="http://www.w3.org/2001/xml-events" xmlns:xlink="http://www.w3.org/1999/xlink"><defs /><rect fill="#1a1a1a" height="200" width="200" x="0" y="0" /><text alignment-baseline="middle" fill="#e1ed5e" style="dominant-baseline: central; font-size:9.0px; font-family:Arial;" text-anchor="middle" x="100.0" y="100.0">2024</text><line stroke="#e1ed5e" stroke-width="0.3" x1="100.0" x2="100.0" y1="15.0" y2="10.0" /><path d="M 100.0 14.0 a86.0,86.0 0 0,1 42.35913384403234,11.155469271406648" fill="none" id="id37" stroke="none" /><text fill="#e1ed5e" style="font-size:6.75px; font-family:Arial;" text-anchor="middle"><textPath startOffset="22.145653131862478" xlink:href="#id37">January</textPath></text><path d="M 100.0 79.0 l 0.0 -33.595835862404726 a54.595835862404726,54.595835862404726 0 0,0 0.937210121647918,0.008044821710299521 l -0.5767171967990632 33.59088543888886" fill="#8bff24" stroke="none" /><path d="M 100.72087961077811 79.0123766808444 l 0.7123257437822499 -20.738586814658607 a41.75081663536129,41.75081663536129 0 0,0 0.716074696473105,0.03075132854633956 l -1.0682262008561911 20.723302917686436" fill="#ffcb12" stroke="none" /><path d="M 101.08105385017728 79.02784411241856 l 1.4736977608788213 -28.589342859527413 a49.62730008628181,49.62730008628181 0 0,0 0.8504125821174117,0.051158709179452665 l -1.9642546951286952 28.55983217252327" fill="#c9ff1d" stroke="none" /><path d="M 102.15924093988457 79.11130261209362 l 4.265429620374838 -41.264162291302945 a62.484032825285425,62.484032825285425 0 0,0 1.0659897944998624,0.11944637991564536 l -4.973155316475497 41.184860150880326" fill="#31ff2f" stroke="none" /><path d="M 102.87502721639298 79.19773525538626 l 4.052213134140025 -29.319795630922368 a50.598494000937805,50.598494000937805 0 0,0 0.8593910716283252,0.1263008927724808 l -4.554929311376033 29.245913664851006" fill="#bcff1f" stroke="none" /><path d="M 103.58742460773223 79.30868818359171 l 3.5333952330578176 -20.37968474103388 a41.683723843083115,41.683723843083115 0 0,0 0.7039890011138747,0.12829024711043438 l -3.8827189677227456 20.31602631999208" fill="#ffca12" stroke="none" /><path d="M 105.3480935250658 79.69241777938227 l 7.506769727909889 -28.504427371415225 a50.47632900345886,50.47632900345886 0 0,0 0.8360288590448854,0.2278633831878862 l -7.994979987889467 28.371363494083198" fill="#beff1f" stroke="none" /><path d="M 106.04205211174951 79.88797359093562 l 8.506135593148636 -28.314158918922686 a50.564267926249066,50.564267926249066 0 0,0 0.8291561572567837,0.25687469702053256 l -8.99093238327705 28.163967634095506" fill="#bdff1f" stroke="none" /><path d="M 106.72888874123014 80.10723608172694 l 11.411428845828471 -33.73586170466795 a56.61360797869106,56.61360797869106 0 0,0 0.917933654307162,0.3193049746163582 l -11.988868272180651 33.53499829748299" fill="#73ff27" stroke="none" /><path d="M 108.4095320186766 80.7573450057729 l 8.297914819688687 -18.987252999588602 a41.72127329160048,41.72127329160048 0 0,0 0.6538053264791917,0.29243880646612086 l -8.62263354902351 18.84201044221263" fill="#ffca12" stroke="none" /><path d="M 109.06512990194946 81.05736502329252 l 15.35296040069276 -32.08178237132879 a56.56619396542935,56.56619396542935 0 0,0 0.8723039120932479,0.42668755511127915 l -15.901424562048076 31.813501066120295" fill="#73ff27" stroke="none" /><path d="M 109.3889696526874 81.21577127319529 l 15.432909133751256 -30.87615636348348 a55.518280897415856,55.518280897415856 0 0,0 0.8488289854009168,0.43341812809168245 l -15.96066534086575 30.606680283718966" fill="#80ff26" stroke="none" /><path d="M 110.02825361518725 81.54914285379988 l 15.842503854388575 -29.148422713678066 a54.17552524183423,54.17552524183423 0 0,0 0.8132928186754349,0.451119816853217 l -16.34054086122011 28.872169981391703" fill="#90ff24" stroke="none" /><line stroke="#e1ed5e" stroke-width="0.3" x1="143.13028292997686" x2="145.6673583964461" y1="26.7553504044142" y2="22.446841604673864" /><path d="M 143.63769802327073 25.89364864446614 a86.0,86.0 0 0,1 29.32050498858742,28.57503671076993" fill="none" id="id38" stroke="none" /><text fill="#e1ed5e" style="font-size:6.75px; font-family:Arial;" text-anchor="middle"><textPath startOffset="20.669276256404974" xlink:href="#id38">February</textPath></text><path d="M 110.65571695917076 81.90426304109057 l 16.90113920670334 -28.701829314938536 a54.30830996175324,54.30830996175324 0 0,0 0.7992818883763575,0.4799458087360462 l -17.391353851637135 28.40746950566657" fill="#8eff24" stroke="none" /><path d="M 111.27062007382361 82.28071324371311 l 11.105755097275184 -17.460091629808023 a41.69281508161579,41.69281508161579 0 0,0 0.600603599706691,0.38930399704304575 l -11.403844329238881 17.266873791061084" fill="#ffca12" stroke="none" /><path d="M 112.16784306229584 82.88440491214696 l 11.974184940856203 -16.84319068757721 a41.66577309311014,41.66577309311014 0 0,0 0.5793903314589304,0.4194339186679992 l -12.261556282689101 16.635155997536135" fill="#ffca12" stroke="none" /><path d="M 115.8921839302757 86.27271002978787 l 22.341912246221977 -19.298411674474096 a50.52269865671771,50.52269865671771 0 0,0 0.5612962029954363,0.6612055157694011 l -22.669903012724525 18.91203937625514" fill="#bdff1f" stroke="none" /><path d="M 116.7966241395341 87.39550010848427 l 18.372903389945993 -13.787369227387304 a43.970745072561215,43.970745072561215 0 0,0 0.4478692175435852,0.6076206093716175 l -18.606874627073402 13.46994230874681" fill="#ffea16" stroke="none" /><path d="M 117.42321728460499 88.27688183743584 l 24.549522294499653 -16.518014210109033 a50.58925207458782,50.58925207458782 0 0,0 0.47861181145236403,0.7246792839911207 l -24.82945854487274 16.094155047778855" fill="#bcff1f" stroke="none" /><path d="M 117.81537515405839 88.88188828441811 l 25.084064191330498 -15.654311264756535 a50.56801882995667,50.56801882995667 0 0,0 0.4532629103723947,0.7403709000631571 l -25.349095066158295 15.221403248568823" fill="#bdff1f" stroke="none" /><line stroke="#e1ed5e" stroke-width="0.3" x1="172.87174338648825" x2="177.1583165268699" y1="56.24261187166439" y2="53.66864786411523" /><path d="M 173.72905801456457 55.72781907015455 a86.0,86.0 0 0,1 12.242430191666344,42.057860355516425" fill="none" id="id39" stroke="none" /><text fill="#e1ed5e" style="font-size:6.75px; font-family:Arial;" text-anchor="middle"><textPath startOffset="22.145653131862474" xlink:href="#id39">March</textPath></text><path d="M 118.18653347947321 89.5 l 20.423795776112666 -11.791683989212592 a44.58336797842518,44.58336797842518 0 0,0 0.3769770775210809,0.6660823747338414 l -20.623206218655124 11.439344844379633" fill="#fff216" stroke="none" /><path d="M 118.70294669586156 90.45014215332178 l 18.443076677038462 -9.41716636341996 a41.70821333750086,41.70821333750086 0 0,0 0.3201206402629418,0.6404557208414385 l -18.60201723051314 9.099178786414772" fill="#ffca12" stroke="none" /><path d="M 119.0197475246899 91.09779779509293 l 18.747878984593626 -8.774954000694681 a41.6998257030168,41.6998257030168 0 0,0 0.297886746109007,0.6509363002464861 l -18.895750195557685 8.45182871823351" fill="#ffca12" stroke="none" /><path d="M 119.4528033332814 92.08871423366111 l 28.472501393757966 -11.579518445195967 a51.73708807028055,51.73708807028055 0 0,0 0.32752366864082916,0.8255735992706285 l -28.66708373736492 11.089043828711775" fill="#aeff20" stroke="none" /><path d="M 119.71291397450082 92.76114493625339 l 31.17965327843776 -11.449600567041387 a54.215420089295705,54.215420089295705 0 0,0 0.31331305538252907,0.8763923783542708 l -31.37160650386423 10.912673232306199" fill="#8fff24" stroke="none" /><path d="M 119.94978838288452 93.4421083053983 l 28.32788073385335 -9.311937060424276 a50.819138127865514,50.819138127865514 0 0,0 0.26531288821920773,0.8310888435344633 l -28.483558337849814 8.824279183198426" fill="#baff1f" stroke="none" /><path d="M 120.26092885502905 94.47779374421319 l 42.99234600625836 -11.717755082476481 a65.56060591256298,65.56060591256298 0 0,0 0.2866263460756608,1.0883669222024488 l -43.18716183313875 10.978007655901234" fill="#33ff57" stroke="none" /><path d="M 120.43855184770803 95.1765574152323 l 32.319045843897456 -7.627206818960416 a54.20685182487406,54.20685182487406 0 0,0 0.20595800022752095,0.9074889508038265 l -32.445214705682645 7.071283534217563" fill="#8fff24" stroke="none" /><path d="M 120.592083275326 95.88100663000786 l 29.588643882916383 -5.918557454884881 a51.17477703607466,51.17477703607466 0 0,0 0.1649136620792907,0.8628979658793369 l -29.68588383727783 5.409756923972229" fill="#b5ff20" stroke="none" /><path d="M 120.7213421655516 96.59031103205396 l 46.850494422332964 -7.709231028490856 a68.48053359712482,68.48053359712482 0 0,0 0.1809141819782802,1.1615988273779454 l -46.97593009644951 6.90384401918147" fill="#37ff7c" stroke="none" /><path d="M 120.77682067341334 96.94652285012252 l 25.17625790354419 -3.7000429197652167 a46.44669486660057,46.44669486660057 0 0,0 0.10916186093112379,0.7898408467774347 l -25.236064281030526 3.2673137647876964" fill="#f3ff19" stroke="none" /><path d="M 120.86939407059847 97.66154086499901 l 33.235319796475856 -3.7240869054383263 a54.4433148065989,54.4433148065989 0 0,0 0.09609921072610031,0.9296726895987184 l -33.29435139968362 3.1530096935566765" fill="#8dff24" stroke="none" /><path d="M 120.96210409425399 98.7389718711861 l 33.43937779884946 -2.0116299310785037 a54.49983048544869,54.49983048544869 0 0,0 0.048163344223626336,0.934356010997537 l -33.46898273252967 1.4373021267042363" fill="#8cff24" stroke="none" /><path d="M 120.98066250479742 99.09900007780936 l 25.41392702021044 -1.0913833756456657 a46.4373505747202,46.4373505747202 0 0,0 0.027365559447583652,0.7967184048719739 l -25.42891726665487 0.6549587062095718" fill="#f3ff19" stroke="none" /><line stroke="#e1ed5e" stroke-width="0.3" x1="184.99686870605535" x2="189.99668451229388" y1="99.2704041080226" y2="99.22748670261217" /><path d="M 185.99683186730306 99.26182062694052 a86.0,86.0 0 0,1 -10.086455211305974,41.156179273409016" fill="none" id="id40" stroke="none" /><text fill="#e1ed5e" style="font-size:6.75px; font-family:Arial;" text-anchor="middle"><textPath startOffset="21.40746469413373" xlink:href="#id40">April</textPath></text><path d="M 120.99922638620191 100.18025310272382 l 33.49352997495888 0.2875016721152533 a54.494763880268486,54.494763880268486 0 0,0 -0.0160592654184504,0.93537170019905 l -33.48365927794177 -0.8624202882833744" fill="#8cff24" stroke="none" /><path d="M 120.98066250479742 100.90099992219065 l 30.77967667007539 1.3218117530106503 a51.80804573848819,51.80804573848819 0 0,0 -0.045784522965120214,0.8882075140897245 l -30.752450557653695 -1.8499910604771055" fill="#adff20" stroke="none" /><path d="M 120.96210409425399 101.26102812881392 l 30.247986315849673 1.8196437443853952 a51.30266951145245,51.30266951145245 0 0,0 -0.060429753589098474,0.8786353546776356 l -30.212292601095506 -2.3386225232173743" fill="#b3ff20" stroke="none" /><path d="M 120.82617615685814 102.69636545807757 l 33.492084635295505 4.336220890933117 a54.77162336685582,54.77162336685582 0 0,0 -0.12872761668224353,0.9314089087221731 l -33.41271250205805 -4.910518107855374" fill="#89ff24" stroke="none" /><path d="M 120.77682067341334 103.0534771498775 l 29.33186422792431 4.310773943285982 a50.646939657838196,50.646939657838196 0 0,0 -0.13380079238000317,0.8590970692917458 l -29.253541943406038 -4.813659194509179" fill="#bcff1f" stroke="none" /><path d="M 120.51834098615036 104.47187691870673 l 61.555022958451104 13.415630756120176 a84.0,84.0 0 0,0 -0.3191565537693437,1.4062626642439322 l -61.315655543124095 -14.470327754303124" fill="#4dd2ff" stroke="none" /><path d="M 120.26092885502905 105.52220625578681 l 32.370158909486584 8.822630754483415 a54.550946354095146,54.550946354095146 0 0,0 -0.25400351396486337,0.9013688632601469 l -32.21393690344714 -9.37700754164657" fill="#8bff24" stroke="none" /><path d="M 120.16314734710363 105.8691983318838 l 28.972067388009613 8.433346573215267 a51.17452606354128,51.17452606354128 0 0,0 -0.2527623888276509,0.841363785895583 l -28.823028679178332 -8.929447962701575" fill="#b5ff20" stroke="none" /><path d="M 119.94978838288452 106.5578916946017 l 28.72194810781544 9.44147483341823 a51.2339502899987,51.2339502899987 0 0,0 -0.28182229375864803,0.8331575349575551 l -28.555640392484428 -9.933134042849947" fill="#b4ff20" stroke="none" /><path d="M 119.83427380445688 106.89939002012753 l 28.146575054487062 9.790839883840963 a50.800842822458634,50.800842822458634 0 0,0 -0.29358007840752126,0.8211957297434225 l -27.9743548060356 -10.272570569965307" fill="#baff1f" stroke="none" /><path d="M 119.58574465831526 107.57618678355244 l 30.926322587570134 11.962965949949373 a54.159462949663386,54.159462949663386 0 0,0 -0.34285860798339723,0.8642276639377077 l -30.71640530462061 -12.492094631100645" fill="#90ff24" stroke="none" /><path d="M 119.31412917781788 108.2440532568976 l 30.611493473108666 13.066226291751114 a54.283476413401026,54.283476413401026 0 0,0 -0.37317594097268164,0.8538995830368881 l -30.382683650119017 -13.589787944563847" fill="#8fff24" stroke="none" /><path d="M 119.0197475246899 108.90220220490707 l 29.606211044668438 13.857201674136766 a53.6886795490296,53.6886795490296 0 0,0 -0.39786057859868973,0.8313755890465421 l -29.363971208109835 -14.363389765248412" fill="#96ff23" stroke="none" /><path d="M 118.5362547648365 109.86951160357373 l 29.570635138400377 15.744697638550269 a54.501014405802245,54.501014405802245 0 0,0 -0.44679062288763144,0.8220444230366132 l -29.295999165897406 -16.249996895061486" fill="#8cff24" stroke="none" /><line stroke="#e1ed5e" stroke-width="0.3" x1="174.33088141563837" x2="178.70328620479359" y1="141.23008692659167" y2="143.65538615756765" /><path d="M 175.20536237346943 141.71514677278685 a86.0,86.0 0 0,1 -30.301960400862466,31.631185727798858" fill="none" id="id41" stroke="none" /><text fill="#e1ed5e" style="font-size:6.75px; font-family:Arial;" text-anchor="middle"><textPath startOffset="22.145653131862474" xlink:href="#id41">May</textPath></text><path d="M 117.62189284568427 111.42229804090321 l 30.792826098185547 19.95953784847342 a57.69579390390321,57.69579390390321 0 0,0 -0.5458449631320041,0.8264788448331726 l -30.44565669613282 -20.485196571645655" fill="#66ff29" stroke="none" /><path d="M 117.21940702142032 112.02048342749411 l 24.40286256141015 17.035093289678912 a50.76061330986202,50.76061330986202 0 0,0 -0.5049107480852046,0.7102201988871487 l -24.106836714794984 -17.451490715275565" fill="#baff1f" stroke="none" /><path d="M 117.01052211995028 112.31430620078461 l 12.669993128469953 9.17209794300376 a36.64148671167577,36.64148671167577 0 0,0 -0.37321619081302126,0.5063394410826942 l -12.510674918073104 -9.388243693355331" fill="#ff800b" stroke="none" /><path d="M 116.79662413953412 112.60449989151573 l 26.54831690425304 19.922351941660125 a54.19206587930339,54.19206587930339 0 0,0 -0.5647536409890864,0.7392806448901452 l -26.202411285909648 -20.375153499791146" fill="#90ff24" stroke="none" /><path d="M 115.6541949942343 113.99807769240083 l 22.15829876325597 19.8140873889541 a50.72521258357661,50.72521258357661 0 0,0 -0.5860025332409567,0.6441194365661445 l -21.814898529173135 -20.191544401077916" fill="#bbff1f" stroke="none" /><path d="M 115.41159269507618 114.26474011684316 l 15.216258755960315 14.083941938963893 a41.73383589856071,41.73383589856071 0 0,0 -0.4911559084827396,0.5215905543262943 l -14.972247013741315 -14.343073953234684" fill="#ffcb12" stroke="none" /><path d="M 115.16444852881244 114.52719865689866 l 23.879905620884994 22.87640939948868 a54.06932112208215,54.06932112208215 0 0,0 -0.6478359451014915,0.6647367509059142 l -23.483682874632695 -23.28296884246233" fill="#91ff24" stroke="none" /><path d="M 114.65682725009322 115.03919595460226 l 15.808410944295947 16.220822273840586 a43.64996538238544,43.64996538238544 0 0,0 -0.5411089038124564,0.5183700894737274 l -15.527629554618178 -16.489804493619893" fill="#ffe515" stroke="none" /><path d="M 113.86319453409587 115.77377054828091 l 27.621909178062708 31.42866216070388 a62.84173361433301,62.84173361433301 0 0,0 -0.816405450346018,0.705191583443179 l -27.078324247953834 -31.89819787661178" fill="#30ff33" stroke="none" /><path d="M 113.31354834802062 116.24036423190432 l 18.245493615382554 22.256535535002705 a49.77935738146013,49.77935738146013 0 0,0 -0.6655007731931193,0.5360803145564351 l -17.86074207183418 -22.566464143352544" fill="#c7ff1e" stroke="none" /><path d="M 112.7482090630111 116.68781488649013 l 29.79396046454139 39.00125064706424 a70.07929942651774,70.07929942651774 0 0,0 -0.962245548993516,0.7220869989793463 l -29.120061926637106 -39.506956673307606" fill="#3aff90" stroke="none" /><path d="M 112.45986205192187 116.90419585922612 l 18.105209215978704 24.563193507584813 a51.514735392026864,51.514735392026864 0 0,0 -0.7163467133348611,0.5185797773711679 l -17.680881492269876 -24.870374056329055" fill="#b1ff20" stroke="none" /><path d="M 111.8722381534696 117.32195027204791 l 21.809698297282853 31.821001606465888 a59.57770188926768,59.57770188926768 0 0,0 -0.8485672277014352,0.5709539011496566 l -21.260234781484414 -32.19070518167266" fill="#51ff2b" stroke="none" /><path d="M 111.27062007382361 117.71928675628689 l 15.977654637887587 25.119526908655715 a50.770389312911064,50.770389312911064 0 0,0 -0.7394002974856906,0.46144047144062733 l -15.54409021161218 -25.39010317693789" fill="#baff1f" stroke="none" /><line stroke="#e1ed5e" stroke-width="0.3" x1="143.1302829299769" x2="145.66735839644613" y1="173.24464959558577" y2="177.55315839532614" /><path d="M 143.63769802327073 174.10635135553383 a86.0,86.0 0 0,1 -40.68552437913181,11.842963189579606" fill="none" id="id42" stroke="none" /><text fill="#e1ed5e" style="font-size:6.75px; font-family:Arial;" text-anchor="middle"><textPath startOffset="21.407464694133747" xlink:href="#id42">June</textPath></text><path d="M 110.65571695917076 118.09573695890943 l 25.169521448991034 42.74335000335961 a70.60341499817247,70.60341499817247 0 0,0 -1.0496627598670263,0.6060230769675554 l -24.43206622126361 -43.16911997760333" fill="#3aff97" stroke="none" /><path d="M 110.34350942703117 118.27599006163325 l 14.995089761277685 26.494886806427807 a51.4439114411108,51.4439114411108 0 0,0 -0.7722853364663508,0.42837365773440894 l -14.53806023665524 -26.74839337959536" fill="#b2ff20" stroke="none" /><path d="M 109.71004243097381 118.62028667847754 l 19.338547626121088 37.084214956170186 a62.82365865396271,62.82365865396271 0 0,0 -0.9605222202926359,0.4904494896731997 l -18.69909818411487 -37.41072239751622" fill="#30ff32" stroke="none" /><path d="M 109.06512990194946 118.94263497670748 l 18.018966879039105 37.65271054456896 a62.74218224699091,62.74218224699091 0 0,0 -0.9755252676177786,0.4565950824035009 l -17.36995289754982 -37.95648185854299" fill="#30ff31" stroke="none" /><path d="M 108.4095320186766 119.2426549942271 l 21.494463728342346 49.1835394516412 a74.67525057193652,74.67525057193652 0 0,0 -1.1790330401196834,0.503259095188815 l -20.646995613052233 -49.54527319648942" fill="#40ffc7" stroke="none" /><path d="M 108.07796709384702 119.3841803445677 l 8.196017642936473 19.66745868758894 a42.30689175903758,42.30689175903758 0 0,0 -0.6727713220871192,0.2736102397808508 l -7.857191859658914 -19.805256183949083" fill="#ffd313" stroke="none" /><path d="M 107.06938296918513 119.77432235084164 l 9.62947471292989 26.935354594985668 a49.604896615869315,49.604896615869315 0 0,0 -0.8042943321908064,0.2797753194026945 l -9.165674608694061 -27.096688346956952" fill="#c9ff1d" stroke="none" /><path d="M 106.72888874123015 119.89276391827305 l 12.351094470061295 36.51381615507287 a59.546184049978784,59.546184049978784 0 0,0 -0.9711054331886138,0.3192216444939234 l -11.722466299224948 -36.72045872096881" fill="#51ff2b" stroke="none" /><path d="M 106.0420521117495 120.11202640906438 l 15.002259951255123 49.93764415711503 a73.14245973875492,73.14245973875492 0 0,0 -1.2055966718262596,0.3509316206144638 l -14.142803267047258 -50.18781947203201" fill="#3effb5" stroke="none" /><path d="M 104.9986988182912 120.39639698878246 l 8.020187503771464 32.725101911084046 a54.69355580354333,54.69355580354333 0 0,0 -0.9138195299569992,0.21565892086827482 l -7.457235820074585 -32.85795697559855" fill="#8aff24" stroke="none" /><path d="M 104.29559338865022 120.5559693870025 l 4.034061297745716 19.304443656341828 a40.721439993946845,40.721439993946845 0 0,0 -0.6854843881952565,0.13711607574900303 l -3.702080424019501 -19.370849128753694" fill="#ffbc11" stroke="none" /><path d="M 103.58742460773223 120.69131181640829 l 7.233341934990064 41.7199940952049 a63.342403602682,63.342403602682 0 0,0 -1.0729675224841004,0.17655639751272484 l -6.516096909452891 -41.838016491213295" fill="#30ff39" stroke="none" /><path d="M 102.51750503828377 120.84855314841334 l 4.037137625746869 33.433290928077824 a54.67615510254566,54.67615510254566 0 0,0 -0.9327858767499227,0.10452060309498097 l -3.4626158473961466 -33.497667291679775" fill="#8aff24" stroke="none" /><path d="M 101.80034050326958 120.92268563240118 l 2.893771395470417 33.63001003949331 a54.75428103434679,54.75428103434679 0 0,0 -0.9371612510730718,0.0725422078550434 l -2.316041149622109 -33.6747300143434" fill="#89ff24" stroke="none" /><path d="M 100.72087961077811 120.9876233191556 l 0.5275947748093291 15.360346212179417 a36.369404412807306,36.369404412807306 0 0,0 -0.6241451964548804,0.01607576626524735 l -0.2638362642837048 -15.367139695794709" fill="#ff7c0b" stroke="none" /><line stroke="#e1ed5e" stroke-width="0.3" x1="101.45913802915013" x2="101.54496967792366" y1="184.9874750549273" y2="189.98673829345242" /><path d="M 101.47630435890484 185.9873277026323 a86.0,86.0 0 0,1 -42.54439059252881,-10.42667462771756" fill="none" id="id43" stroke="none" /><text fill="#e1ed5e" style="font-size:6.75px; font-family:Arial;" text-anchor="middle"><textPath startOffset="22.145653131862474" xlink:href="#id43">July</textPath></text><path d="M 97.48249496171623 120.84855314841334 l -1.8357962982487503 15.203026850659823 a36.31346379727811,36.31346379727811 0 0,0 -0.6182318414996508,-0.08004248931479396 l 2.096505961639195 -15.169272765144632" fill="#ff7b0b" stroke="none" /><path d="M 96.76829788921471 120.74984581791261 l -3.196310548259443 20.522606598302772 a41.770021249618765,41.770021249618765 0 0,0 -0.7075493455448087,-0.11642697555529281 l 3.5481373968573156 -20.46471362425181" fill="#ffcb12" stroke="none" /><path d="M 95.00130118170881 120.39639698878247 l -4.924571978612321 20.093934187046617 a41.688586232169044,41.688586232169044 0 0,0 -0.693608160116058,-0.17631248196789237 l 5.2687854319537575 -20.006436473243465" fill="#ffca12" stroke="none" /><path d="M 93.27111125876986 119.89276391827306 l -7.277175134383033 21.51367521552215 a43.71113161459496,43.71113161459496 0 0,0 -0.708732762483331,-0.2465340448872984 l 7.645413668911386 -21.38558273806626" fill="#ffe615" stroke="none" /><path d="M 92.59220618246901 119.65005319985036 l -8.604924617988033 22.825584875757727 a45.393688786275774,45.393688786275774 0 0,0 -0.7267912989372572,-0.28113848768428573 l 8.99548817941882 -22.6745064999354" fill="#fffd17" stroke="none" /><path d="M 89.97174638481275 118.45085714620012 l -9.309250617741709 17.127972613895665 a40.494347717384244,40.494347717384244 0 0,0 -0.6079084983206211,-0.33719659651311074 l 9.601903304218432 -16.965643101949407" fill="#ffb911" stroke="none" /><line stroke="#e1ed5e" stroke-width="0.3" x1="58.13341422392154" x2="55.67067388415222" y1="173.97424548756322" y2="178.32567169271397" /><path d="M 57.64086615596768 174.84453072859336 a86.0,86.0 0 0,1 -31.369924170532247,-30.572349798747897" fill="none" id="id44" stroke="none" /><text fill="#e1ed5e" style="font-size:6.75px; font-family:Arial;" text-anchor="middle"><textPath startOffset="22.145653131862474" xlink:href="#id44">August</textPath></text><path d="M 89.65649057296885 118.27599006163327 l -9.597402851831731 16.95769123380712 a40.48521063477341,40.48521063477341 0 0,0 -0.6018946524016432,-0.34750403958788756 l 9.887089972093774 -16.790440296943064" fill="#ffb911" stroke="none" /><path d="M 89.03521579738668 117.91015095944536 l -9.597576752853413 15.676920339891335 a39.38149370617663,39.38149370617663 0 0,0 -0.5735368303424276,-0.35792940073423846 l 9.865277711985552 -15.50985514231555" fill="#ffa90f" stroke="none" /><path d="M 88.1277618465304 117.32195027204791 l -11.669321036384813 17.025888133969712 a41.64107362034891,41.64107362034891 0 0,0 -0.5861574176652268,-0.4091834008094897 l 11.959873545223806 -16.823059917355092" fill="#ffc912" stroke="none" /><path d="M 87.83215693770417 117.11559508785305 l -11.997979926451245 16.876661314744346 a41.70683991941106,41.70683991941106 0 0,0 -0.5799613930362697,-0.4198473232109782 l 12.285922329861469 -16.668213220160304" fill="#ffca12" stroke="none" /><path d="M 87.54013794807813 116.9041958592261 l -12.285708852903653 16.66792359766759 a41.70648012280212,41.70648012280212 0 0,0 -0.5726637564982155,-0.42973755896980714 l 12.570025598312634 -16.454567011433767" fill="#ffca12" stroke="none" /><path d="M 86.68645165197938 116.24036423190432 l -18.880648769515524 23.031321548261488 a50.78121337718163,50.78121337718163 0 0,0 -0.6694068192954907,-0.5584429769348404 l 19.273229922972906 -22.70381638741478" fill="#baff1f" stroke="none" /><path d="M 86.13680546590413 115.77377054828092 l -19.798554487390824 22.5271206361318 a50.9908973514468,50.9908973514468 0 0,0 -0.6525255919996811,-0.5834924080385842 l 20.182345106213877 -22.183932698209833" fill="#b7ff1f" stroke="none" /><path d="M 85.86807049272751 115.53346607816431 l -10.556196901063208 11.603109567784427 a36.68647330205317,36.68647330205317 0 0,0 -0.4621975538670592,-0.4278031556505309 l 10.753824226244236 -11.420188666001518" fill="#ff810b" stroke="none" /><path d="M 85.60350026404147 115.28858382429668 l -5.101333217023133 5.417439095235359 a28.441253049163702,28.441253049163702 0 0,0 -0.3525733669125873,-0.3377573099700377 l 5.193579069801035 -5.3290696549597385" fill="#ff0000" stroke="none" /><path d="M 85.08716467003676 114.78537596483092 l -15.233963174640392 15.103759143567407 a42.45220674600158,42.45220674600158 0 0,0 -0.5086445494080306,-0.5219141168317395 l 15.490994525199232 -14.84002233466793" fill="#ffd513" stroke="none" /><path d="M 84.3458050057657 113.99807769240083 l -21.16508533929522 18.925949820790493 a49.39282328404009,49.39282328404009 0 0,0 -0.5597593076880932,-0.6369033385501996 l 21.486855710941906 -18.55983420442899" fill="#ccff1d" stroke="none" /><path d="M 82.78059297857968 112.02048342749411 l -24.213165431885464 16.902669960649156 a50.5292673805241,50.5292673805241 0 0,0 -0.4903992039692109,-0.7155070943488465 l 24.499754372669997 -16.48452813123026" fill="#bdff1f" stroke="none" /><path d="M 82.18462484594161 111.11811171558189 l -17.599276101610737 10.983249924237748 a41.74527170704195,41.74527170704195 0 0,0 -0.3741808317989862,-0.6111962679624311 l 17.785224897865128 -10.67951654015076" fill="#ffcb12" stroke="none" /><line stroke="#e1ed5e" stroke-width="0.3" x1="26.387840678322732" x2="22.057713659400548" y1="142.50000000000003" y2="145.00000000000006" /><path d="M 25.521815274538298 143.00000000000003 a86.0,86.0 0 0,1 -11.493303480769221,-40.785679425670985" fill="none" id="id45" stroke="none" /><text fill="#e1ed5e" style="font-size:6.75px; font-family:Arial;" text-anchor="middle"><textPath startOffset="21.40746469413373" xlink:href="#id45">September</textPath></text><path d="M 81.4637452351635 109.86951160357371 l -26.150736658333734 13.923794324462714 a50.62656031609913,50.62656031609913 0 0,0 -0.4018590047736556,-0.7706176287494083 l 26.385903732082337 -13.472830452608804" fill="#bcff1f" stroke="none" /><path d="M 81.1358732173502 109.22738970284198 l -30.00053013129034 14.674762632950427 a54.39731226449065,54.39731226449065 0 0,0 -0.4031119095041151,-0.8423488509368052 l 30.248021298754367 -14.157601279948517" fill="#8dff24" stroke="none" /><path d="M 80.83023694016515 108.57439118712176 l -32.60525192069469 14.583914462065254 a56.718244831581536,56.718244831581536 0 0,0 -0.3899139440545998,-0.8921994096957749 l 32.85079974676626 -14.02205298259363" fill="#72ff27" stroke="none" /><path d="M 80.41425534168474 107.57618678355246 l -27.6039591838471 10.67780441289452 a50.597196990653124,50.597196990653124 0 0,0 -0.3064005210575065,-0.812763784676793 l 27.783190388719042 -10.202372348023582" fill="#bcff1f" stroke="none" /><path d="M 80.16572619554312 106.89939002012753 l -34.058826497929914 11.847427838990004 a57.06057693404486,57.06057693404486 0 0,0 -0.3138727852082711,-0.9279091179292664 l 34.25718470471055 -11.261017046586577" fill="#6eff28" stroke="none" /><path d="M 79.83685265289637 105.86919833188381 l -40.58978880435758 11.815095959028062 a63.27443018780257,63.27443018780257 0 0,0 -0.2946223427088269,-1.0455107568914561 l 40.78662963914098 -11.11657727823361" fill="#30ff38" stroke="none" /><path d="M 79.64726062577567 105.17358676015961 l -32.07307633150304 8.152850582678699 a54.093068730323346,54.093068730323346 0 0,0 -0.22104095362253254,-0.9019225211903077 l 32.20830481164187 -7.601072236880292" fill="#91ff24" stroke="none" /><path d="M 79.34024301695615 103.76489593502545 l -34.95955289605024 6.370795101639922 a56.53529750710994,56.53529750710994 0 0,0 -0.1657969816717236,-0.9562729314491666 l 35.063764695214196 -5.769729137270162" fill="#74ff27" stroke="none" /><path d="M 79.2786578344484 103.40968896794605 l -29.82705670103685 4.908030829629381 a51.22816696512476,51.22816696512476 0 0,0 -0.1353362982722294,-0.868956118617444 l 29.906914491447345 -4.3952865290804874" fill="#b4ff20" stroke="none" /><path d="M 79.17382384314188 102.69636545807758 l -29.42388828590096 3.8095114253756486 a50.66947217530584,50.66947217530584 0 0,0 -0.10427756560670755,-0.8635678323093259 l 29.48494793776733 -3.3038499161429233" fill="#bbff1f" stroke="none" /><path d="M 79.0935383218832 101.97986365728391 l -33.444375695180405 3.1672171503198903 a54.59401033097499,54.59401033097499 0 0,0 -0.08034776579678808,-0.9337628309638992 l 33.493817083674934 -2.592633271980329" fill="#8bff24" stroke="none" /><path d="M 79.03789590574601 101.26102812881392 l -42.13103007547754 2.5344981487638734 a63.207195785634475,63.207195785634475 0 0,0 -0.055858337556599726,-1.0836368259232305 l 42.16833000249071 -1.8108895294639122" fill="#30ff38" stroke="none" /><line stroke="#e1ed5e" stroke-width="0.3" x1="15.003131293944662" x2="10.003315487706104" y1="100.72959589197737" y2="100.7725132973878" /><path d="M 14.003168132696942 100.73817937305945 a86.0,86.0 0 0,1 10.791469493833604,-42.45332614584628" fill="none" id="id46" stroke="none" /><text fill="#e1ed5e" style="font-size:6.75px; font-family:Arial;" text-anchor="middle"><textPath startOffset="22.145653131862435" xlink:href="#id46">October</textPath></text><path d="M 79.00077361379809 100.18025310272382 l -21.04733254059628 0.18066603620195157 a42.048107926630365,42.048107926630365 0 0,0 0.0,-0.7218382778515304 l 21.04733254059628 0.18066603620194382" fill="#ffcf13" stroke="none" /><path d="M 79.06263194458094 98.37931529534042 l -22.723233450435004 -1.7589219808359522 a43.79120762438086,43.79120762438086 0 0,0 0.06444893263621822,-0.7489942899371059 l 22.689690895101045 2.1487373181487386" fill="#ffe715" stroke="none" /><path d="M 79.407916724674 95.88100663000787 l -20.33830839056949 -4.06823128566067 a41.74119798814759,41.74119798814759 0 0,0 0.14657578536092086,-0.7014181939836126 l 20.265474894384205 4.416765930929691" fill="#ffcb12" stroke="none" /><line stroke="#e1ed5e" stroke-width="0.3" x1="26.387840678322718" x2="22.05771365940052" y1="57.49999999999999" y2="54.99999999999999" /><path d="M 25.521815274538284 56.99999999999999 a86.0,86.0 0 0,1 29.574782752854787,-30.34633250058573" fill="none" id="id47" stroke="none" /><text fill="#e1ed5e" style="font-size:6.75px; font-family:Arial;" text-anchor="middle"><textPath startOffset="21.40746469413373" xlink:href="#id47">November</textPath></text><line stroke="#e1ed5e" stroke-width="0.3" x1="56.869717070023135" x2="54.33264160355391" y1="26.7553504044142" y2="22.446841604673864" /><path d="M 56.362301976729285 25.89364864446614 a86.0,86.0 0 0,1 42.16139366436587,-11.88097634709845" fill="none" id="id48" stroke="none" /><text fill="#e1ed5e" style="font-size:6.75px; font-family:Arial;" text-anchor="middle"><textPath startOffset="22.145653131862474" xlink:href="#id48">December</textPath></text></svg>