<?xml version="1.0" encoding="utf-8" ?>
<svg baseProfile="full" height="200mm" version="1.1" viewBox="0,0,200,200" width="200mm" xmlns="http://www.w3.org/2000/svg" xmlns:ev="http://www.w3.org/2001/xml-events" xmlns:xlink="http://www.w3.org/1999/xlink"><defs /><rect fill="#1a1a1a" height="200" width="200" x="0" y="0" /><text alignment-baseline="middle" fill="#e1ed5e" style="dominant-baseline: central; font-size:9.0px; font-family:Arial;" text-anchor="middle" x="100.0" y="100.0">2025</text><line stroke="#e1ed5e" stroke-width="0.3" x1="100.0" x2="100.0" y1="15.0" y2="10.0" /><path d="M 100.0 14.0 a86.0,86.0 0 0,1 42.46469731375804,11.215312516191453" fill="none" id="id49" stroke="none" /><text fill="#e1ed5e" style="font-size:6.75px; font-family:Arial;" text-anchor="middle"><textPath startOffset="22.20632615414155" xlink:href="#id49">January</textPath></text><line stroke="#e1ed5e" stroke-width="0.3" x1="143.23703022742887" x2="145.7803849466894" y1="26.81831364943548" y2="22.513508569990506" /><path d="M 143.74570117128098 25.957352633546492 a86.0,86.0 0 0,1 28.547481713284135,27.462654790039103" fill="none" id="id50" stroke="none" /><text fill="#e1ed5e" style="font-size:6.75px; font-family:Arial;" text-anchor="middle"><textPath startOffset="19.985693538727396" xlink:href="#id50">February</textPath></text><line stroke="#e1ed5e" stroke-width="0.3" x1="172.23445277983987" x2="176.4835382374775" y1="55.19839476539836" y2="52.563006222186495" /><path d="M 173.08426987136738 54.67131705675599 a86.0,86.0 0 0,1 12.851231095245387,41.99856678651699" fill="none" id="id51" stroke="none" /><text fill="#e1ed5e" style="font-size:6.75px; font-family:Arial;" text-anchor="middle"><textPath startOffset="22.20632615414155" xlink:href="#id51">March</textPath></text><path d="M 117.84615892207809 88.93136811851018 l 23.213112271439556 -14.397349910315572 a48.31542175706832,48.31542175706832 0 0,0 0.4322716403471995,0.7105409185559255 l -23.457499710072977 13.995641218552565" fill="red" stroke="none" /><path d="M 119.04729006885535 91.15688171328212 l 23.284336291000585 -10.810259060721597 a46.67142414188041,46.67142414188041 0 0,0 0.33202869670561164,0.7315812211192498 l -23.466967304669545 10.407855830760285" fill="red" stroke="none" /><path d="M 119.97218684219823 93.5106431181261 l 26.321741900592023 -8.552452382661324 a48.67631728462209,48.67631728462209 0 0,0 0.2520610750029301,0.799102489659442 l -26.46505845936316 8.098099726575462" fill="red" stroke="none" /><path d="M 120.37134235888165 94.90015583598534 l 20.586511556605302 -5.153710490442973 a42.221809298208896,42.221809298208896 0 0,0 0.17042974010146975,0.7065413015928957 l -20.67217409696759 4.7985839571906705" fill="red" stroke="none" /><path d="M 120.53481517161879 95.60439243477599 l 26.5044792754013 -5.67345206867489 a48.10489771306523,48.10489771306523 0 0,0 0.16635293056475486,0.8111959684745436 l -26.598211501881053 5.216380444036934" fill="red" stroke="none" /><path d="M 120.67395015179393 96.31383870115 l 31.45421656046772 -5.608280706857646 a52.95028250140699,52.95028250140699 0 0,0 0.15226519010658462,0.8986777712472693 l -31.54609361209453 5.066017147294539" fill="red" stroke="none" /><path d="M 120.83666639777658 97.38593545837742 l 26.861584478840452 -3.3699208010274115 a48.07214596073018,48.07214596073018 0 0,0 0.09593746036067385,0.8219335723505624 l -26.915612292204713 2.907043490351996" fill="red" stroke="none" /><path d="M 120.87857604477298 97.74499172005257 l 20.4484319067068 -2.2085501981879245 a41.56735426400636,41.56735426400636 0 0,0 0.07070977962358929,0.7120378310781158 l -20.48341881201262 1.8562368364053738" fill="red" stroke="none" /><line stroke="#e1ed5e" stroke-width="0.3" x1="184.98032266829074" x2="189.97916517819016" y1="98.17113171792111" y2="98.06355123074" /><path d="M 185.9800911702706 98.14961562048488 a86.0,86.0 0 0,1 -9.607161424134198,41.387399972396054" fill="none" id="id52" stroke="none" /><text fill="#e1ed5e" style="font-size:6.75px; font-family:Arial;" text-anchor="middle"><textPath startOffset="21.466115282336823" xlink:href="#id52">April</textPath></text><path d="M 120.99513854157772 99.54816195383933 l 37.625419126781146 -0.8097396371333239 a58.63413135367805,58.63413135367805 0 0,0 0.01303071779459747,1.0092434535464196 l -37.63378285169346 0.1619599255264414" fill="red" stroke="none" /><path d="M 120.9764740272857 100.99374915477107 l 38.76068833453314 1.8362667253172826 a59.80416003025089,59.80416003025089 0 0,0 -0.05756477649131127,1.027857754081911 l -38.7233372071543 -2.503196195734617" fill="red" stroke="none" /><path d="M 120.89721153311464 102.0752229133903 l 37.72973618044705 3.746797170223447 a58.91531987575642,58.91531987575642 0 0,0 -0.10890272018600942,1.0083039362229005 l -37.65965115875999 -4.395697428331139" fill="red" stroke="none" /><path d="M 120.81339534386255 102.79330883721812 l 38.25088748006808 5.133546942451019 a59.59382978175627,59.59382978175627 0 0,0 -0.1451988025875564,1.0155200871157246 l -38.156854626463925 -5.791212501547154" fill="red" stroke="none" /><path d="M 120.49622156327973 104.57218783832717 l 30.299492996198982 6.759049367074283 a52.0442269057108,52.0442269057108 0 0,0 -0.20257455494546173,0.8726858808363755 l -30.178657875322966 -7.279603905259224" fill="red" stroke="none" /><path d="M 120.32669344350535 105.2749913415812 l 37.41567986169615 9.70976356082563 a59.65504634481857,59.65504634481857 0 0,0 -0.26649307873942196,0.9917198838480492 l -37.24299870661495 -10.352374377849227" fill="red" stroke="none" /><path d="M 120.13307415673323 105.97154293290107 l 45.41006652476539 13.468790693737255 a68.36541422320005,68.36541422320005 0 0,0 -0.3443443100639529,1.1253371289174388 l -45.17149544219531 -14.24845479520675" fill="red" stroke="none" /><path d="M 119.9155931802556 106.66101706037122 l 37.71001194023312 12.61258103673875 a60.763327337395026,60.763327337395026 0 0,0 -0.34030116367978563,0.9890744730972267 l -37.48731994561011 -13.259828212925276" fill="red" stroke="none" /><path d="M 119.67450827220406 107.3425965602758 l 36.28463193757543 13.541553871113248 a59.72916467069205,59.72916467069205 0 0,0 -0.3677772698581857,0.960150398360382 l -36.04616038812374 -14.164127836306772" fill="red" stroke="none" /><path d="M 119.41010516605496 108.01547362559984 l 35.71297553518402 14.747803324351606 a59.63824950059731,59.63824950059731 0 0,0 -0.39999947264606683,0.9454805954012404 l -35.45382508134564 -15.36035844541901" fill="red" stroke="none" /><path d="M 119.12269723197855 108.67885076344098 l 34.88737044045353 15.833659755656289 a59.312313914814915,59.312313914814915 0 0,0 -0.4299447481809001,0.9260627379012568 l -34.6096510754328 -16.431842560836376" fill="red" stroke="none" /><path d="M 118.81262510543309 109.33194174019688 l 34.65319442214231 17.18960483434897 a59.682378391457114,59.682378391457114 0 0,0 -0.464446365097674,0.9163967403757844 l -34.352169387258364 -17.78355578642745" fill="red" stroke="none" /><line stroke="#e1ed5e" stroke-width="0.3" x1="174.80103733775053" x2="179.2010983576182" y1="140.37084112569926" y2="142.7455964860345" /><path d="M 175.68104954172406 140.8457921977663 a86.0,86.0 0 0,1 -30.038265399797805,32.042727171017184" fill="none" id="id53" stroke="none" /><text fill="#e1ed5e" style="font-size:6.75px; font-family:Arial;" text-anchor="middle"><textPath startOffset="22.206326154141568" xlink:href="#id53">May</textPath></text><path d="M 118.48025628344425 109.97397251340804 l 24.92623415306594 13.452928925459545 a49.32487326938882,49.32487326938882 0 0,0 -0.4096867380474312,0.7437004311133593 l -24.690971005567 -13.879999874970709" fill="red" stroke="none" /><path d="M 117.75023020441432 111.22182372390056 l 33.74774673232027 21.33556920375921 a60.926393811077304,60.926393811077304 0 0,0 -0.5680519809611199,0.8816292892316981 l -33.375489887982106 -21.91332009291236" fill="red" stroke="none" /><path d="M 117.35343817320211 111.8261652097733 l 31.907511977915362 21.74459633401966 a59.61239166835271,59.61239166835271 0 0,0 -0.5851640162099837,0.8429724089450976 l -31.528487054543245 -22.290610005151777" fill="red" stroke="none" /><path d="M 117.14729908036423 112.12312394758627 l 16.679872021103353 11.792653466531648 a41.42755018160737,41.42755018160737 0 0,0 -0.41668265479663064,0.5787357634176424 l -16.47440957393112 -12.078022835400423" fill="red" stroke="none" /><path d="M 116.498646956653 112.99209946851258 l 34.6294081700982 27.269431042659793 a65.07740667963171,65.07740667963171 0 0,0 -0.7006112371517396,0.8741202422491886 l -34.15487902089161 -27.86147911848723" fill="red" stroke="none" /><path d="M 116.0416608686014 113.55231037782055 l 24.46197380483454 20.66595623562369 a53.022959100637856,53.022959100637856 0 0,0 -0.5950122607994074,0.692133683795548 l -24.102619034464354 -21.08396701858077" fill="red" stroke="none" /><path d="M 115.32070863581623 114.36230785411682 l 28.300171961445432 26.529829115379542 a59.790869620809254,59.790869620809254 0 0,0 -0.7103538217974479,0.74480314219747 l -27.83931158826902 -27.013039374159522" fill="red" stroke="none" /><path d="M 114.81725581225074 114.88116024355365 l 33.56682909475838 33.711597407536594 a68.5731417424217,68.5731417424217 0 0,0 -0.8436130683283837,0.8256529443736765 l -32.98156607405421 -34.28440045483284" fill="red" stroke="none" /><path d="M 114.29624159901734 115.38237550388516 l 26.409662424182272 28.4160939451066 a59.7936162848527,59.7936162848527 0 0,0 -0.7599496726396499,0.6941960077234941 l -25.91661320207576 -28.866482719416677" fill="red" stroke="none" /><path d="M 113.75828350139079 115.86535959552629 l 21.35503173866432 24.62554705123916 a53.595320954581105,53.595320954581105 0 0,0 -0.702186813739946,0.5984188362867753 l -20.927979448347326 -24.98949027774888" fill="red" stroke="none" /><path d="M 113.48314897796784 116.09983520530334 l 24.877041730016508 29.704950446159447 a59.745984130562114,59.745984130562114 0 0,0 -0.7941375652540346,0.6535211515938893 l -24.362034036217782 -30.128766716610517" fill="red" stroke="none" /><path d="M 112.34349029814194 116.9893568818739 l 22.778921661657424 31.352495942934453 a59.753816249753356,59.753816249753356 0 0,0 -0.8373292942400792,0.5974122189686596 l -22.235865039568463 -31.739952423747333" fill="red" stroke="none" /><path d="M 111.7513745106137 117.40417183066458 l 21.694052840598648 32.129605179401075 a59.76781471317261,59.76781471317261 0 0,0 -0.8575978463857497,0.5683690892032374 l -21.137780295472936 -32.498272289695635" fill="red" stroke="none" /><path d="M 111.45004920935366 117.60387380957326 l 17.239481778841384 26.504834715404005 a52.618127637383736,52.618127637383736 0 0,0 -0.7635095730156275,0.4873079337037288 l -16.780690403778827 -26.797657077931543" fill="red" stroke="none" /><line stroke="#e1ed5e" stroke-width="0.3" x1="143.8653032363475" x2="146.44561519142675" y1="172.8068346515853" y2="177.08958963109032" /><path d="M 144.38136562736335 173.6633856474863 a86.0,86.0 0 0,1 -40.68145358897372,12.25698825130547" fill="none" id="id54" stroke="none" /><text fill="#e1ed5e" style="font-size:6.75px; font-family:Arial;" text-anchor="middle"><textPath startOffset="21.466115282336833" xlink:href="#id54">June</textPath></text><path d="M 110.8373102113329 117.98757091392108 l 24.091454319591087 39.98655889170459 a67.68322036056107,67.68322036056107 0 0,0 -1.003104417546313,0.5926517710312729 l -23.39958203101639 -40.395329235029614" fill="red" stroke="none" /><path d="M 109.89434966115114 118.52300852407294 l 18.263950231265582 34.19156563116821 a59.76383673426341,59.76383673426341 0 0,0 -0.9115666955193229,0.47688861179302855 l -17.672692633219764 -34.50088366190595" fill="red" stroke="none" /><path d="M 109.2508944713604 118.85261126421891 l 15.680618150722946 31.955893486131426 a56.59579910727892,56.59579910727892 0 0,0 -0.8782787606412351,0.4216271780201811 l -15.128226722081479 -32.221074940651164" fill="red" stroke="none" /><path d="M 108.59647513512805 119.15986991738527 l 24.08025218693127 53.67019530994816 a79.82472617865884,79.82472617865884 0 0,0 -1.2584912613742814,0.5516855853374999 l -23.15284025089923 -54.07674544858012" fill="red" stroke="none" /><path d="M 107.93186726928326 119.44442032107085 l 20.624479375513527 50.5594751230601 a75.60430087667378,75.60430087667378 0 0,0 -1.2092329154792465,0.4811787327924029 l -19.751125383992413 -50.90700070025858" fill="red" stroke="none" /><path d="M 107.2578585660854 119.70592522655815 l 13.434945940332744 36.47743169867836 a59.872879951856,59.872879951856 0 0,0 -0.9701699950657477,0.3478684432354869 l -12.805056384637261 -36.70328768295381" fill="red" stroke="none" /><path d="M 106.91757812671514 119.82793768551818 l 10.25430151982114 29.392028224201173 a52.12943980850996,52.12943980850996 0 0,0 -0.849785002451427,0.2882932111444965 l -9.746846784432487 -29.56418442224379" fill="red" stroke="none" /><path d="M 106.2309692047433 120.05430185196036 l 13.848031312867208 44.569727578212074 a67.67149652237636,67.67149652237636 0 0,0 -1.1153713554035396,0.33605223985234256 l -13.078784983023423 -44.80149518717014" fill="red" stroke="none" /><path d="M 105.53697534728816 120.25689768951611 l 14.434710940659075 52.80905988607654 a75.74630294359247,75.74630294359247 0 0,0 -1.2606693714514845,0.3329542390459517 l -13.523551126396093 -53.04970547442608" fill="red" stroke="none" /><path d="M 104.83641907484287 120.43548508189849 l 7.576132528426185 32.01168899288765 a53.89598784450228,53.89598784450228 0 0,0 -0.9046309401787755,0.205891056759209 l -7.0239814388545465 -32.13735678322455" fill="red" stroke="none" /><path d="M 104.48393922423573 120.51570834832081 l 6.6200244292445705 30.289101537117663 a52.00410287961286,52.00410287961286 0 0,0 -0.8761664590243857,0.18360920029547387 l -6.097666508790807 -30.398566718139676" fill="red" stroke="none" /><path d="M 103.7750983002368 120.6578951692458 l 8.252831141437133 45.16071026775673 a66.90859368067532,66.90859368067532 0 0,0 -1.1347411646062484,0.1972892966603733 l -7.474241005358834 -45.29607814293811" fill="red" stroke="none" /><path d="M 103.06178313531738 120.77559828337769 l 9.185349405952133 62.326794850133076 a84.0,84.0 0 0,0 -1.4322856352526783,0.1985017380295897 l -8.111135179512624 -62.47567115365527" fill="red" stroke="none" /><path d="M 102.34483914955558 120.86867818915974 l 4.333532933971245 38.567721900374735 a59.81041973844729,59.81041973844729 0 0,0 -1.0240893962515476,0.10615105317038588 l -3.6690109411140948 -38.63660232200088" fill="red" stroke="none" /><line stroke="#e1ed5e" stroke-width="0.3" x1="102.19456741930631" x2="102.32365962044197" y1="184.97166512339345" y2="189.96999836594603" /><path d="M 102.22038585953345 185.97133177190398 a86.0,86.0 0 0,1 -42.740103519485714,-10.115201625700543" fill="none" id="id55" stroke="none" /><text fill="#e1ed5e" style="font-size:6.75px; font-family:Arial;" text-anchor="middle"><textPath startOffset="22.20632615414155" xlink:href="#id55">July</textPath></text><path d="M 100.54218724476979 120.99299961872073 l 1.00345679475671 38.85293929899531 a59.865895303084905,59.865895303084905 0 0,0 -1.0303784649142895,0.017738899701280706 l -0.33451863994975245 -38.86445567597575" fill="red" stroke="none" /><path d="M 100.18074693466247 120.99922214144158 l 0.3009170563870683 34.96061565315761 a55.961910673225994,55.961910673225994 0 0,0 -0.9633279820990235,0.0 l 0.30091705638704425 -34.96061565315761" fill="red" stroke="none" /><path d="M 99.45781275523022 120.99299961872073 l -1.0255877437917014 39.70982962449778 a60.723071369505874,60.723071369505874 0 0,0 -1.0446671366481255,-0.035980448439878805 l 1.7089752321144698 -39.68629237763181" fill="red" stroke="none" /><path d="M 98.73552117531835 120.96189622390904 l -1.9677086943991071 32.619688559246654 a53.67898344820813,53.67898344820813 0 0,0 -0.9218400188073947,-0.06357548490666018 l 2.528911473985432 -32.58098472982371" fill="red" stroke="none" /><path d="M 98.01472825383883 120.90594882070398 l -4.107979685626222 43.25917256932596 a64.45378589352418,64.45378589352418 0 0,0 -1.103594306317787,-0.114392062174706 l 4.852006588549602 -43.18205113869549" fill="red" stroke="none" /><path d="M 96.22490169976321 120.6578951692458 l -7.005885749908021 38.33724101442202 a59.97212444477009,59.97212444477009 0 0,0 -1.0139069714680897,-0.19431768420078463 l 7.664760335947806 -38.210966131872766" fill="red" stroke="none" /><line stroke="#e1ed5e" stroke-width="0.3" x1="58.666819895761336" x2="56.23545636021788" y1="174.27360380694188" y2="178.64263932499728" /><path d="M 58.180547188652646 175.14741091055294 a86.0,86.0 0 0,1 -31.652253787137756,-30.449443065178592" fill="none" id="id56" stroke="none" /><text fill="#e1ed5e" style="font-size:6.75px; font-family:Arial;" text-anchor="middle"><textPath startOffset="22.20632615414155" xlink:href="#id56">August</textPath></text><line stroke="#e1ed5e" stroke-width="0.3" x1="26.63291911575756" x2="22.317208475507996" y1="142.92168965132927" y2="145.44649492493687" /><path d="M 25.769776987707644 143.4266507060508 a86.0,86.0 0 0,1 -11.730757126820373,-40.83630448921669" fill="none" id="id57" stroke="none" /><text fill="#e1ed5e" style="font-size:6.75px; font-family:Arial;" text-anchor="middle"><textPath startOffset="21.46611528233685" xlink:href="#id57">September</textPath></text><line stroke="#e1ed5e" stroke-width="0.3" x1="15.007084014347285" x2="10.007500721073583" y1="101.09737516637583" y2="101.16192664675087" /><path d="M 14.007167355692545 101.11028546245083 a86.0,86.0 0 0,1 10.666146001902534,-42.60595125391555" fill="none" id="id58" stroke="none" /><text fill="#e1ed5e" style="font-size:6.75px; font-family:Arial;" text-anchor="middle"><textPath startOffset="22.20632615414155" xlink:href="#id58">October</textPath></text><line stroke="#e1ed5e" stroke-width="0.3" x1="26.266209847984243" x2="21.928928074336255" y1="57.711370442889674" y2="55.22380399835377" /><path d="M 25.398753493254645 57.213857153982495 a86.0,86.0 0 0,1 29.58750427330803,-30.492523968695096" fill="none" id="id59" stroke="none" /><text fill="#e1ed5e" style="font-size:6.75px; font-family:Arial;" text-anchor="middle"><textPath startOffset="21.46611528233685" xlink:href="#id59">November</textPath></text><line stroke="#e1ed5e" stroke-width="0.3" x1="56.762969772571076" x2="54.21961505331055" y1="26.818313649435495" y2="22.513508569990535" /><path d="M 56.25429882871897 25.957352633546506 a86.0,86.0 0 0,1 42.265352541879196,-11.944610805530505" fill="none" id="id60" stroke="none" /><text fill="#e1ed5e" style="font-size:6.75px; font-family:Arial;" text-anchor="middle"><textPath startOffset="22.20632615414155" xlink:href="#id60">December</textPath></text></svg>