<?xml version="1.0" encoding="utf-8" ?>
<svg baseProfile="full" height="200mm" version="1.1" viewBox="0,0,200,200" width="200mm" xmlns="http://www.w3.org/2000/svg" xmlns:ev="http://www.w3.org/2001/xml-events" xmlns:xlink="http://www.w3.org/1999/xlink"><defs /><rect fill="#1a1a1a" height="200" width="200" x="0" y="0" /><text alignment-baseline="middle" fill="#e1ed5e" style="dominant-baseline: central; font-size:9.0px; font-family:Arial;" text-anchor="middle" x="100.0" y="100.0">2025</text><line stroke="#e1ed5e" stroke-width="0.3" x1="100.0" x2="100.0" y1="15.0" y2="10.0" /><path d="M 100.0 14.0 a86.0,86.0 0 0,1 42.46469731375804,11.215312516191453" fill="none" id="id49" stroke="none" /><text fill="#e1ed5e" style="font-size:6.75px; font-family:Arial;" text-anchor="middle"><textPath startOffset="22.20632615414155" xlink:href="#id49">January</textPath></text><line stroke="#e1ed5e" stroke-width="0.3" x1="143.23703022742887" x2="145.7803849466894" y1="26.81831364943548" y2="22.513508569990506" /><path d="M 143.74570117128098 25.957352633546492 a86.0,86.0 0 0,1 28.547481713284135,27.462654790039103" fill="none" id="id50" stroke="none" /><text fill="#e1ed5e" style="font-size:6.75px; font-family:Arial;" text-anchor="middle"><textPath startOffset="19.985693538727396" xlink:href="#id50">February</textPath></text><line stroke="#e1ed5e" stroke-width="0.3" x1="172.23445277983987" x2="176.4835382374775" y1="55.19839476539836" y2="52.563006222186495" /><path d="M 173.08426987136738 54.67131705675599 a86.0,86.0 0 0,1 12.851231095245387,41.99856678651699" fill="none" id="id51" stroke="none" /><text fill="#e1ed5e" style="font-size:6.75px; font-family:Arial;" text-anchor="middle"><textPath startOffset="22.20632615414155" xlink:href="#id51">March</textPath></text><path d="M 117.84615892207809 88.93136811851018 l 30.875399214483824 -19.149690955423065 a57.33181719019791,57.33181719019791 0 0,0 0.5129401288371657,0.8431387032825404 l -31.200455141607215 18.615384478933443" fill="red" stroke="none" /><path d="M 119.04729006885535 91.15688171328212 l 30.970133173975878 -14.378557265775527 a55.145161558542775,55.145161558542775 0 0,0 0.39231235083467597,0.8644082620914768 l -31.2130478417739 13.843326994841986" fill="red" stroke="none" /><path d="M 119.97218684219823 93.5106431181261 l 35.01013908424896 -11.375483756325975 a57.81183871241551,57.81183871241551 0 0,0 0.29936763967867214,0.9490772273660927 l -35.20076220769584 10.771156362533464" fill="red" stroke="none" /><path d="M 120.37134235888165 94.90015583598534 l 27.381798498679128 -6.854870082374873 a49.22679813348486,49.22679813348486 0 0,0 0.19870561094768727,0.8237630410584649 l -27.495736909887633 6.3825218096570016" fill="red" stroke="none" /><path d="M 120.53481517161879 95.60439243477599 l 35.25319522134373 -7.5461702634376335 a57.051802437034446,57.051802437034446 0 0,0 0.1972924791569494,0.9620681953671184 l -35.377866996415676 6.938226411907102" fill="red" stroke="none" /><path d="M 120.67395015179393 96.31383870115 l 41.83676371901868 -7.459486849773422 a63.496573303537545,63.496573303537545 0 0,0 0.1825923743640636,1.0776705294583784 l -41.95896795490296 6.738230531999206" fill="red" stroke="none" /><path d="M 120.83666639777658 97.38593545837742 l 35.72817529247011 -4.4822791892895095 a57.00823984118371,57.00823984118371 0 0,0 0.11377120036336894,0.9747221658121721 l -35.80003684583707 3.866613285152485" fill="red" stroke="none" /><path d="M 120.87857604477298 97.74499172005257 l 27.198140906187415 -2.937558232472667 a48.35631768206374,48.35631768206374 0 0,0 0.08225841233459934,0.8283309864413394 l -27.244676444204245 2.4689517153268925" fill="red" stroke="none" /><line stroke="#e1ed5e" stroke-width="0.3" x1="184.98032266829074" x2="189.97916517819016" y1="98.17113171792111" y2="98.06355123074" /><path d="M 185.9800911702706 98.14961562048488 a86.0,86.0 0 0,1 -9.607161424134198,41.387399972396054" fill="none" id="id52" stroke="none" /><text fill="#e1ed5e" style="font-size:6.75px; font-family:Arial;" text-anchor="middle"><textPath startOffset="21.466115282336823" xlink:href="#id52">April</textPath></text><path d="M 120.99513854157772 99.54816195383933 l 50.04498416961307 -1.0770220840676707 a71.05657216696318,71.05657216696318 0 0,0 0.015791453168702306,1.223065450707966 l -50.0561086298995 0.215420375299242" fill="red" stroke="none" /><path d="M 120.9764740272857 100.99374915477107 l 51.55498806721107 2.442389781494305 a72.61280909285043,72.61280909285043 0 0,0 -0.06989380209874764,1.2480007884736224 l -51.505307914224794 -3.3294622863033507" fill="red" stroke="none" /><path d="M 120.89721153311464 102.0752229133903 l 50.18373465852431 4.98355658016094 a71.43057664220031,71.43057664220031 0 0,0 -0.13203669465252083,1.222495808337957 l -50.090515662370734 -5.846648710383688" fill="red" stroke="none" /><path d="M 120.81339534386255 102.79330883721812 l 50.876909888057995 6.828050861128185 a72.33305210407546,72.33305210407546 0 0,0 -0.1762375835128877,1.2326052486152563 l -50.751838253528504 -7.70280158172385" fill="red" stroke="none" /><path d="M 120.49622156327973 104.57218783832717 l 40.30088388471337 8.99010632777511 a62.29144286258173,62.29144286258173 0 0,0 -0.24246034699793975,1.0445128290902885 l -40.140162971784875 -9.682487814213964" fill="red" stroke="none" /><path d="M 120.32669344350535 105.2749913415812 l 49.7660132386699 12.914805335585783 a72.41447530149017,72.41447530149017 0 0,0 -0.32349243946350736,1.2038357093850258 l -49.536332722864614 -13.769531978146357" fill="red" stroke="none" /><path d="M 120.13307415673323 105.97154293290107 l 60.399222470199675 17.914628798703227 a84.0,84.0 0 0,0 -0.4230929099754692,1.3826921097917715 l -60.08190278771807 -18.951647881047055" fill="red" stroke="none" /><path d="M 119.9155931802556 106.66101706037122 l 50.15749975371335 16.77579766473027 a73.88858259427761,73.88858259427761 0 0,0 -0.41380832389025957,1.2027206886078516 l -49.861300598879865 -17.636691056427424" fill="red" stroke="none" /><path d="M 119.67450827220406 107.3425965602758 l 48.261624004706384 18.011409968040965 a72.51305893274537,72.51305893274537 0 0,0 -0.44649301543700665,1.165652371073058 l -47.94443670967587 -18.839485905947168" fill="red" stroke="none" /><path d="M 119.41010516605496 108.01547362559984 l 47.50127272431963 19.615823585029755 a72.39213408051081,72.39213408051081 0 0,0 -0.48554100260165534,1.1476755036567978 l -47.15658074052566 -20.430573614352717" fill="red" stroke="none" /><path d="M 119.12269723197855 108.67885076344098 l 46.40314824212003 21.06010431800997 a71.95861223253269,71.95861223253269 0 0,0 -0.5216155866081565,1.1235135684529303 l -46.03375803867205 -21.85573795374173" fill="red" stroke="none" /><path d="M 118.81262510543309 109.33194174019688 l 46.091674366179966 22.863625755721735 a72.45082923117637,72.45082923117637 0 0,0 -0.5638100422879383,1.1124507021066734 l -45.691285654105755 -23.6536306695311" fill="red" stroke="none" /><line stroke="#e1ed5e" stroke-width="0.3" x1="174.80103733775053" x2="179.2010983576182" y1="140.37084112569926" y2="142.7455964860345" /><path d="M 175.68104954172406 140.8457921977663 a86.0,86.0 0 0,1 -30.038265399797805,32.042727171017184" fill="none" id="id53" stroke="none" /><text fill="#e1ed5e" style="font-size:6.75px; font-family:Arial;" text-anchor="middle"><textPath startOffset="22.206326154141568" xlink:href="#id53">May</textPath></text><path d="M 118.48025628344425 109.97397251340804 l 33.153995956694914 17.89353130767767 a58.67447293002762,58.67447293002762 0 0,0 -0.48734344009502967,0.8846699022436507 l -32.841076107148375 -18.461571728319125" fill="red" stroke="none" /><path d="M 117.75023020441432 111.22182372390056 l 44.887352491362535 28.378108412666574 a74.10547477205046,74.10547477205046 0 0,0 -0.6909281694048652,1.0723358624186583 l -44.39221945858062 -29.146565875006683" fill="red" stroke="none" /><line stroke="#e1ed5e" stroke-width="0.3" x1="143.8653032363475" x2="146.44561519142675" y1="172.8068346515853" y2="177.08958963109032" /><path d="M 144.38136562736335 173.6633856474863 a86.0,86.0 0 0,1 -40.68145358897372,12.25698825130547" fill="none" id="id54" stroke="none" /><text fill="#e1ed5e" style="font-size:6.75px; font-family:Arial;" text-anchor="middle"><textPath startOffset="21.466115282336833" xlink:href="#id54">June</textPath></text><line stroke="#e1ed5e" stroke-width="0.3" x1="102.19456741930631" x2="102.32365962044197" y1="184.97166512339345" y2="189.96999836594603" /><path d="M 102.22038585953345 185.97133177190398 a86.0,86.0 0 0,1 -42.740103519485714,-10.115201625700543" fill="none" id="id55" stroke="none" /><text fill="#e1ed5e" style="font-size:6.75px; font-family:Arial;" text-anchor="middle"><textPath startOffset="22.20632615414155" xlink:href="#id55">July</textPath></text><line stroke="#e1ed5e" stroke-width="0.3" x1="58.666819895761336" x2="56.23545636021788" y1="174.27360380694188" y2="178.64263932499728" /><path d="M 58.180547188652646 175.14741091055294 a86.0,86.0 0 0,1 -31.652253787137756,-30.449443065178592" fill="none" id="id56" stroke="none" /><text fill="#e1ed5e" style="font-size:6.75px; font-family:Arial;" text-anchor="middle"><textPath startOffset="22.20632615414155" xlink:href="#id56">August</textPath></text><line stroke="#e1ed5e" stroke-width="0.3" x1="26.63291911575756" x2="22.317208475507996" y1="142.92168965132927" y2="145.44649492493687" /><path d="M 25.769776987707644 143.4266507060508 a86.0,86.0 0 0,1 -11.730757126820373,-40.83630448921669" fill="none" id="id57" stroke="none" /><text fill="#e1ed5e" style="font-size:6.75px; font-family:Arial;" text-anchor="middle"><textPath startOffset="21.46611528233685" xlink:href="#id57">September</textPath></text><line stroke="#e1ed5e" stroke-width="0.3" x1="15.007084014347285" x2="10.007500721073583" y1="101.09737516637583" y2="101.16192664675087" /><path d="M 14.007167355692545 101.11028546245083 a86.0,86.0 0 0,1 10.666146001902534,-42.60595125391555" fill="none" id="id58" stroke="none" /><text fill="#e1ed5e" style="font-size:6.75px; font-family:Arial;" text-anchor="middle"><textPath startOffset="22.20632615414155" xlink:href="#id58">October</textPath></text><line stroke="#e1ed5e" stroke-width="0.3" x1="26.266209847984243" x2="21.928928074336255" y1="57.711370442889674" y2="55.22380399835377" /><path d="M 25.398753493254645 57.213857153982495 a86.0,86.0 0 0,1 29.58750427330803,-30.492523968695096" fill="none" id="id59" stroke="none" /><text fill="#e1ed5e" style="font-size:6.75px; font-family:Arial;" text-anchor="middle"><textPath startOffset="21.46611528233685" xlink:href="#id59">November</textPath></text><line stroke="#e1ed5e" stroke-width="0.3" x1="56.762969772571076" x2="54.21961505331055" y1="26.818313649435495" y2="22.513508569990535" /><path d="M 56.25429882871897 25.957352633546506 a86.0,86.0 0 0,1 42.265352541879196,-11.944610805530505" fill="none" id="id60" stroke="none" /><text fill="#e1ed5e" style="font-size:6.75px; font-family:Arial;" text-anchor="middle"><textPath startOffset="22.20632615414155" xlink:href="#id60">December</textPath></text></svg>