<?xml version="1.0" encoding="utf-8" ?>
<svg baseProfile="full" height="200mm" version="1.1" viewBox="0,0,200,200" width="200mm" xmlns="http://www.w3.org/2000/svg" xmlns:ev="http://www.w3.org/2001/xml-events" xmlns:xlink="http://www.w3.org/1999/xlink"><defs /><rect fill="#1a1a1a" height="200" width="200" x="0" y="0" /><text alignment-baseline="middle" fill="#e1ed5e" style="dominant-baseline: central; font-size:9.0px; font-family:Arial;" text-anchor="middle" x="100.0" y="100.0">2025</text><line stroke="#e1ed5e" stroke-width="0.3" x1="100.0" x2="100.0" y1="15.0" y2="10.0" /><path d="M 100.0 14.0 a86.0,86.0 0 0,1 42.46469731375804,11.215312516191453" fill="none" id="id49" stroke="none" /><text fill="#e1ed5e" style="font-size:6.75px; font-family:Arial;" text-anchor="middle"><textPath startOffset="22.20632615414155" xlink:href="#id49">January</textPath></text><line stroke="#e1ed5e" stroke-width="0.3" x1="143.23703022742887" x2="145.7803849466894" y1="26.81831364943548" y2="22.513508569990506" /><path d="M 143.74570117128098 25.957352633546492 a86.0,86.0 0 0,1 28.547481713284135,27.462654790039103" fill="none" id="id50" stroke="none" /><text fill="#e1ed5e" style="font-size:6.75px; font-family:Arial;" text-anchor="middle"><textPath startOffset="19.985693538727396" xlink:href="#id50">February</textPath></text><line stroke="#e1ed5e" stroke-width="0.3" x1="172.23445277983987" x2="176.4835382374775" y1="55.19839476539836" y2="52.563006222186495" /><path d="M 173.08426987136738 54.67131705675599 a86.0,86.0 0 0,1 12.851231095245387,41.99856678651699" fill="none" id="id51" stroke="none" /><text fill="#e1ed5e" style="font-size:6.75px; font-family:Arial;" text-anchor="middle"><textPath startOffset="22.20632615414155" xlink:href="#id51">March</textPath></text><path d="M 117.84615892207809 88.93136811851018 l 21.666417191855295 -13.438051131033143 a46.49538884056848,46.49538884056848 0 0,0 0.415988048365801,0.6837749748207324 l -21.89452103850732 13.063108383005329" fill="red" stroke="none" /><path d="M 119.04729006885535 91.15688171328212 l 21.732895538396907 -10.089968980583524 a44.960931169552026,44.960931169552026 0 0,0 0.3198599497095956,0.7047690001420677 l -21.90335780506985 9.714377971599394" fill="red" stroke="none" /><path d="M 119.97218684219823 93.5106431181261 l 24.567918104468724 -7.982600487578899 a46.83223781502828,46.83223781502828 0 0,0 0.24251185929750338,0.7688288663147314 l -24.701685447534434 7.558521454837748" fill="red" stroke="none" /><path d="M 120.37134235888165 94.90015583598534 l 19.214827494680446 -4.810317559587364 a40.80779519972887,40.80779519972887 0 0,0 0.16472202507671388,0.6828791379334819 l -19.29478232001798 4.478853189994476" fill="red" stroke="none" /><path d="M 120.53481517161879 95.60439243477599 l 24.738479645414422 -5.295428635355563 a46.29889206267198,46.29889206267198 0 0,0 0.16010753047365717,0.7807411796216541 l -24.825966471803078 4.868811799570497" fill="red" stroke="none" /><path d="M 120.67395015179393 96.31383870115 l 29.35841478182772 -5.234599656561924 a50.821427733532786,50.821427733532786 0 0,0 0.14614340074821697,0.8625466239195573 l -29.444170044096158 4.728467244326529" fill="red" stroke="none" /><path d="M 120.83666639777658 97.38593545837742 l 25.07179084593855 -3.145382192822312 a46.268322567226576,46.268322567226576 0 0,0 0.09233757456707364,0.7910919492842013 l -25.122218773509214 2.713346505213258" fill="red" stroke="none" /><path d="M 120.87857604477298 97.74499172005257 l 19.085948124028924 -2.0613939838635336 a40.196946656951255,40.196946656951255 0 0,0 0.06837859397068705,0.6885631096892346 l -19.11860384368184 1.732555343469864" fill="red" stroke="none" /><line stroke="#e1ed5e" stroke-width="0.3" x1="184.98032266829074" x2="189.97916517819016" y1="98.17113171792111" y2="98.06355123074" /><path d="M 185.9800911702706 98.14961562048488 a86.0,86.0 0 0,1 -9.607161424134198,41.387399972396054" fill="none" id="id52" stroke="none" /><text fill="#e1ed5e" style="font-size:6.75px; font-family:Arial;" text-anchor="middle"><textPath startOffset="21.466115282336823" xlink:href="#id52">April</textPath></text><path d="M 120.99513854157772 99.54816195383933 l 35.11842868318223 -0.7557864964319204 a56.126560412370935,56.126560412370935 0 0,0 0.012473440854840156,0.9660817404214808 l -35.126235131154786 0.1511684979499769" fill="red" stroke="none" /><path d="M 120.9764740272857 100.99374915477107 l 36.178054639090135 1.7139158455368522 a57.21862980559278,57.21862980559278 0 0,0 -0.05507606217079095,0.9834200880653043 l -36.143192226031815 -2.3364076499375797" fill="red" stroke="none" /><path d="M 120.89721153311464 102.0752229133903 l 35.21579506725523 3.497147201722026 a56.389013277702865,56.389013277702865 0 0,0 -0.1042329388603358,0.9650675608235116 l -35.15037982689384 -4.102811084430329" fill="red" stroke="none" /><path d="M 120.81339534386255 102.79330883721812 l 35.7022219343479 4.791497513496467 a57.02231391056486,57.02231391056486 0 0,0 -0.13893337164110978,0.9716996776690537 l -35.614454511690184 -5.40534266314593" fill="red" stroke="none" /><path d="M 120.49622156327973 104.57218783832717 l 28.280630717710885 6.3086923328051965 a49.97574283329985,49.97574283329985 0 0,0 -0.19452328268543617,0.8380012106615576 l -28.167846869094895 -6.794562200815319" fill="red" stroke="none" /><path d="M 120.32669344350535 105.2749913415812 l 34.92266439420164 9.062799752274499 a57.07945159976612,57.07945159976612 0 0,0 -0.2549872931395467,0.9489025753736099 l -34.76148902472032 -9.662593260823657" fill="red" stroke="none" /><path d="M 120.13307415673323 105.97154293290107 l 42.384383211121 12.57136203142106 a65.2094456367891,65.2094456367891 0 0,0 -0.3284482632423365,1.0733879281652827 l -42.16170817537253 -13.2990769321384" fill="red" stroke="none" /><path d="M 119.9155931802556 106.66101706037122 l 35.197385057762745 11.772201823375656 a58.11388757156422,58.11388757156422 0 0,0 -0.3254631441881036,0.9459482429314333 l -34.98953108263141 -12.37632276939639" fill="red" stroke="none" /><path d="M 119.67450827220406 107.3425965602758 l 33.86697845681305 12.639276981333781 a57.14863140431617,57.14863140431617 0 0,0 -0.35188785495144026,0.9186681499922111 l -33.6443963222681 -13.220368698159135" fill="red" stroke="none" /><path d="M 119.41010516605496 108.01547362559984 l 33.33341165371589 13.765153752432036 a57.06377393318919,57.06377393318919 0 0,0 -0.3827322175215998,0.9046659049517061 l -33.091528455001985 -14.336894183049907" fill="red" stroke="none" /><path d="M 119.12269723197855 108.67885076344098 l 32.56281681882335 14.778659316701095 a56.759555511434435,56.759555511434435 0 0,0 -0.41144024217756997,0.8862056782082192 l -32.303601959805945 -15.336985062188145" fill="red" stroke="none" /><path d="M 118.81262510543309 109.33194174019688 l 32.344244003178076 16.044257458848747 a57.104962505768434,57.104962505768434 0 0,0 -0.44438899688085276,0.8768216500409803 l -32.06327633651095 -16.598633320592423" fill="red" stroke="none" /><line stroke="#e1ed5e" stroke-width="0.3" x1="174.80103733775053" x2="179.2010983576182" y1="140.37084112569926" y2="142.7455964860345" /><path d="M 175.68104954172406 140.8457921977663 a86.0,86.0 0 0,1 -30.038265399797805,32.042727171017184" fill="none" id="id53" stroke="none" /><text fill="#e1ed5e" style="font-size:6.75px; font-family:Arial;" text-anchor="middle"><textPath startOffset="22.206326154141568" xlink:href="#id53">May</textPath></text><path d="M 118.48025628344425 109.97397251340804 l 23.26539336333062 12.556557136459675 a47.43758036340854,47.43758036340854 0 0,0 -0.3940110997103944,0.7152445942346909 l -23.04580585416872 -12.955172249092172" fill="red" stroke="none" /><path d="M 117.75023020441432 111.22182372390056 l 31.499126503909235 19.913975256264926 a58.26608888810857,58.26608888810857 0 0,0 -0.5432484206824832,0.843133612864421 l -31.1516732198497 -20.4532304690508" fill="red" stroke="none" /><path d="M 117.35343817320211 111.8261652097733 l 29.781507019987462 20.295748813527812 a57.03963901433223,57.03963901433223 0 0,0 -0.55990949724827,0.8065913908097206 l -29.427736615577054 -20.80538146652455" fill="red" stroke="none" /><path d="M 117.14729908036423 112.12312394758627 l 15.568488261723642 11.006906218224575 a40.066457753138565,40.066457753138565 0 0,0 -0.4029926440662889,0.559721535875373 l -15.376715825281751 -11.273261359551078" fill="red" stroke="none" /><path d="M 116.498646956653 112.99209946851258 l 32.32204263465015 25.452462498177386 a62.14051880199457,62.14051880199457 0 0,0 -0.6689932493690256,0.8346719410023846 l -31.879131473226273 -26.00506227275802" fill="red" stroke="none" /><path d="M 116.0416608686014 113.55231037782055 l 22.832066790280205 19.28897875622426 a50.88926187402237,50.88926187402237 0 0,0 -0.5710683687155981,0.664281527925508 l -22.496655911993827 -19.679137383311296" fill="red" stroke="none" /><path d="M 115.32070863581623 114.36230785411682 l 26.41452490936914 24.76214041964809 a57.20622493922906,57.20622493922906 0 0,0 -0.6796465877466165,0.7126067300610772 l -25.984371770243555 -25.213154266291674" fill="red" stroke="none" /><path d="M 114.81725581225074 114.88116024355365 l 31.330263450694112 31.465385817059126 a65.40333222300197,65.40333222300197 0 0,0 -0.8046168568854434,0.7874869438622323 l -30.783996641432875 -32.00002286384393" fill="red" stroke="none" /><path d="M 114.29624159901734 115.38237550388516 l 24.649980463085598 26.522722984247725 a57.20878859240729,57.20878859240729 0 0,0 -0.7270976880842114,0.6641864987451368 l -24.189783225534523 -26.943102249579443" fill="red" stroke="none" /><path d="M 113.75828350139079 115.86535959552629 l 19.9321409979343 22.984741113162325 a51.42348712427009,51.42348712427009 0 0,0 -0.6737322201277333,0.5741692143012225 l -19.53354330122952 -23.324434717686497" fill="red" stroke="none" /><path d="M 113.48314897796784 116.09983520530334 l 23.21947864289141 27.725702676316143 a57.164330179655956,57.164330179655956 0 0,0 -0.7598224826131524,0.6252821747393753 l -22.738786031733568 -28.121279969912695" fill="red" stroke="none" /><path d="M 112.34349029814194 116.9893568818739 l 21.261156803574657 29.263471832742837 a57.171640442920506,57.171640442920506 0 0,0 -0.8011453049714761,0.5715959033700124 l -20.754284170754296 -29.625111997957067" fill="red" stroke="none" /><path d="M 111.7513745106137 117.40417183066458 l 20.24857304485069 29.98880209970776 a57.18470618546032,57.18470618546032 0 0,0 -0.8205332770857365,0.5438047137403785 l -19.72936506902499 -30.332904834539455" fill="red" stroke="none" /><path d="M 111.45004920935366 117.60387380957326 l 16.090811090907696 24.738811402366924 a50.51140442549554,50.51140442549554 0 0,0 -0.7329401967912239,0.4677971114573376 l -15.662589092069542 -25.012122942648073" fill="red" stroke="none" /><line stroke="#e1ed5e" stroke-width="0.3" x1="143.8653032363475" x2="146.44561519142675" y1="172.8068346515853" y2="177.08958963109032" /><path d="M 144.38136562736335 173.6633856474863 a86.0,86.0 0 0,1 -40.68145358897372,12.25698825130547" fill="none" id="id54" stroke="none" /><text fill="#e1ed5e" style="font-size:6.75px; font-family:Arial;" text-anchor="middle"><textPath startOffset="21.466115282336833" xlink:href="#id54">June</textPath></text><path d="M 110.8373102113329 117.98757091392108 l 22.486235104674083 37.322245155394455 a64.57270651017724,64.57270651017724 0 0,0 -0.9570048057439007,0.5654153078070517 l -21.8404624279018 -37.70377903549526" fill="red" stroke="none" /><path d="M 109.89434966115114 118.52300852407294 l 17.04701897163323 31.913373646111715 a57.18099326021276,57.18099326021276 0 0,0 -0.8721710639912993,0.4562786793300993 l -16.49515700511543 -32.20208174438653" fill="red" stroke="none" /><path d="M 109.2508944713604 118.85261126421891 l 14.635814909565024 29.82666485703761 a54.22404271850565,54.22404271850565 0 0,0 -0.841472791036915,0.40395807591501803 l -14.120229450527876 -30.074177209452188" fill="red" stroke="none" /><path d="M 108.59647513512805 119.15986991738527 l 22.475779372723625 50.094137690636316 a75.90522096649624,75.90522096649624 0 0,0 -1.196697587978176,0.5245970548693127 l -21.610161110087695 -50.47359929880008" fill="red" stroke="none" /><path d="M 107.93186726928326 119.44442032107085 l 19.250265508967853 47.190685514636336 a71.966003585793,71.966003585793 0 0,0 -1.1510411355220642,0.4580230226059712 l -18.435103297403924 -47.51505538164838" fill="red" stroke="none" /><path d="M 107.2578585660854 119.70592522655815 l 12.539772361822132 34.046931924908996 a57.28277090280876,57.28277090280876 0 0,0 -0.9282003071978099,0.3328196063760152 l -11.951852493994586 -34.25773907232497" fill="red" stroke="none" /><path d="M 106.91757812671514 119.82793768551818 l 9.571055020178155 27.43363053492164 a50.055277980529844,50.055277980529844 0 0,0 -0.8159731751893392,0.2768224035544232 l -9.097412112051588 -27.594315925374186" fill="red" stroke="none" /><path d="M 106.2309692047433 120.05430185196036 l 12.925333759730695 41.60003624438575 a64.56176383406257,64.56176383406257 0 0,0 -1.0641162932022723,0.3206095100627872 l -12.207342492088175 -41.816361123554266" fill="red" stroke="none" /><path d="M 105.53697534728816 120.25689768951611 l 13.47292278721928 49.290379920712304 a72.09854402190469,72.09854402190469 0 0,0 -1.1999585807157935,0.3169199674208654 l -12.622473763691989 -49.51499123743675" fill="red" stroke="none" /><path d="M 104.83641907484287 120.43548508189849 l 7.07133305272588 29.87874269617764 a51.70412050925677,51.70412050925677 0 0,0 -0.8678409844226801,0.19751778260693414 l -6.555971918910338 -29.996037212362257" fill="red" stroke="none" /><path d="M 104.48393922423573 120.51570834832081 l 6.178930658977581 28.27093164396948 a49.93829228041019,49.93829228041019 0 0,0 -0.8413616290687858,0.17631550977725488 l -5.6913775684794174 -28.373103134473276" fill="red" stroke="none" /><path d="M 103.7750983002368 120.6578951692458 l 7.702943079472877 42.15164161961986 a63.84969338646974,63.84969338646974 0 0,0 -1.0828635224183547,0.18826970359467224 l -6.9762305855824716 -42.27798990173554" fill="red" stroke="none" /><path d="M 103.06178313531738 120.77559828337769 l 8.573327434735116 58.17394598636544 a79.80229532023172,79.80229532023172 0 0,0 -1.360710491039999,0.18858207523591178 l -7.570688352508286 -58.312902627093955" fill="red" stroke="none" /><path d="M 102.34483914955558 120.86867818915974 l 4.0447886248147205 35.99794560340324 a57.22447242797346,57.22447242797346 0 0,0 -0.9798121410257477,0.10156153462745766 l -3.4245438871833707 -36.06223650648646" fill="red" stroke="none" /><line stroke="#e1ed5e" stroke-width="0.3" x1="102.19456741930631" x2="102.32365962044197" y1="184.97166512339345" y2="189.96999836594603" /><path d="M 102.22038585953345 185.97133177190398 a86.0,86.0 0 0,1 -42.740103519485714,-10.115201625700543" fill="none" id="id55" stroke="none" /><text fill="#e1ed5e" style="font-size:6.75px; font-family:Arial;" text-anchor="middle"><textPath startOffset="22.20632615414155" xlink:href="#id55">July</textPath></text><path d="M 100.54218724476979 120.99299961872073 l 0.9365962347044002 36.26415890029459 a57.27625164281279,57.27625164281279 0 0,0 -0.9858069597887543,0.016971560819617686 l -0.31222958502297793 -36.27490793839336" fill="red" stroke="none" /><path d="M 100.18074693466247 120.99922214144158 l 0.2808668828026541 32.631181685937925 a53.632390418517396,53.632390418517396 0 0,0 -0.9232276349301967,0.0 l 0.2808668828026316 -32.631181685937925" fill="red" stroke="none" /><path d="M 99.45781275523022 120.99299961872073 l -0.9572525934484091 37.063954423742935 a58.07631386819565,58.07631386819565 0 0,0 -0.9991328690635607,-0.0344121561967335 l 1.5951058141866128 -37.04198546912011" fill="red" stroke="none" /><path d="M 98.73552117531835 120.96189622390904 l -1.836599805591173 30.446231109758823 a51.50157516645236,51.50157516645236 0 0,0 -0.8844469468364664,-0.06099663973374509 l 2.3604095132065694 -30.41010612550879" fill="red" stroke="none" /><path d="M 98.01472825383883 120.90594882070398 l -3.834264041963584 40.37680382111702 a61.55845001417664,61.55845001417664 0 0,0 -1.0540196204086605,-0.10925344328156418 l 4.528716258977838 -40.3048210093797" fill="red" stroke="none" /><path d="M 96.22490169976321 120.6578951692458 l -6.539081949934833 35.782821712586404 a57.3754027120348,57.3754027120348 0 0,0 -0.9700060042744453,-0.18590395935294035 l 7.154055568780974 -35.66496055488499" fill="red" stroke="none" /><path d="M 95.16358092515715 120.4354850818985 l -8.332191064234507 35.20628869371187 a57.17883596131713,57.17883596131713 0 0,0 -0.9558305974489127,-0.23491990561004455 l 8.93697494642663 -35.05764752978779" fill="red" stroke="none" /><path d="M 94.46302465271185 120.25689768951611 l -9.56268779295108 34.984874612719445 a57.26825677494242,57.26825677494242 0 0,0 -0.9486591232849644,-0.2681005441401899 l 10.163478084340658 -34.81508527524073" fill="red" stroke="none" /><path d="M 93.08242187328487 119.8279376855182 l -8.335326101759842 23.89164581978468 a46.30392066855873,46.30392066855873 0 0,0 -0.7503008795077832,-0.2690312009648368 l 8.745346541897351 -23.74462707777989" fill="red" stroke="none" /><path d="M 92.40401165467489 119.57807347666478 l -7.053465261726205 18.17976211669236 a40.50013135386275,40.50013135386275 0 0,0 -0.6477685971094679,-0.2577604932101219 l 7.365354934877531 -18.05565477907617" fill="red" stroke="none" /><line stroke="#e1ed5e" stroke-width="0.3" x1="58.666819895761336" x2="56.23545636021788" y1="174.27360380694188" y2="178.64263932499728" /><path d="M 58.180547188652646 175.14741091055294 a86.0,86.0 0 0,1 -31.652253787137756,-30.449443065178592" fill="none" id="id56" stroke="none" /><text fill="#e1ed5e" style="font-size:6.75px; font-family:Arial;" text-anchor="middle"><textPath startOffset="22.20632615414155" xlink:href="#id56">August</textPath></text><path d="M 89.7882731507175 118.34994917583269 l -14.20236051562906 25.520913111474158 a50.206575462715804,50.206575462715804 0 0,0 -0.751547566922294,-0.42674832268512497 l 14.63955684947256 -25.2726616229944" fill="red" stroke="none" /><path d="M 88.54995079064634 117.60387380957326 l -15.9607924922723 24.538914357260307 a50.27294339171126,50.27294339171126 0 0,0 -0.7213576101302972,-0.4780764895661364 l 16.38082480114256 -24.260539846602853" fill="red" stroke="none" /><path d="M 87.07902340077011 116.55440617244103 l -27.967789296248192 35.83244193654344 a66.45504519033165,66.45504519033165 0 0,0 -0.8956953624882258,-0.711594566979145 l 28.580442151453774 -35.345713455559164" fill="red" stroke="none" /><path d="M 86.51685102203217 116.09983520530335 l -23.244035718937866 27.755025565065516 a57.202577817341954,57.202577817341954 0 0,0 -0.7494478088732482,-0.6386956816447773 l 23.718349004388173 -27.35080549319779" fill="red" stroke="none" /><path d="M 86.24171649860922 115.8653595955263 l -19.98485087761233 23.04552349166505 a51.50394101760112,51.50394101760112 0 0,0 -0.6647874794413736,-0.5865976570921515 l 20.378580709960293 -22.69810269280061" fill="red" stroke="none" /><path d="M 85.70375840098266 115.38237550388516 l -27.09726185316522 29.155932632052117 a60.803643144613844,60.803643144613844 0 0,0 -0.7605208663132628,-0.7191199484182291 l 27.595118553869302 -28.68517804688796" fill="red" stroke="none" /><path d="M 85.18274418774928 114.88116024355367 l -44.45176743675218 44.64348073066098 a84.0,84.0 0 0,0 -1.015837499777867,-1.0290380240773414 l 45.21364556158558 -43.871702212602976" fill="red" stroke="none" /><path d="M 84.43433777217949 114.09645910891817 l -26.803912048262028 24.273959219804404 a57.161786422903575,57.161786422903575 0 0,0 -0.6542061669065068,-0.7350075637114255 l 27.21777706481687 -23.808977486352113" fill="red" stroke="none" /><path d="M 83.72743513129214 113.27417163493432 l -29.362869886851907 23.95244865926701 a58.8932437878709,58.8932437878709 0 0,0 -0.6340336914963783,-0.7910545172784975 l 29.770821490403147 -23.443466308410255" fill="red" stroke="none" /><path d="M 83.50135304334701 112.99209946851258 l -34.24488008133706 26.966628807376697 a64.5879671586092,64.5879671586092 0 0,0 -0.6803056202489352,-0.8793867202922335 l 34.703992518804064 -26.37316409297121" fill="red" stroke="none" /><path d="M 83.06392112726016 112.41649034213515 l -29.272817044681666 21.461027245651888 a57.297017896378456,57.297017896378456 0 0,0 -0.5762994293491235,-0.8004295027934362 l 29.637896266406397 -20.95396413740731" fill="red" stroke="none" /><path d="M 82.6465618267979 111.8261652097733 l -20.94445397199028 14.273400488656295 a46.3456133027866,46.3456133027866 0 0,0 -0.44358687389025003,-0.6631021898085248 l 21.187043951291262 -13.910761384641948" fill="red" stroke="none" /><path d="M 82.05923443525364 110.91462005526583 l -39.45531153413155 24.003420199826994 a67.18317647742343,67.18317647742343 0 0,0 -0.5925528149980721,-0.9931526015110097 l 39.86264522482786 -23.320705504429874" fill="red" stroke="none" /><line stroke="#e1ed5e" stroke-width="0.3" x1="26.63291911575756" x2="22.317208475507996" y1="142.92168965132927" y2="145.44649492493687" /><path d="M 25.769776987707644 143.4266507060508 a86.0,86.0 0 0,1 -11.730757126820373,-40.83630448921669" fill="none" id="id57" stroke="none" /><text fill="#e1ed5e" style="font-size:6.75px; font-family:Arial;" text-anchor="middle"><textPath startOffset="21.46611528233685" xlink:href="#id57">September</textPath></text><path d="M 81.69416730710424 110.29060199501025 l -34.96262316769375 19.654196875725244 a61.10825941867739,61.10825941867739 0 0,0 -0.5075581914273282,-0.9213655476832 l 35.29575776857259 -19.04946080964422" fill="red" stroke="none" /><line stroke="#e1ed5e" stroke-width="0.3" x1="15.007084014347285" x2="10.007500721073583" y1="101.09737516637583" y2="101.16192664675087" /><path d="M 14.007167355692545 101.11028546245083 a86.0,86.0 0 0,1 10.666146001902534,-42.60595125391555" fill="none" id="id58" stroke="none" /><text fill="#e1ed5e" style="font-size:6.75px; font-family:Arial;" text-anchor="middle"><textPath startOffset="22.20632615414155" xlink:href="#id58">October</textPath></text><line stroke="#e1ed5e" stroke-width="0.3" x1="26.266209847984243" x2="21.928928074336255" y1="57.711370442889674" y2="55.22380399835377" /><path d="M 25.398753493254645 57.213857153982495 a86.0,86.0 0 0,1 29.58750427330803,-30.492523968695096" fill="none" id="id59" stroke="none" /><text fill="#e1ed5e" style="font-size:6.75px; font-family:Arial;" text-anchor="middle"><textPath startOffset="21.46611528233685" xlink:href="#id59">November</textPath></text><line stroke="#e1ed5e" stroke-width="0.3" x1="56.762969772571076" x2="54.21961505331055" y1="26.818313649435495" y2="22.513508569990535" /><path d="M 56.25429882871897 25.957352633546506 a86.0,86.0 0 0,1 42.265352541879196,-11.944610805530505" fill="none" id="id60" stroke="none" /><text fill="#e1ed5e" style="font-size:6.75px; font-family:Arial;" text-anchor="middle"><textPath startOffset="22.20632615414155" xlink:href="#id60">December</textPath></text></svg>