<?xml version="1.0" encoding="utf-8" ?>
<svg baseProfile="full" height="200mm" version="1.1" viewBox="0,0,200,200" width="200mm" xmlns="http://www.w3.org/2000/svg" xmlns:ev="http://www.w3.org/2001/xml-events" xmlns:xlink="http://www.w3.org/1999/xlink"><defs /><rect fill="#1a1a1a" height="200" width="200" x="0" y="0" /><text alignment-baseline="middle" fill="#e1ed5e" style="dominant-baseline: central; font-size:9.0px; font-family:Arial;" text-anchor="middle" x="100.0" y="100.0">2023</text><line stroke="#e1ed5e" stroke-width="0.3" x1="100.0" x2="100.0" y1="15.0" y2="10.0" /><path d="M 100.0 14.0 a86.0,86.0 0 0,1 42.46469731375804,11.215312516191453" fill="none" id="id25" stroke="none" /><text fill="#e1ed5e" style="font-size:6.75px; font-family:Arial;" text-anchor="middle"><textPath startOffset="22.20632615414155" xlink:href="#id25">January</textPath></text><line stroke="#e1ed5e" stroke-width="0.3" x1="143.23703022742887" x2="145.7803849466894" y1="26.81831364943548" y2="22.513508569990506" /><path d="M 143.74570117128098 25.957352633546492 a86.0,86.0 0 0,1 28.547481713284135,27.462654790039103" fill="none" id="id26" stroke="none" /><text fill="#e1ed5e" style="font-size:6.75px; font-family:Arial;" text-anchor="middle"><textPath startOffset="19.985693538727396" xlink:href="#id26">February</textPath></text><line stroke="#e1ed5e" stroke-width="0.3" x1="172.23445277983987" x2="176.4835382374775" y1="55.19839476539836" y2="52.563006222186495" /><path d="M 173.08426987136738 54.67131705675599 a86.0,86.0 0 0,1 12.851231095245387,41.99856678651699" fill="none" id="id27" stroke="none" /><text fill="#e1ed5e" style="font-size:6.75px; font-family:Arial;" text-anchor="middle"><textPath startOffset="22.20632615414155" xlink:href="#id27">March</textPath></text><path d="M 120.53481517161879 95.60439243477599 l 14.447440322047482 -3.092566329278931 a35.77472498424635,35.77472498424635 0 0,0 0.1237136055620629,0.6032714767133636 l -14.498533223524541 2.843419196402156" fill="#ff890c" stroke="none" /><path d="M 120.91429891909075 98.10471618934814 l 14.595603590161751 -1.322674563376109 a35.65541238456785,35.65541238456785 0 0,0 0.05013068834681645,0.6117213742084553 l -14.616208762328062 1.0712392719598849" fill="#ff870c" stroke="none" /><line stroke="#e1ed5e" stroke-width="0.3" x1="184.98032266829074" x2="189.97916517819016" y1="98.17113171792111" y2="98.06355123074" /><path d="M 185.9800911702706 98.14961562048488 a86.0,86.0 0 0,1 -9.607161424134198,41.387399972396054" fill="none" id="id28" stroke="none" /><text fill="#e1ed5e" style="font-size:6.75px; font-family:Arial;" text-anchor="middle"><textPath startOffset="21.466115282336823" xlink:href="#id28">April</textPath></text><path d="M 120.9904718944345 100.63252640178507 l 14.721321520619128 0.4436119672672656 a35.72800390042543,35.72800390042543 0 0,0 -0.023815040575707106,0.6145603775050476 l -14.711504347192218 -0.6969495917863193" fill="#ff880c" stroke="none" /><path d="M 120.9764740272857 100.99374915477107 l 14.646637327158311 0.6938765516630192 a35.66306412937811,35.66306412937811 0 0,0 -0.03432765069460902,0.6129432631636271 l -14.632523325576173 -0.9458915311620697" fill="#ff870c" stroke="none" /><path d="M 120.92983693683757 101.71520430193887 l 15.115262625487915 1.2386987800436249 a36.165933499298795,36.165933499298795 0 0,0 -0.05618705625862232,0.6200194838220138 l -15.091700972952218 -1.4986996524142093" fill="#ff8e0d" stroke="none" /><path d="M 120.76222939487914 103.15116336523771 l 14.507409324970855 2.2018452797092847 a35.67354926246644,35.67354926246644 0 0,0 -0.09736882187765378,0.6063157467779486 l -14.467358748731913 -2.451240256180438" fill="#ff870c" stroke="none" /><path d="M 120.70491114924044 103.5080841355445 l 14.567155628226503 2.468149087481782 a35.774768458930524,35.774768458930524 0 0,0 -0.1080969682481391,0.6062652043520977 l -14.522512217639175 -2.718533042567098" fill="#ff890c" stroke="none" /><path d="M 120.02730092923936 106.31721596034902 l 16.122701074171456 5.0855871647183815 a37.90575898139559,37.90575898139559 0 0,0 -0.20163652425392287,0.6205734111895416 l -16.032772298901286 -5.362359475885718" fill="#ffa70f" stroke="none" /><path d="M 119.79798401119884 107.00284435728193 l 18.017972894028446 6.373227685163956 a40.11191718109107,40.11191718109107 0 0,0 -0.2358499341158268,0.6489577251706339 l -17.905598698907394 -6.68243320734072" fill="#ffc612" stroke="none" /><path d="M 119.67450827220406 107.3425965602758 l 17.953542825107338 6.700326125997218 a40.1630913520675,40.1630913520675 0 0,0 -0.24730083147766124,0.6456244344564548 l -17.83554771403617 -7.0083741272868165" fill="#ffc712" stroke="none" /><path d="M 119.41010516605496 108.01547362559984 l 21.15243453542084 8.734974884752399 a43.88504474569625,43.88504474569625 0 0,0 -0.29434121394109214,0.6957356827677411 l -20.998942340287442 -9.097785093186303" fill="#fff917" stroke="none" /><path d="M 119.12269723197855 108.67885076344098 l 21.003261471788324 9.532346281901601 a44.06518194357875,44.06518194357875 0 0,0 -0.31942091454208665,0.6880042329050804 l -20.836065940406407 -9.892470582085512" fill="#fffb17" stroke="none" /><line stroke="#e1ed5e" stroke-width="0.3" x1="174.80103733775053" x2="179.2010983576182" y1="140.37084112569926" y2="142.7455964860345" /><path d="M 175.68104954172406 140.8457921977663 a86.0,86.0 0 0,1 -30.038265399797805,32.042727171017184" fill="none" id="id29" stroke="none" /><text fill="#e1ed5e" style="font-size:6.75px; font-family:Arial;" text-anchor="middle"><textPath startOffset="22.206326154141568" xlink:href="#id29">May</textPath></text><path d="M 117.75023020441432 111.22182372390056 l 23.254013569993827 14.701355314860391 a48.511433899512234,48.511433899512234 0 0,0 -0.45230013467286617,0.7019798532809509 l -22.99750857194391 -15.099456768062796" fill="#caff1d" stroke="none" /><path d="M 117.55443506779139 111.5257021239791 l 12.365299336616346 8.118675210982305 a35.792346496264315,35.792346496264315 0 0,0 -0.3425785950386946,0.5121085179086929 l -12.22371763616693 -8.330320643096805" fill="#ff890c" stroke="none" /><path d="M 117.14729908036423 112.12312394758627 l 22.506104086815867 15.911793929936577 a48.562835616738646,48.562835616738646 0 0,0 -0.4884501057998575,0.6784144759024766 l -22.228874188640408 -16.296842011290185" fill="#c9ff1d" stroke="none" /><path d="M 116.0416608686014 113.55231037782055 l 22.97711512318544 19.411518438581265 a51.07914339663777,51.07914339663777 0 0,0 -0.5731991783869517,0.6667601409633632 l -22.63957343522771 -19.804155678706156" fill="#aaff21" stroke="none" /><path d="M 115.56566222782051 114.09645910891815 l 19.939438710113272 18.05740599519918 a47.90076443801958,47.90076443801958 0 0,0 -0.5587363956592227,0.6063980057097309 l -19.625655906458327 -18.397955255710244" fill="#d1ff1c" stroke="none" /><path d="M 115.07121518719521 114.62390073753431 l 13.377971776066914 12.98091287880729 a39.64066061083748,39.64066061083748 0 0,0 -0.479386542433997,0.48561603652496066 l -13.152544608577381 -13.209269409312915" fill="#ffbf11" stroke="none" /><path d="M 114.55890576462653 115.13401014063108 l 18.952112108325082 19.70075646280045 a48.33683153866036,48.33683153866036 0 0,0 -0.6045882630616342,0.5716759392214562 l -18.61018801087264 -20.02406703876783" fill="#ccff1d" stroke="none" /><path d="M 114.0293411484842 115.62618273729858 l 20.14910689194153 22.442509805306056 a51.160450177411875,51.160450177411875 0 0,0 -0.6603538690156672,0.5826855113785105 l -19.759810670019274 -22.786018458456855" fill="#a9ff21" stroke="none" /><path d="M 112.92097659922987 116.55440617244103 l 14.018620252989853 17.960711550165183 a43.78396087570759,43.78396087570759 0 0,0 -0.5981124060954933,0.4586070881726314 l -13.707379118400867 -18.199357980165185" fill="#fff817" stroke="none" /><path d="M 112.04921762599082 117.19931262002967 l 10.467181544617455 14.941080261356532 a39.242745650375056,39.242745650375056 0 0,0 -0.5565800771647382,0.38282085224201046 l -10.208444582829832 -15.119041902963636" fill="#ffba11" stroke="none" /><path d="M 111.1453310114006 117.79835938074945 l 14.580431610814745 23.283988736652958 a48.47240647351862,48.47240647351862 0 0,0 -0.7109766391990259,0.4367399212082146 l -14.177475771683412 -23.53151712468955" fill="#caff1d" stroke="none" /><line stroke="#e1ed5e" stroke-width="0.3" x1="143.8653032363475" x2="146.44561519142675" y1="172.8068346515853" y2="177.08958963109032" /><path d="M 144.38136562736335 173.6633856474863 a86.0,86.0 0 0,1 -40.68145358897372,12.25698825130547" fill="none" id="id30" stroke="none" /><text fill="#e1ed5e" style="font-size:6.75px; font-family:Arial;" text-anchor="middle"><textPath startOffset="21.466115282336833" xlink:href="#id30">June</textPath></text><path d="M 110.5260780823613 118.17145234162733 l 8.536398672970773 14.736615142058847 a38.03049993831817,38.03049993831817 0 0,0 -0.5692825976292181,0.3232535162970177 l -8.281467308420357 -14.881371824150493" fill="#ffa90f" stroke="none" /><path d="M 109.2508944713604 118.85261126421891 l 12.23359883714115 24.93113330316764 a48.77089030420912,48.77089030420912 0 0,0 -0.7568483485948585,0.36333320092393273 l -11.802637820546058 -25.138020780591134" fill="#c6ff1e" stroke="none" /><path d="M 108.59647513512805 119.15986991738527 l 11.453376720171175 25.527347502764545 a48.979015508431644,48.979015508431644 0 0,0 -0.7721875909742363,0.33850434738162216 l -11.012268454539184 -25.720716403440623" fill="#c4ff1e" stroke="none" /><path d="M 107.93186726928326 119.44442032107085 l 13.533118421613171 33.17549751036763 a56.82958176247407,56.82958176247407 0 0,0 -0.908945655779551,0.3616882349351417 l -12.960051689791754 -33.40353258970884" fill="#67ff28" stroke="none" /><path d="M 107.59598834532513 119.57807347666477 l 7.0859159596614125 18.263401285114107 a40.58984511139616,40.58984511139616 0 0,0 -0.6535540650900487,0.24711822501870537 l -6.770491673811089 -18.382667760239446" fill="#ffcd13" stroke="none" /><path d="M 106.91757812671514 119.82793768551818 l 9.7200099184746 27.860581757918105 a50.50746699913233,50.50746699913233 0 0,0 -0.8233445079274841,0.2793231598390881 l -9.23899567760989 -28.023767904655315" fill="#b1ff20" stroke="none" /><path d="M 106.2309692047433 120.05430185196036 l 8.363430261474123 26.917602939482254 a49.18695289927886,49.18695289927886 0 0,0 -0.8107064442604437,0.2442592013293027 l -7.898848842773434 -27.05757750991728" fill="#c1ff1e" stroke="none" /><path d="M 105.53697534728816 120.25689768951611 l 5.442712425277853 19.912038944928643 a41.64249048658201,41.64249048658201 0 0,0 -0.6930689719138909,0.18304581468832032 l -5.099153010552465 -20.002776108920546" fill="#ffdb14" stroke="none" /><path d="M 104.48393922423573 120.51570834832081 l 6.797298466901291 31.100196931684344 a52.83434490668352,52.83434490668352 0 0,0 -0.890154397989042,0.18654050890770063 l -6.26095260748287 -31.212593421318587" fill="#95ff23" stroke="none" /><path d="M 103.7750983002368 120.6578951692458 l 6.308917852168422 34.52332979337338 a56.09505299166011,56.09505299166011 0 0,0 -0.9513481342052196,0.1654040675801466 l -5.713720746491153 -34.62681243947453" fill="#6fff27" stroke="none" /><path d="M 103.06178313531738 120.77559828337769 l 5.428301300898024 36.83350590305729 a58.23135254223096,58.23135254223096 0 0,0 -0.9929039258044277,0.1376074367553168 l -4.793468783906766 -36.92148790530521" fill="#57ff2a" stroke="none" /><path d="M 102.34483914955558 120.86867818915974 l 3.0402175380111403 27.057430117463984 a48.227696326348976,48.227696326348976 0 0,0 -0.8257670257028008,0.08559412857175841 l -2.5740179157027367 -27.105753614491498" fill="#cdff1d" stroke="none" /><path d="M 101.98527174616119 120.90594882070398 l 2.732376396714428 28.773351164175278 a49.90279602374602,49.90279602374602 0 0,0 -0.8558464546922347,0.07384603332491667 l -2.2366856242806517 -28.816121449778855" fill="#b8ff1f" stroke="none" /><path d="M 101.26447882468166 120.96189622390904 l 1.689994305290765 28.015878601542223 a49.06680485143021,49.06680485143021 0 0,0 -0.8435096188663653,0.043599812385191304 l -1.2074966180109201 -28.040818220689616" fill="#c3ff1e" stroke="none" /><line stroke="#e1ed5e" stroke-width="0.3" x1="102.19456741930631" x2="102.32365962044197" y1="184.97166512339345" y2="189.96999836594603" /><path d="M 102.22038585953345 185.97133177190398 a86.0,86.0 0 0,1 -42.740103519485714,-10.115201625700543" fill="none" id="id31" stroke="none" /><text fill="#e1ed5e" style="font-size:6.75px; font-family:Arial;" text-anchor="middle"><textPath startOffset="22.20632615414155" xlink:href="#id31">July</textPath></text><path d="M 100.54218724476979 120.99299961872073 l 1.0406337132560233 40.292395950567155 a61.305831959686,61.305831959686 0 0,0 -1.0551618530903284,0.018165568204246002 l -0.3469121702730269 -40.30433899605056" fill="#36ff2e" stroke="none" /><path d="M 100.18074693466247 120.99922214144158 l 0.23105128202336203 26.84359326112037 a47.84458760836887,47.84458760836887 0 0,0 -0.8235964333716165,0.0 l 0.23105128202334355 -26.84359326112037" fill="#d2ff1c" stroke="none" /><path d="M 98.73552117531835 120.96189622390904 l -1.1522822144269915 19.101957049819188 a40.13667989581322,40.13667989581322 0 0,0 -0.6892753061488524,-0.047536460696609995 l 1.480920281354774 -19.079292244606293" fill="#ffc612" stroke="none" /><path d="M 97.65516085044442 120.86867818915974 l -4.090273846572954 36.40275650713419 a57.6318307139796,57.6318307139796 0 0,0 -0.9848801715519976,-0.11925527296505711 l 4.71628144117634 -36.32695570544379" fill="#5eff2a" stroke="none" /><path d="M 96.93821686468263 120.77559828337769 l -4.020988664914543 27.284246307542855 a48.57894933484663,48.57894933484663 0 0,0 -0.8262218326660046,-0.129038858152235 l 4.490046361189065 -27.210989142043516" fill="#c9ff1d" stroke="none" /><path d="M 96.22490169976321 120.6578951692458 l -4.967800996244503 27.184540385519668 a48.63472964785865,48.63472964785865 0 0,0 -0.8222335276923791,-0.15758301251452964 l 5.435002138508578 -27.095000174656672" fill="#c8ff1d" stroke="none" /><path d="M 95.51606077576429 120.51570834832081 l -5.024971142321617 22.99113285420825 a44.53385911619722,44.53385911619722 0 0,0 -0.747489905154119,-0.17012626879487874 l 5.419981196868598 -22.901229851835684" fill="#fdff18" stroke="none" /><path d="M 95.16358092515715 120.4354850818985 l -6.96225034531487 29.41783184343836 a51.230477340585495,51.230477340585495 0 0,0 -0.8563947995928534,-0.21048100575796752 l 7.467598429650934 -29.293629579366364" fill="#a8ff21" stroke="none" /><path d="M 94.46302465271185 120.25689768951611 l -8.36394024546386 30.599284122976698 a52.72178565699516,52.72178565699516 0 0,0 -0.8733459996160869,-0.24681630310890626 l 8.889417413184562 -30.45077902652927" fill="#96ff23" stroke="none" /><path d="M 93.76903079525671 120.05430185196036 l -9.375377920004741 30.17454469857638 a52.59748184443337,52.59748184443337 0 0,0 -0.862294776238343,-0.27607955697998365 l 9.893394041334025 -30.00869229493669" fill="#98ff23" stroke="none" /><path d="M 92.7421414339146 119.70592522655815 l -14.46911894475503 39.28533098617613 a62.86517208528921,62.86517208528921 0 0,0 -1.0122184170983648,-0.38273439325961234 l 15.143207582613677 -39.03044834280988" fill="#31ff3b" stroke="none" /><path d="M 92.06813273071674 119.44442032107085 l -11.958406187847894 29.315200115246054 a52.66045540339685,52.66045540339685 0 0,0 -0.8363697539473299,-0.3496026249815806 l 12.461247401292685 -29.105012447244498" fill="#97ff23" stroke="none" /><path d="M 91.40352486487194 119.15986991738527 l -11.473367919978974 25.57190399618644 a49.02785124509866,49.02785124509866 0 0,0 -0.767010392036623,-0.3520968514999299 l 11.911846307783016 -25.370620074352434" fill="#c3ff1e" stroke="none" /><path d="M 90.7491055286396 118.85261126421891 l -8.755538938272245 17.843114795331246 a40.87551779700268,40.87551779700268 0 0,0 -0.6289887546450093,-0.3153880191713615 l 9.061381600600015 -17.68975893525058" fill="#ffd013" stroke="none" /><line stroke="#e1ed5e" stroke-width="0.3" x1="58.666819895761336" x2="56.23545636021788" y1="174.27360380694188" y2="178.64263932499728" /><path d="M 58.180547188652646 175.14741091055294 a86.0,86.0 0 0,1 -31.652253787137756,-30.449443065178592" fill="none" id="id32" stroke="none" /><text fill="#e1ed5e" style="font-size:6.75px; font-family:Arial;" text-anchor="middle"><textPath startOffset="22.20632615414155" xlink:href="#id32">August</textPath></text><path d="M 89.7882731507175 118.34994917583269 l -13.46014654263408 24.187192685627895 a48.68024268247798,48.68024268247798 0 0,0 -0.7286997292291348,-0.41377472415101413 l 13.874495038784422 -23.95191479568225" fill="#c7ff1d" stroke="none" /><path d="M 89.1626897886671 117.98757091392108 l -14.4529186202158 23.98869216850511 a49.00614590760176,49.00614590760176 0 0,0 -0.7188053462235005,-0.4415489524766444 l 14.86370316637161 -23.736354749200085" fill="#c3ff1e" stroke="none" /><path d="M 88.54995079064634 117.60387380957326 l -15.141789076036494 23.279737865927274 a48.77084751190475,48.77084751190475 0 0,0 -0.6998043009158135,-0.4637921314848061 l 15.54026807569227 -23.015647713351147" fill="#c6ff1e" stroke="none" /><path d="M 88.24862548938628 117.40417183066458 l -15.478079577895457 22.923544504439793 a48.65971511181372,48.65971511181372 0 0,0 -0.6901410067745344,-0.4746852775012009 l 15.870377469292881 -22.65371843757349" fill="#c8ff1d" stroke="none" /><path d="M 87.65650970185807 116.9893568818739 l -16.293748338142297 22.426420629326294 a48.72058038985091,48.72058038985091 0 0,0 -0.6742349005343446,-0.49878286073535066 l 16.677368209095206 -22.142627819851178" fill="#c7ff1e" stroke="none" /><path d="M 87.07902340077011 116.55440617244103 l -19.455419457400968 24.9263601307214 a52.62019569246581,52.62019569246581 0 0,0 -0.7092262915475618,-0.5634522595070891 l 19.881603241665886 -24.58777395720918" fill="#98ff23" stroke="none" /><path d="M 86.24171649860922 115.8653595955263 l -20.821864709423608 24.010725686166488 a52.78151975525833,52.78151975525833 0 0,0 -0.6812778359464182,-0.6011484794069789 l 21.232084898276614 -23.64875406498722" fill="#96ff23" stroke="none" /><path d="M 85.70375840098266 115.38237550388516 l -21.584627225591635 23.22448447697298 a52.706037464320744,52.706037464320744 0 0,0 -0.6592374930062929,-0.6233501971670763 l 21.981200552988746 -22.84949964305997" fill="#96ff23" stroke="none" /><path d="M 83.95833913139862 113.55231037782056 l -24.80319618594162 20.954227609423516 a53.46965037917464,53.46965037917464 0 0,0 -0.5879217217545483,-0.7081895875728733 l 25.160213907589707 -20.524176764736882" fill="#8dff24" stroke="none" /><path d="M 83.50135304334701 112.99209946851258 l -25.121730743377086 19.782472192820215 a52.975733949394225,52.975733949394225 0 0,0 -0.5579938667845398,-0.7212822911492122 l 25.458531427379693 -19.34711190755775" fill="#93ff23" stroke="none" /><path d="M 83.06392112726016 112.41649034213515 l -35.885562791183645 26.30908530639911 a65.49653454483135,65.49653454483135 0 0,0 -0.6587710297732131,-0.9149753426124834 l 36.333113613332465 -25.687476358335488" fill="#34ff5d" stroke="none" /><path d="M 82.85270091963577 112.12312394758628 l -26.924100971776994 19.035313475808785 a53.973479832446415,53.973479832446415 0 0,0 -0.5298116271411127,-0.7632331641151437 l 27.247773506080243 -18.569039049506628" fill="#88ff25" stroke="none" /><path d="M 82.44556493220864 111.52570212397912 l -27.45179305811136 18.024002956235133 a53.84000037563556,53.84000037563556 0 0,0 -0.5019814394917846,-0.7790863416369884 l 27.75797936098019 -17.548795014676696" fill="#89ff24" stroke="none" /><path d="M 82.05923443525364 110.91462005526583 l -23.87223795911319 14.523148761533834 a48.94289883183501,48.94289883183501 0 0,0 -0.43167432678202433,-0.72351100154756 l 24.118693161593445 -14.110075666100162" fill="#c4ff1e" stroke="none" /><line stroke="#e1ed5e" stroke-width="0.3" x1="26.63291911575756" x2="22.317208475507996" y1="142.92168965132927" y2="145.44649492493687" /><path d="M 25.769776987707644 143.4266507060508 a86.0,86.0 0 0,1 -11.730757126820373,-40.83630448921669" fill="none" id="id33" stroke="none" /><text fill="#e1ed5e" style="font-size:6.75px; font-family:Arial;" text-anchor="middle"><textPath startOffset="21.46611528233685" xlink:href="#id33">September</textPath></text><path d="M 81.51974371655577 109.97397251340807 l -39.98422445355474 21.579871488414636 a66.43598858403695,66.43598858403695 0 0,0 -0.5344854111844355,-1.0110449718746544 l 40.34976237296406 -20.888411501453856" fill="#35ff69" stroke="none" /><path d="M 81.18737489456691 109.33194174019688 l -28.54179798300746 14.158066428537529 a52.86039982639405,52.86039982639405 0 0,0 -0.39732580793524647,-0.8186088483635281 l 28.781277047557424 -13.664668624208716" fill="#95ff23" stroke="none" /><path d="M 80.87730276802145 108.67885076344099 l -29.56509221276658 13.418139711634405 a53.46753995716847,53.46753995716847 0 0,0 -0.3731497456290267,-0.8413541677375987 l 29.791683043126884 -12.90723720740411" fill="#8dff24" stroke="none" /><path d="M 80.45479744820244 107.68017299344265 l -41.786036686707476 16.419578646665876 a65.89627406497013,65.89627406497013 0 0,0 -0.40575072333688217,-1.0592871027541573 l 42.06248168963787 -15.69786797707856" fill="#35ff62" stroke="none" /><path d="M 80.20201598880116 107.00284435728193 l -30.502749552837177 10.789280740243164 a53.35469531883882,53.35469531883882 0 0,0 -0.29880958960599296,-0.8684805370634676 l 30.683949973386397 -10.2626275000904" fill="#8fff24" stroke="none" /><path d="M 79.97269907076064 106.31721596034903 l -26.608703978720552 8.393189379461749 a48.90105294405013,48.90105294405013 0 0,0 -0.24630581894003703,-0.8049416674553526 l 26.74923657016672 -7.933920739454348" fill="#c5ff1e" stroke="none" /><path d="M 79.35854240842038 103.8639653848113 l -27.294784135374524 5.109430892516379 a48.76889491935344,48.76889491935344 0 0,0 -0.14735999456282098,-0.8264731071076253 l 27.378690572276533 -4.63883903467554" fill="#c6ff1e" stroke="none" /><path d="M 79.23777060512086 103.15116336523772 l -35.261649076122445 5.351796026006313 a56.66546812074088,56.66546812074088 0 0,0 -0.13806392623744587,-0.9656187785408279 l 35.34854705337649 -4.744031775485085" fill="#69ff28" stroke="none" /><path d="M 79.18660465613746 102.79330883721812 l -44.303288593544174 5.945823134650832 a65.70049432558224,65.70049432558224 0 0,0 -0.14078205173272476,-1.1221714690060574 l 44.39907215452374 -5.182333911357365" fill="#34ff60" stroke="none" /><path d="M 79.10278846688536 102.07522291339032 l -32.33360872535686 3.210928194564562 a53.492650139302626,53.492650139302626 0 0,0 -0.08310568128590048,-0.9170642679051942 l 32.384089002919836 -2.6538825381108015" fill="#8dff24" stroke="none" /><path d="M 79.04373962182676 101.35467743843564 l -32.85125785711548 2.1236068382514177 a53.919824556005146,53.919824556005146 0 0,0 -0.05190078160861636,-0.9267233205949172 l 32.88294498961162 -1.5578118013210627" fill="#88ff25" stroke="none" /><path d="M 79.0095281055655 100.63252640178507 l -30.624557350021195 0.9228397133847027 a51.63845861040234,51.63845861040234 0 0,0 -0.019125747338787923,-0.8886983256523484 l 30.63590516004499 -0.3955515719422254" fill="#a3ff21" stroke="none" /><line stroke="#e1ed5e" stroke-width="0.3" x1="15.007084014347285" x2="10.007500721073583" y1="101.09737516637583" y2="101.16192664675087" /><path d="M 14.007167355692545 101.11028546245083 a86.0,86.0 0 0,1 10.666146001902534,-42.60595125391555" fill="none" id="id34" stroke="none" /><text fill="#e1ed5e" style="font-size:6.75px; font-family:Arial;" text-anchor="middle"><textPath startOffset="22.20632615414155" xlink:href="#id34">October</textPath></text><path d="M 79.00019446554 99.90962569577889 l -14.080641557321291 -0.06059714132312919 a35.080771948984186,35.080771948984186 0 0,0 0.0077962720471882446,-0.603829861847955 l 14.077512278156387 0.3029632612315561" fill="#ff7f0b" stroke="none" /><path d="M 79.03285615573316 98.82574320788736 l -21.04902866687241 -1.1788427199733822 a42.08201313862722,42.08201313862722 0 0,0 0.046729889320824114,-0.7228907046545445 l 21.02561818654717 1.5409924888809385" fill="#ffe115" stroke="none" /><path d="M 79.12142395522702 97.74499172005258 l -29.37511285168116 -3.17268393030638 a50.545950287148116,50.545950287148116 0 0,0 0.10087442541107244,-0.8642304739486087 l 29.316148073266497 3.6778581425798507" fill="#b0ff20" stroke="none" /><path d="M 79.26566170972629 96.67025291283419 l -19.24145589973026 -3.090003685577489 a40.487989837798736,40.487989837798736 0 0,0 0.11642830176632347,-0.6871664276531335 l 19.185415736443712 3.4207559015464506" fill="#ffcb12" stroke="none" /><path d="M 79.3925641242962 95.95851677861259 l -14.620943522303408 -2.8674260244046046 a35.8994671544931,35.8994671544931 0 0,0 0.12414498004932455,-0.6053750119127788 l 14.56941924633909 3.118676692480786" fill="#ff8b0c" stroke="none" /><path d="M 79.54389044137918 95.25157060432595 l -61.3683286758625 -14.245288187022146 a84.0,84.0 0 0,0 0.3390687989567409,-1.4056590733624128 l 61.114027076644945 15.299532492043955" fill="#4dd2ff" stroke="none" /><path d="M 79.81627453868168 94.20196356495316 l -31.25204649467466 -8.977554941141499 a53.51594843805914,53.51594843805914 0 0,0 0.26195828142411604,-0.8831930985247021 l 31.092882316138834 9.51417742641274" fill="#8dff24" stroke="none" /><path d="M 79.91906864156998 93.8553929516997 l -30.988348346231003 -9.48219085383712 a53.406630133599975,53.406630133599975 0 0,0 0.27655610273565695,-0.8767584214421252 l 30.82053675972714 10.014199441705658" fill="#8eff24" stroke="none" /><path d="M 80.2630227832202 92.82701384747504 l -29.09610570218121 -10.574363085179655 a51.95804453917773,51.95804453917773 0 0,0 0.3127265914371491,-0.8379517871723081 l 28.909774522242433 11.073638009381304" fill="#9fff22" stroke="none" /><path d="M 80.52162464483688 92.15188598940014 l -33.742564369545676 -13.595358306513189 a57.37848839239215,57.37848839239215 0 0,0 0.37699938273343037,-0.9129339086117962 l 33.503543299926044 14.174166785578297" fill="#61ff29" stroke="none" /><path d="M 80.803312248108 91.48605970444005 l -29.625263247321197 -13.139127217562812 a53.4082225139297,53.4082225139297 0 0,0 0.3799554618422312,-0.8371814951643362 l 29.394705468515614 13.64713072156922" fill="#8eff24" stroke="none" /><path d="M 81.10775173730289 90.83032412892265 l -40.171369542681724 -19.497861391700336 a65.65316931399893,65.65316931399893 0 0,0 0.5022154413413422,-1.0124356841425126 l 39.82979408838697 20.18645666434181" fill="#34ff5f" stroke="none" /><path d="M 81.26839172434947 90.50648371742162 l -19.862419715403558 -10.066631877237509 a43.2677523406083,43.2677523406083 0 0,0 0.34241391844635694,-0.661434702277118 l 19.686196363797087 10.407039301774962" fill="#fff116" stroke="none" /><line stroke="#e1ed5e" stroke-width="0.3" x1="26.266209847984243" x2="21.928928074336255" y1="57.711370442889674" y2="55.22380399835377" /><path d="M 25.398753493254645 57.213857153982495 a86.0,86.0 0 0,1 29.58750427330803,-30.492523968695096" fill="none" id="id35" stroke="none" /><text fill="#e1ed5e" style="font-size:6.75px; font-family:Arial;" text-anchor="middle"><textPath startOffset="21.46611528233685" xlink:href="#id35">November</textPath></text><path d="M 82.34701348167596 88.62581576622439 l -30.035615371759164 -19.352568046126017 a56.73038036097843,56.73038036097843 0 0,0 0.5359761114782421,-0.8163283889887524 l 29.698042624923 19.866714499092435" fill="#68ff28" stroke="none" /><path d="M 82.95767976084542 87.72973835380427 l -26.40590745855762 -19.01192965364712 a53.53806106493034,53.53806106493034 0 0,0 0.5449088239573225,-0.7432550234969412 l 26.074736022086665 19.463647120815562" fill="#8dff24" stroke="none" /><path d="M 83.39014120810768 87.1503855733568 l -4.5444685942699 -3.515663193889483 a26.7456141966873,26.7456141966873 0 0,0 0.2848355941474796,-0.3617122790598353 l 4.483278919528449 3.593367866902366" fill="#ff0000" stroke="none" /><path d="M 83.6137871275137 86.86637796730984 l -25.507915957185645 -20.444707366508823 a53.690057139457956,53.690057139457956 0 0,0 0.5842028103271805,-0.7161635685432752 l 25.15221465478207 20.88075510466018" fill="#8bff24" stroke="none" /><path d="M 83.84228863543731 86.58626213691792 l -34.40862301738257 -28.565199549055933 a65.72050942498011,65.72050942498011 0 0,0 0.7300903488127276,-0.8641966906439807 l 33.911822055082716 29.15325518932903" fill="#34ff60" stroke="none" /><path d="M 84.07557802195018 86.31012108654704 l -17.80122979868202 -15.303329740345895 a44.475001245734575,44.475001245734575 0 0,0 0.5040672458985892,-0.5762359988961477 l 17.535170689205586 15.607481295444984" fill="#fdff18" stroke="none" /><path d="M 84.5562425177563 85.77008943001954 l -23.91247304836353 -22.03300287358861 a53.515528335185884,53.515528335185884 0 0,0 0.6300374945939978,-0.6720800711389431 l 23.529668231799075 22.441352361605606" fill="#8dff24" stroke="none" /><path d="M 85.05521093208273 85.24692304244772 l -22.8450758706831 -22.552018692912757 a53.10126225964882,53.10126225964882 0 0,0 0.6477448741356471,-0.6449632517934656 l 22.453495196380143 22.941917795356332" fill="#92ff23" stroke="none" /><path d="M 85.57189188830299 84.74124197986013 l -32.57584591922871 -34.45129093397175 a68.41389231407283,68.41389231407283 0 0,0 0.8626409201749605,-0.8017307212988688 l 31.977997115258898 35.00692624134526" fill="#38ff81" stroke="none" /><path d="M 85.83668400450813 84.49514656593479 l -8.229071087453736 -9.008521814389047 a33.201273550031175,33.201273550031175 0 0,0 0.42527513251328014,-0.3818162129740407 l 8.072784967344484 9.148837036132367" fill="#ff6309" stroke="none" /><path d="M 86.65592168130627 83.78471172551755 l -9.48904025281581 -11.530771887933469 a35.93320411871195,35.93320411871195 0 0,0 0.48098578840276296,-0.38892372390221536 l 9.289151065848547 11.69240170909982" fill="#ff8b0c" stroke="none" /><path d="M 87.51073957382395 83.11751280151077 l -22.62188721115549 -30.579370452357047 a59.037450995784766,59.037450995784766 0 0,0 0.8221799549643499,-0.5973487029551343 l 22.092161939837357 30.96423839012885" fill="#4eff2b" stroke="none" /><path d="M 87.80319425747018 82.90503203632743 l -12.394318252397627 -17.37180028353489 a42.3400695882825,42.3400695882825 0 0,0 0.5969321977595868,-0.41818915195424894 l 12.093454915054378 17.58257427825308" fill="#ffe415" stroke="none" /><path d="M 89.00827224532344 82.1063720568725 l -16.97947884518049 -27.641193805459586 a53.439764130537526,53.439764130537526 0 0,0 0.7879513403426583,-0.47473186610873513 l 16.501165438620184 27.92937228102694" fill="#8eff24" stroke="none" /><line stroke="#e1ed5e" stroke-width="0.3" x1="56.762969772571076" x2="54.21961505331055" y1="26.818313649435495" y2="22.513508569990535" /><path d="M 56.25429882871897 25.957352633546506 a86.0,86.0 0 0,1 42.265352541879196,-11.944610805530505" fill="none" id="id36" stroke="none" /><text fill="#e1ed5e" style="font-size:6.75px; font-family:Arial;" text-anchor="middle"><textPath startOffset="22.20632615414155" xlink:href="#id36">December</textPath></text><path d="M 92.23578459929587 80.48803036053334 l -7.789912008245198 -19.57654685690617 a42.069502033433196,42.069502033433196 0 0,0 0.6751490678736827,-0.2619473492648891 l 7.451779775371839 19.707736910061612" fill="#ffe115" stroke="none" /><path d="M 95.33964822691252 79.52364482259891 l -4.576947033456418 -20.109896773546968 a41.62417010184362,41.62417010184362 0 0,0 0.699994215358931,-0.15299162308685038 l 4.230110093943965 20.185701894729686" fill="#ffdb14" stroke="none" /><path d="M 97.83486435360386 79.11191278185805 l -2.890325794391411 -27.88433943276687 a49.03373626185924,49.03373626185924 0 0,0 0.840286171691784,-0.0797952970064422 l 2.409914495609391 27.929960274288494" fill="#c3ff1e" stroke="none" /><path d="M 98.55514903715128 79.0497635885617 l -2.2325784020793367 -32.37222837047083 a53.449122884776834,53.449122884776834 0 0,0 0.918403428241052,-0.055400602842468435 l 1.6750129249986618 32.4058622426936" fill="#8eff24" stroke="none" /><path d="M 99.63851952072746 79.00311137660856 l -0.5809553793520008 -33.74526729621026 a54.7502677625745,54.7502677625745 0 0,0 0.9424358586245283,-0.00811184297280043 l 8.266431477160594e-15 33.7502677625745" fill="#7fff26" stroke="none" /></svg>