<?xml version="1.0" encoding="utf-8" ?>
<svg baseProfile="full" height="200mm" version="1.1" viewBox="0,0,200,200" width="200mm" xmlns="http://www.w3.org/2000/svg" xmlns:ev="http://www.w3.org/2001/xml-events" xmlns:xlink="http://www.w3.org/1999/xlink"><defs /><rect fill="#1a1a1a" height="200" width="200" x="0" y="0" /><text alignment-baseline="middle" fill="#e1ed5e" style="dominant-baseline: central; font-size:9.0px; font-family:Arial;" text-anchor="middle" x="100.0" y="100.0">2021</text><line stroke="#e1ed5e" stroke-width="0.3" x1="100.0" x2="100.0" y1="15.0" y2="10.0" /><path d="M 100.0 14.0 a86.0,86.0 0 0,1 42.46469731375804,11.215312516191453" fill="none" id="id1" stroke="none" /><text fill="#e1ed5e" style="font-size:6.75px; font-family:Arial;" text-anchor="middle"><textPath startOffset="22.20632615414155" xlink:href="#id1">January</textPath></text><line stroke="#e1ed5e" stroke-width="0.3" x1="143.23703022742887" x2="145.7803849466894" y1="26.81831364943548" y2="22.513508569990506" /><path d="M 143.74570117128098 25.957352633546492 a86.0,86.0 0 0,1 28.547481713284135,27.462654790039103" fill="none" id="id2" stroke="none" /><text fill="#e1ed5e" style="font-size:6.75px; font-family:Arial;" text-anchor="middle"><textPath startOffset="19.985693538727396" xlink:href="#id2">February</textPath></text><line stroke="#e1ed5e" stroke-width="0.3" x1="172.23445277983987" x2="176.4835382374775" y1="55.19839476539836" y2="52.563006222186495" /><path d="M 173.08426987136738 54.67131705675599 a86.0,86.0 0 0,1 12.851231095245387,41.99856678651699" fill="none" id="id3" stroke="none" /><text fill="#e1ed5e" style="font-size:6.75px; font-family:Arial;" text-anchor="middle"><textPath startOffset="22.20632615414155" xlink:href="#id3">March</textPath></text><line stroke="#e1ed5e" stroke-width="0.3" x1="184.98032266829074" x2="189.97916517819016" y1="98.17113171792111" y2="98.06355123074" /><path d="M 185.9800911702706 98.14961562048488 a86.0,86.0 0 0,1 -9.607161424134198,41.387399972396054" fill="none" id="id4" stroke="none" /><text fill="#e1ed5e" style="font-size:6.75px; font-family:Arial;" text-anchor="middle"><textPath startOffset="21.466115282336823" xlink:href="#id4">April</textPath></text><line stroke="#e1ed5e" stroke-width="0.3" x1="174.80103733775053" x2="179.2010983576182" y1="140.37084112569926" y2="142.7455964860345" /><path d="M 175.68104954172406 140.8457921977663 a86.0,86.0 0 0,1 -30.038265399797805,32.042727171017184" fill="none" id="id5" stroke="none" /><text fill="#e1ed5e" style="font-size:6.75px; font-family:Arial;" text-anchor="middle"><textPath startOffset="22.206326154141568" xlink:href="#id5">May</textPath></text><line stroke="#e1ed5e" stroke-width="0.3" x1="143.8653032363475" x2="146.44561519142675" y1="172.8068346515853" y2="177.08958963109032" /><path d="M 144.38136562736335 173.6633856474863 a86.0,86.0 0 0,1 -40.68145358897372,12.25698825130547" fill="none" id="id6" stroke="none" /><text fill="#e1ed5e" style="font-size:6.75px; font-family:Arial;" text-anchor="middle"><textPath startOffset="21.466115282336833" xlink:href="#id6">June</textPath></text><line stroke="#e1ed5e" stroke-width="0.3" x1="102.19456741930631" x2="102.32365962044197" y1="184.97166512339345" y2="189.96999836594603" /><path d="M 102.22038585953345 185.97133177190398 a86.0,86.0 0 0,1 -42.740103519485714,-10.115201625700543" fill="none" id="id7" stroke="none" /><text fill="#e1ed5e" style="font-size:6.75px; font-family:Arial;" text-anchor="middle"><textPath startOffset="22.20632615414155" xlink:href="#id7">July</textPath></text><line stroke="#e1ed5e" stroke-width="0.3" x1="58.666819895761336" x2="56.23545636021788" y1="174.27360380694188" y2="178.64263932499728" /><path d="M 58.180547188652646 175.14741091055294 a86.0,86.0 0 0,1 -31.652253787137756,-30.449443065178592" fill="none" id="id8" stroke="none" /><text fill="#e1ed5e" style="font-size:6.75px; font-family:Arial;" text-anchor="middle"><textPath startOffset="22.20632615414155" xlink:href="#id8">August</textPath></text><line stroke="#e1ed5e" stroke-width="0.3" x1="26.63291911575756" x2="22.317208475507996" y1="142.92168965132927" y2="145.44649492493687" /><path d="M 25.769776987707644 143.4266507060508 a86.0,86.0 0 0,1 -11.730757126820373,-40.83630448921669" fill="none" id="id9" stroke="none" /><text fill="#e1ed5e" style="font-size:6.75px; font-family:Arial;" text-anchor="middle"><textPath startOffset="21.46611528233685" xlink:href="#id9">September</textPath></text><line stroke="#e1ed5e" stroke-width="0.3" x1="15.007084014347285" x2="10.007500721073583" y1="101.09737516637583" y2="101.16192664675087" /><path d="M 14.007167355692545 101.11028546245083 a86.0,86.0 0 0,1 10.666146001902534,-42.60595125391555" fill="none" id="id10" stroke="none" /><text fill="#e1ed5e" style="font-size:6.75px; font-family:Arial;" text-anchor="middle"><textPath startOffset="22.20632615414155" xlink:href="#id10">October</textPath></text><path d="M 79.08570108090925 98.10471618934814 l -57.53099340006421 -5.213541263022205 a78.76673968729295,78.76673968729295 0 0,0 0.13398925439379888,-1.3492535062930355 l 57.432727019988185 6.203070300019671" fill="red" stroke="none" /><path d="M 79.16333360222342 97.38593545837743 l -50.68364546216755 -6.358518100427002 a72.08094233437902,72.08094233437902 0 0,0 0.16504476662469064,-1.229775215481095 l 50.56668469648502 7.230011657972756" fill="red" stroke="none" /><path d="M 79.26566170972629 96.67025291283419 l -55.18057288833035 -8.861500631020773 a76.8875819634194,76.8875819634194 0 0,0 0.22109990223724632,-1.304944138752109 l 55.019861124572884 9.81003055808871" fill="red" stroke="none" /><path d="M 79.32604984820605 96.31383870115002 l -57.76152567501131 -10.298868815221596 a79.67248543549297,79.67248543549297 0 0,0 0.25235036633542424,-1.348065747536883 l 57.57568958476603 11.29161264022105" fill="red" stroke="none" /><path d="M 79.3925641242962 95.95851677861259 l -26.352821274087276 -5.168255073452097 a47.85483289108778,47.85483289108778 0 0,0 0.16548817421052717,-0.8069791093793565 l 26.259953803961753 5.6211098389948555" fill="red" stroke="none" /><path d="M 79.54389044137918 95.25157060432595 l -59.135793297935145 -13.727054913727766 a81.70810560032827,81.70810560032827 0 0,0 0.3298174908444507,-1.367306428623281 l 58.89074300682988 14.742946574010444" fill="red" stroke="none" /><path d="M 79.62865764111835 94.90015583598534 l -56.95251261378801 -14.257722145284431 a79.71006160613202,79.71006160613202 0 0,0 0.34466504669907466,-1.3281350226526603 l 56.69865123521863 15.235953593485954" fill="red" stroke="none" /><path d="M 79.71946130924805 94.55025226153421 l -24.170722934226248 -6.49511064062365 a46.02819029408785,46.02819029408785 0 0,0 0.21219703558841588,-0.7633856382625113 l 24.05533912807147 6.9102075823051035" fill="red" stroke="none" /><path d="M 79.81627453868168 94.20196356495316 l -29.79812425554245 -8.55989695563386 a52.00322636500623,52.00322636500623 0 0,0 0.2545535714994116,-0.8582280977370833 l 29.646364786931333 9.071554440117483" fill="red" stroke="none" /><path d="M 79.91906864156998 93.8553929516997 l -56.21115016162151 -17.200169818376907 a79.78383488913738,79.78383488913738 0 0,0 0.41314545372079736,-1.3097839904710733 l 55.906749224132504 18.165203975274395" fill="red" stroke="none" /><path d="M 80.14247586403 93.16781622104843 l -54.83099413314659 -18.865162954614917 a78.9856214154279,78.9856214154279 0 0,0 0.45340349152155063,-1.2818327265022347 l 54.49813756081523 19.80619330754376" fill="red" stroke="none" /><path d="M 80.52162464483688 92.15188598940014 l -54.57858923078868 -21.990488580834707 a79.84219566303575,79.84219566303575 0 0,0 0.5245948320422692,-1.2703479962791708 l 54.19197271186021 22.92671114756719" fill="red" stroke="none" /><path d="M 80.803312248108 91.48605970444005 l -53.23922029519387 -23.61217460187992 a79.24044442713196,79.24044442713196 0 0,0 0.5637304190575148,-1.242105253094515 l 52.824887559173 24.525101863816506" fill="red" stroke="none" /><path d="M 80.95270993114464 91.15688171328213 l -52.46341020300574 -24.357278146794215 a78.84190875869456,78.84190875869456 0 0,0 0.5820853302338969,-1.2260201557394697 l 52.0363666789301 25.256740718174218" fill="red" stroke="none" /><path d="M 81.26839172434947 90.50648371742162 l -51.64441626984754 -26.174319874037955 a78.89853843338147,78.89853843338147 0 0,0 0.6243901345277236,-1.206123000519369 l 51.186216702159705 27.05941559681766" fill="red" stroke="none" /><line stroke="#e1ed5e" stroke-width="0.3" x1="26.266209847984243" x2="21.928928074336255" y1="57.711370442889674" y2="55.22380399835377" /><path d="M 25.398753493254645 57.213857153982495 a86.0,86.0 0 0,1 29.58750427330803,-30.492523968695096" fill="none" id="id11" stroke="none" /><text fill="#e1ed5e" style="font-size:6.75px; font-family:Arial;" text-anchor="middle"><textPath startOffset="21.46611528233685" xlink:href="#id11">November</textPath></text><path d="M 81.78341655067845 89.55222093294921 l -49.7970874213831 -28.560183582646573 a78.4058707966994,78.4058707966994 0 0,0 0.6815349132698643,-1.1649640895662372 l 49.29809283364291 29.413127084566703" fill="red" stroke="none" /><path d="M 82.34701348167596 88.62581576622439 l -48.61976695771372 -31.326721187162256 a78.83809470721344,78.83809470721344 0 0,0 0.7448449167562898,-1.1344499090922764 l 48.07332540559951 32.158989160232196" fill="red" stroke="none" /><path d="M 82.7489923806493 88.02491185347247 l -47.92761235057688 -33.2697889430508 a79.34325052602327,79.34325052602327 0 0,0 0.7884730994533503,-1.1152392825151494 l 47.34782663131965 34.08985472589774" fill="red" stroke="none" /><path d="M 83.17141714833178 87.43820079747576 l -27.60584083592879 -20.606549728779154 a55.44869141176892,55.44869141176892 0 0,0 0.5775220426115566,-0.7599513117039081 l 27.247042853093127 21.07868581636409" fill="red" stroke="none" /><path d="M 83.6137871275137 86.86637796730984 l -45.73076563374466 -36.6534107528659 a79.60695731111441,79.60695731111441 0 0,0 0.8662052279428519,-1.0618651881988936 l 45.093061913725414 37.435160110672875" fill="red" stroke="none" /><path d="M 84.07557802195018 86.31012108654704 l -44.182496747922016 -37.98273063893997 a79.26474788129104,79.26474788129104 0 0,0 0.8983645203427694,-1.0269859447616674 l 43.52214036400141 38.73763213990458" fill="red" stroke="none" /><path d="M 85.05521093208273 85.24692304244772 l -41.34278954937219 -40.81244325964766 a79.09373264428477,79.09373264428477 0 0,0 0.9648087016477936,-0.9606655064677224 l 40.634145047557084 41.51804461676549" fill="red" stroke="none" /><path d="M 85.31137513191541 84.99185889309783 l -20.029559697690313 -20.46525532183848 a49.63581563481959,49.63581563481959 0 0,0 0.6157600804683216,-0.5923607095444468 l 19.674316373609564 20.80699911814524" fill="red" stroke="none" /><path d="M 85.83668400450813 84.49514656593479 l -39.50052956778236 -43.241986672567734 a79.56757846732076,79.56757846732076 0 0,0 1.0191811595859364,-0.915030908080293 l 38.75033742060045 43.91551658941731" fill="red" stroke="none" /><path d="M 86.37877921826538 84.01681056812374 l -37.71057540006846 -44.24972473925282 a79.13884791173533,79.13884791173533 0 0,0 1.044415963451271,-0.8746683335952798 l 36.943301899658074 44.89229423024191" fill="red" stroke="none" /><path d="M 86.93701828274178 83.55741782278169 l -36.08704644614712 -45.423337455945585 a79.01339937327486,79.01339937327486 0 0,0 1.0722022155985704,-0.8368708362644132 l 35.29981167538912 46.03778668143322" fill="red" stroke="none" /><path d="M 88.39885842347998 82.49532879139004 l -18.13346888046094 -27.361135844292082 a53.82460126686157,53.82460126686157 0 0,0 0.7766966194224708,-0.5051850864944033 l 17.65980523525418 27.66921985494602" fill="red" stroke="none" /><line stroke="#e1ed5e" stroke-width="0.3" x1="56.762969772571076" x2="54.21961505331055" y1="26.818313649435495" y2="22.513508569990535" /><path d="M 56.25429882871897 25.957352633546506 a86.0,86.0 0 0,1 42.265352541879196,-11.944610805530505" fill="none" id="id12" stroke="none" /><text fill="#e1ed5e" style="font-size:6.75px; font-family:Arial;" text-anchor="middle"><textPath startOffset="22.20632615414155" xlink:href="#id12">December</textPath></text><path d="M 89.3179101791058 81.91981866633112 l -29.496897155914347 -49.92555373540844 a78.98816997986523,78.98816997986523 0 0,0 1.1765598888707882,-0.6815394293199933 l 28.63314053457824 50.42589732211848" fill="red" stroke="none" /><path d="M 91.23893434514133 80.91482961587045 l -24.39361095731641 -53.139222983264276 a79.47072151771337,79.47072151771337 0 0,0 1.2481364292804358,-0.5600024335144856 l 23.475292409569203 53.55124574729529" fill="red" stroke="none" /><path d="M 91.90106846888425 80.62456947434976 l -22.646437416865822 -54.17806943276136 a79.7207317319627,79.7207317319627 0 0,0 1.2706578494716838,-0.5183332411180468 l 21.710495697805758 54.559863560062986" fill="red" stroke="none" /><path d="M 93.59665428221793 80.00007090966166 l -17.065390376205436 -53.30129161623171 a76.96655462551593,76.96655462551593 0 0,0 1.2652371651803247,-0.39311534608045673 l 16.14536783831438 53.587147097194695" fill="red" stroke="none" /><path d="M 94.28887869178378 79.79150937346287 l -15.412840383468478 -54.53749335871102 a77.6735725937383,77.6735725937383 0 0,0 1.2897589864271888,-0.3525398519185244 l 14.471783507817566 54.79471975145584" fill="red" stroke="none" /><path d="M 96.04723909329186 79.375362276772 l -10.782055256037644 -56.25839478178748 a78.28228084641621,78.28228084641621 0 0,0 1.3255981428656731,-0.24224458759861148 l 9.812061992069077 56.43565485073683" fill="red" stroke="none" /><path d="M 96.75951476605007 79.25152402106235 l -9.464865709996246 -60.602510010006334 a82.33716575145269,82.33716575145269 0 0,0 1.4022059303003507,-0.20664870445971972 l 8.420290799267246 60.75645319862702" fill="red" stroke="none" /><path d="M 98.55514903715128 79.0497635885617 l -4.334552888546145 -62.8507092343149 a84.0,84.0 0 0,0 1.4433518046415081,-0.08706692247877434 l 3.2520390350650135 62.91600942617398" fill="red" stroke="none" /><path d="M 98.91598698831166 79.02799685794201 l -1.3159512535553635 -25.459227450945875 a46.49321458939084,46.49321458939084 0 0,0 0.7995928895547109,-0.03443215181255298 l 0.8775175316113286 25.47810732928262" fill="red" stroke="none" /><path d="M 99.63851952072746 79.00311137660856 l -0.926227740662715 -53.80069416121258 a74.808666495797,74.808666495797 0 0,0 1.2877082199352374,-0.011083711192976398 l 1.3179322238093045e-14 53.808666495797" fill="red" stroke="none" /></svg>