<?xml version="1.0" encoding="utf-8" ?>
<svg baseProfile="full" height="200mm" version="1.1" viewBox="0,0,200,200" width="200mm" xmlns="http://www.w3.org/2000/svg" xmlns:ev="http://www.w3.org/2001/xml-events" xmlns:xlink="http://www.w3.org/1999/xlink"><defs /><rect fill="#1a1a1a" height="200" width="200" x="0" y="0" /><text alignment-baseline="middle" fill="#e1ed5e" style="dominant-baseline: central; font-size:9.0px; font-family:Arial;" text-anchor="middle" x="100.0" y="100.0">2025</text><line stroke="#e1ed5e" stroke-width="0.3" x1="100.0" x2="100.0" y1="15.0" y2="10.0" /><path d="M 100.0 14.0 a86.0,86.0 0 0,1 42.46469731375804,11.215312516191453" fill="none" id="id49" stroke="none" /><text fill="#e1ed5e" style="font-size:6.75px; font-family:Arial;" text-anchor="middle"><textPath startOffset="22.20632615414155" xlink:href="#id49">January</textPath></text><line stroke="#e1ed5e" stroke-width="0.3" x1="143.23703022742887" x2="145.7803849466894" y1="26.81831364943548" y2="22.513508569990506" /><path d="M 143.74570117128098 25.957352633546492 a86.0,86.0 0 0,1 28.547481713284135,27.462654790039103" fill="none" id="id50" stroke="none" /><text fill="#e1ed5e" style="font-size:6.75px; font-family:Arial;" text-anchor="middle"><textPath startOffset="19.985693538727396" xlink:href="#id50">February</textPath></text><line stroke="#e1ed5e" stroke-width="0.3" x1="172.23445277983987" x2="176.4835382374775" y1="55.19839476539836" y2="52.563006222186495" /><path d="M 173.08426987136738 54.67131705675599 a86.0,86.0 0 0,1 12.851231095245387,41.99856678651699" fill="none" id="id51" stroke="none" /><text fill="#e1ed5e" style="font-size:6.75px; font-family:Arial;" text-anchor="middle"><textPath startOffset="22.20632615414155" xlink:href="#id51">March</textPath></text><path d="M 117.84615892207809 88.93136811851018 l 24.860737450083512 -15.419248048772824 a50.25422152359501,50.25422152359501 0 0,0 0.44961782350990054,0.739053482803641 l -25.122471071879637 14.989026792762102" fill="red" stroke="none" /><path d="M 119.04729006885535 91.15688171328212 l 24.93701682312669 -11.577551908308564 a48.49353589894328,48.49353589894328 0 0,0 0.3449915193122325,0.7601430824456886 l -25.132610659402268 11.146586817020813" fill="red" stroke="none" /><path d="M 119.97218684219823 93.5106431181261 l 28.19001204869025 -9.159490151662407 a50.640732770019405,50.640732770019405 0 0,0 0.2622334279380623,0.8313516283099225 l -28.34350096039652 8.672888356926066" fill="red" stroke="none" /><path d="M 120.37134235888165 94.90015583598534 l 22.04770531573945 -5.519511640594768 a43.72809535443625,43.72809535443625 0 0,0 0.17650991395825863,0.7317475475692673 l -22.139448029958526 5.139178861366095" fill="red" stroke="none" /><path d="M 120.53481517161879 95.60439243477599 l 28.385719795429605 -6.076143546184327 a50.02875485959537,50.02875485959537 0 0,0 0.17300587630475409,0.8436380946483683 l -28.486104967649357 5.586629795372547" fill="red" stroke="none" /><path d="M 120.67395015179393 96.31383870115 l 33.68678057745693 -6.006346437702827 a55.218056391376685,55.218056391376685 0 0,0 0.1587864588545995,0.937166668545911 l -33.78517889783175 5.425593980841078" fill="red" stroke="none" /><path d="M 120.83666639777658 97.38593545837742 l 28.76817168731496 -3.6091117503875356 a49.99367844647546,49.99367844647546 0 0,0 0.09977225789256533,0.854787775732422 l -28.826034298211113 3.113380236330261" fill="red" stroke="none" /><path d="M 120.87857604477298 97.74499172005257 l 21.89982501932829 -2.365309139956825 a43.02718827278599,43.02718827278599 0 0,0 0.07319308756741992,0.7370444031765857 l -21.937295232577938 1.9879892060758046" fill="red" stroke="none" /><line stroke="#e1ed5e" stroke-width="0.3" x1="184.98032266829074" x2="189.97916517819016" y1="98.17113171792111" y2="98.06355123074" /><path d="M 185.9800911702706 98.14961562048488 a86.0,86.0 0 0,1 -9.607161424134198,41.387399972396054" fill="none" id="id52" stroke="none" /><text fill="#e1ed5e" style="font-size:6.75px; font-family:Arial;" text-anchor="middle"><textPath startOffset="21.466115282336823" xlink:href="#id52">April</textPath></text><path d="M 120.99513854157772 99.54816195383933 l 40.296004061080964 -0.8672135078787114 a61.30533466625604,61.30533466625604 0 0,0 0.013624360025403952,1.0552216985390734 l -40.30496142822408 0.17345555127917536" fill="red" stroke="none" /><path d="M 120.9764740272857 100.99374915477107 l 41.51185264609866 1.9666016522310372 a62.55840988500361,62.55840988500361 0 0,0 -0.06021589268807531,1.0751952146942592 l -41.47185040252305 -2.6808685832607195" fill="red" stroke="none" /><path d="M 120.89721153311464 102.0752229133903 l 40.40772535258332 4.0127381300027825 a61.60648144655953,61.60648144655953 0 0,0 -0.11387722963683757,1.0543617156014213 l -40.33266582144543 -4.707696167488995" fill="red" stroke="none" /><path d="M 120.81339534386255 102.79330883721812 l 40.965867039064065 5.4979169200407805 a62.33315077177091,62.33315077177091 0 0,0 -0.15187308630299654,1.0622000118764792 l -40.86515990174447 -6.202262403897668" fill="red" stroke="none" /><path d="M 120.49622156327973 104.57218783832717 l 32.45009680050256 7.2387945985911655 a54.24769059051439,54.24769059051439 0 0,0 -0.2111512156401486,0.9096339106370216 l -32.320685018931854 -7.796297166576752" fill="red" stroke="none" /><path d="M 120.32669344350535 105.2749913415812 l 40.07137787820297 10.398945206717176 a62.39871237695734,62.39871237695734 0 0,0 -0.27874967818469154,1.037331249950807 l -39.88644012367651 -11.08716738984353" fill="red" stroke="none" /><path d="M 120.13307415673323 105.97154293290107 l 48.63319180392731 14.424781360279217 a71.72732658370083,71.72732658370083 0 0,0 -0.3612776586792716,1.1806762919492944 l -48.3776873727419 -15.259784624780568" fill="red" stroke="none" /><path d="M 119.9155931802556 106.66101706037122 l 40.38660112108748 13.507799473664416 a63.58565717157072,63.58565717157072 0 0,0 -0.3561074430417634,1.0350149196784981 l -40.148102847102486 -14.200987096432215" fill="red" stroke="none" /><path d="M 119.67450827220406 107.3425965602758 l 38.86005019597644 14.502709137805374 a62.478091488996846,62.478091488996846 0 0,0 -0.3847035537908348,1.0043395845680032 l -38.604652362592105 -15.16947228920652" fill="red" stroke="none" /><path d="M 119.41010516605496 108.01547362559984 l 38.24781864488893 15.7945760191439 a62.38072332278435,62.38072332278435 0 0,0 -0.4183935082156298,0.9889586619774189 l -37.970274155480986 -16.450609206787483" fill="red" stroke="none" /><path d="M 119.12269723197855 108.67885076344098 l 37.36361357761756 16.95750459724603 a62.031653412251714,62.031653412251714 0 0,0 -0.44965677184470476,0.9685206832091423 l -37.06618218893303 -17.598145347734004" fill="red" stroke="none" /><path d="M 118.81262510543309 109.33194174019688 l 37.11281616448894 18.40969223171445 a62.42798440336675,62.42798440336675 0 0,0 -0.48581258351239254,0.9585543163216903 l -36.79042491119028 -19.04580075973883" fill="red" stroke="none" /><line stroke="#e1ed5e" stroke-width="0.3" x1="174.80103733775053" x2="179.2010983576182" y1="140.37084112569926" y2="142.7455964860345" /><path d="M 175.68104954172406 140.8457921977663 a86.0,86.0 0 0,1 -30.038265399797805,32.042727171017184" fill="none" id="id53" stroke="none" /><text fill="#e1ed5e" style="font-size:6.75px; font-family:Arial;" text-anchor="middle"><textPath startOffset="22.206326154141568" xlink:href="#id53">May</textPath></text><path d="M 118.48025628344425 109.97397251340804 l 26.69545365793587 14.407793752067311 a51.33532209825885,51.33532209825885 0 0,0 -0.4263852953495988,0.7740131630406382 l -26.443491953134764 -14.865177433505755" fill="red" stroke="none" /><path d="M 117.75023020441432 111.22182372390056 l 36.14310141757214 22.849929734555644 a63.76029781181412,63.76029781181412 0 0,0 -0.5944741057706716,0.92263701369456 l -35.744422448424416 -23.468688348171657" fill="red" stroke="none" /><path d="M 117.35343817320211 111.8261652097733 l 34.17225009264801 23.287988878735 a62.35303014786905,62.35303014786905 0 0,0 -0.6120665271606524,0.8817274824536148 l -33.766322658325215 -23.872757623375634" fill="red" stroke="none" /><path d="M 117.14729908036423 112.12312394758627 l 17.86377949534332 12.629674911449493 a42.877461146740615,42.877461146740615 0 0,0 -0.4312660117057894,0.5989907706680239 l -17.643733691261925 -12.935299287568649" fill="red" stroke="none" /><path d="M 116.498646956653 112.99209946851258 l 37.08734160683053 29.204966470559363 a68.2059421472365,68.2059421472365 0 0,0 -0.7342924671863365,0.9161427554432156 l -36.579131227589336 -29.83903705958083" fill="red" stroke="none" /><path d="M 116.0416608686014 113.55231037782055 l 26.198240940791273 22.13278883594076 a55.29589144559587,55.29589144559587 0 0,0 -0.6205186194817032,0.7218033413102852 l -25.81337981173879 -22.580469276412575" fill="red" stroke="none" /><path d="M 115.32070863581623 114.36230785411682 l 30.308867535670544 28.41286892169631 a62.54417614607756,62.54417614607756 0 0,0 -0.7430648665641141,0.779100541858286 l -29.815296117727463 -28.930376580137104" fill="red" stroke="none" /><path d="M 114.81725581225074 114.88116024355365 l 35.94934256977433 36.104386278389775 a71.9497982305933,71.9497982305933 0 0,0 -0.8851539904488465,0.8663094798736775 l -35.32253862694969 -36.71784586118602" fill="red" stroke="none" /><path d="M 114.29624159901734 115.38237550388516 l 28.28417301374707 30.433017454336944 a62.547117763420786,62.547117763420786 0 0,0 -0.7949454243145774,0.7261637971372769 l -27.756128039965628 -30.915374018060803" fill="red" stroke="none" /><path d="M 113.75828350139079 115.86535959552629 l 22.87077368536806 26.37342432357818 a55.90887851992426,55.90887851992426 0 0,0 -0.7324982212710057,0.6242508753766872 l -22.41340998752001 -26.763199589177812" fill="red" stroke="none" /><path d="M 113.48314897796784 116.09983520530334 l 26.64276964470814 31.81335468395226 a62.496104764036936,62.496104764036936 0 0,0 -0.8306918899639594,0.6836028722244015 l -26.09120762619949 -32.26725267503384" fill="red" stroke="none" /><path d="M 112.34349029814194 116.9893568818739 l 24.395728767625805 33.577840012478646 a62.504492793036,62.504492793036 0 0,0 -0.8758744816979447,0.6249131867816452 l -23.814126958078973 -33.992797461104516" fill="red" stroke="none" /><path d="M 111.7513745106137 117.40417183066458 l 23.233857898577906 34.41010707223011 a62.51948484234422,62.51948484234422 0 0,0 -0.8970810764162676,0.5945364211127363 l -22.63810212342167 -34.80494151443416" fill="red" stroke="none" /><path d="M 111.45004920935366 117.60387380957326 l 18.46310935249252 28.386100463927786 a54.862325769360524,54.862325769360524 0 0,0 -0.7960737639977994,0.5080919411099215 l -17.97175378644779 -28.699706833861516" fill="red" stroke="none" /><line stroke="#e1ed5e" stroke-width="0.3" x1="143.8653032363475" x2="146.44561519142675" y1="172.8068346515853" y2="177.08958963109032" /><path d="M 144.38136562736335 173.6633856474863 a86.0,86.0 0 0,1 -40.68145358897372,12.25698825130547" fill="none" id="id54" stroke="none" /><text fill="#e1ed5e" style="font-size:6.75px; font-family:Arial;" text-anchor="middle"><textPath startOffset="21.466115282336833" xlink:href="#id54">June</textPath></text><path d="M 110.8373102113329 117.98757091392108 l 25.801422645378516 42.82473330222349 a70.99671182119901,70.99671182119901 0 0,0 -1.0522122747664857,0.6216655586729193 l -25.060442499583647 -43.26251743319016" fill="red" stroke="none" /><path d="M 109.89434966115114 118.52300852407294 l 19.56029274280194 36.618421787827664 a62.515224513609006,62.515224513609006 0 0,0 -0.9535331020146476,0.49884345221652127 l -18.927068738260797 -36.9496946589889" fill="red" stroke="none" /><path d="M 109.2508944713604 118.85261126421891 l 16.79360037299996 34.22406563375829 a59.12232524377048,59.12232524377048 0 0,0 -0.917486515967374,0.4404492832280951 l -16.202001189032355 -34.50806919348595" fill="red" stroke="none" /><path d="M 108.59647513512805 119.15986991738527 l 25.789425405384144 57.479609752155824 a84.0,84.0 0 0,0 -1.3243173013689848,0.5805417868221818 l -24.796187429357403 -57.91501609227246" fill="red" stroke="none" /><path d="M 107.93186726928326 119.44442032107085 l 22.08836802250588 54.14809621176562 a79.48001646080725,79.48001646080725 0 0,0 -1.271222019287176,0.5058454765068798 l -21.153024927176837 -54.52028853267857" fill="red" stroke="none" /><path d="M 107.2578585660854 119.70592522655815 l 14.388534366829418 39.06653453918604 a62.63200742369802,62.63200742369802 0 0,0 -1.0148784287989367,0.36389929692232703 l -13.713936377400747 -39.30842137714833" fill="red" stroke="none" /><path d="M 106.91757812671514 119.82793768551818 l 10.982133495813931 31.478221802525884 a54.33895175270054,54.33895175270054 0 0,0 -0.8858032316863388,0.3005125500783639 l -10.438660531190367 -31.662597339502373" fill="red" stroke="none" /><path d="M 106.2309692047433 120.05430185196036 l 14.830939800058834 47.73320710239095 a70.98415584595497,70.98415584595497 0 0,0 -1.1699710836437494,0.35250269008271745 l -14.007093741974838 -47.98142516157939" fill="red" stroke="none" /><path d="M 105.53697534728816 120.25689768951611 l 15.459260898207805 56.55735247654789 a79.63209758038113,79.63209758038113 0 0,0 -1.325341864919554,0.3500348323700151 l -14.483428590476754 -56.81507865822149" fill="red" stroke="none" /><path d="M 104.83641907484287 120.43548508189849 l 8.113872860899251 34.28382140576081 a56.23088620777145,56.23088620777145 0 0,0 -0.9438216366677263,0.21481073168614095 l -7.522531074838662 -34.41840887102463" fill="red" stroke="none" /><path d="M 104.48393922423573 120.51570834832081 l 7.089901919402638 32.43896777424691 a54.20471863282956,54.20471863282956 0 0,0 -0.9132424896720567,0.19137884300118702 l -6.5304679683012035 -32.55620259797464" fill="red" stroke="none" /><path d="M 103.7750983002368 120.6578951692458 l 8.838602330785948 48.366136685917326 a70.167103525453,70.167103525453 0 0,0 -1.1900040994960588,0.20689746625522706 l -8.004749259817839 -48.51111273069356" fill="red" stroke="none" /><path d="M 103.06178313531738 120.77559828337769 l 6.698953783792008 45.455463884952515 a66.94643815132576,66.94643815132576 0 0,0 -1.1415050201842352,0.15820219438010233 l -5.915520172420942 -45.56404064482522" fill="red" stroke="none" /><line stroke="#e1ed5e" stroke-width="0.3" x1="102.19456741930631" x2="102.32365962044197" y1="184.97166512339345" y2="189.96999836594603" /><path d="M 102.22038585953345 185.97133177190398 a86.0,86.0 0 0,1 -42.740103519485714,-10.115201625700543" fill="none" id="id55" stroke="none" /><text fill="#e1ed5e" style="font-size:6.75px; font-family:Arial;" text-anchor="middle"><textPath startOffset="22.20632615414155" xlink:href="#id55">July</textPath></text><line stroke="#e1ed5e" stroke-width="0.3" x1="58.666819895761336" x2="56.23545636021788" y1="174.27360380694188" y2="178.64263932499728" /><path d="M 58.180547188652646 175.14741091055294 a86.0,86.0 0 0,1 -31.652253787137756,-30.449443065178592" fill="none" id="id56" stroke="none" /><text fill="#e1ed5e" style="font-size:6.75px; font-family:Arial;" text-anchor="middle"><textPath startOffset="22.20632615414155" xlink:href="#id56">August</textPath></text><line stroke="#e1ed5e" stroke-width="0.3" x1="26.63291911575756" x2="22.317208475507996" y1="142.92168965132927" y2="145.44649492493687" /><path d="M 25.769776987707644 143.4266507060508 a86.0,86.0 0 0,1 -11.730757126820373,-40.83630448921669" fill="none" id="id57" stroke="none" /><text fill="#e1ed5e" style="font-size:6.75px; font-family:Arial;" text-anchor="middle"><textPath startOffset="21.46611528233685" xlink:href="#id57">September</textPath></text><line stroke="#e1ed5e" stroke-width="0.3" x1="15.007084014347285" x2="10.007500721073583" y1="101.09737516637583" y2="101.16192664675087" /><path d="M 14.007167355692545 101.11028546245083 a86.0,86.0 0 0,1 10.666146001902534,-42.60595125391555" fill="none" id="id58" stroke="none" /><text fill="#e1ed5e" style="font-size:6.75px; font-family:Arial;" text-anchor="middle"><textPath startOffset="22.20632615414155" xlink:href="#id58">October</textPath></text><line stroke="#e1ed5e" stroke-width="0.3" x1="26.266209847984243" x2="21.928928074336255" y1="57.711370442889674" y2="55.22380399835377" /><path d="M 25.398753493254645 57.213857153982495 a86.0,86.0 0 0,1 29.58750427330803,-30.492523968695096" fill="none" id="id59" stroke="none" /><text fill="#e1ed5e" style="font-size:6.75px; font-family:Arial;" text-anchor="middle"><textPath startOffset="21.46611528233685" xlink:href="#id59">November</textPath></text><line stroke="#e1ed5e" stroke-width="0.3" x1="56.762969772571076" x2="54.21961505331055" y1="26.818313649435495" y2="22.513508569990535" /><path d="M 56.25429882871897 25.957352633546506 a86.0,86.0 0 0,1 42.265352541879196,-11.944610805530505" fill="none" id="id60" stroke="none" /><text fill="#e1ed5e" style="font-size:6.75px; font-family:Arial;" text-anchor="middle"><textPath startOffset="22.20632615414155" xlink:href="#id60">December</textPath></text></svg>