<?xml version="1.0" encoding="utf-8" ?>
<svg baseProfile="full" height="200mm" version="1.1" viewBox="0,0,200,200" width="200mm" xmlns="http://www.w3.org/2000/svg" xmlns:ev="http://www.w3.org/2001/xml-events" xmlns:xlink="http://www.w3.org/1999/xlink"><defs /><rect fill="#1a1a1a" height="200" width="200" x="0" y="0" /><text alignment-baseline="middle" fill="#e1ed5e" style="dominant-baseline: central; font-size:9.0px; font-family:Arial;" text-anchor="middle" x="100.0" y="100.0">2022</text><line stroke="#e1ed5e" stroke-width="0.3" x1="100.0" x2="100.0" y1="15.0" y2="10.0" /><path d="M 100.0 14.0 a86.0,86.0 0 0,1 42.46469731375804,11.215312516191453" fill="none" id="id13" stroke="none" /><text fill="#e1ed5e" style="font-size:6.75px; font-family:Arial;" text-anchor="middle"><textPath startOffset="22.20632615414155" xlink:href="#id13">January</textPath></text><path d="M 102.16513564639614 79.11191278185805 l 1.9676981180855126 -18.9833140376019 a40.08502155445811,40.08502155445811 0 0,0 0.6857083063281764,0.07704731786457696 l -2.2941731279234143 18.946630766266722" fill="red" stroke="none" /><line stroke="#e1ed5e" stroke-width="0.3" x1="143.23703022742887" x2="145.7803849466894" y1="26.81831364943548" y2="22.513508569990506" /><path d="M 143.74570117128098 25.957352633546492 a86.0,86.0 0 0,1 28.547481713284135,27.462654790039103" fill="none" id="id14" stroke="none" /><text fill="#e1ed5e" style="font-size:6.75px; font-family:Arial;" text-anchor="middle"><textPath startOffset="19.985693538727396" xlink:href="#id14">February</textPath></text><path d="M 117.45458315368197 88.32363383020206 l 15.784375859355908 -10.559069252632392 a39.990536189147065,39.990536189147065 0 0,0 0.3778217587508307,0.5754484594384454 l -15.963794253464663 10.285802729216272" fill="red" stroke="none" /><line stroke="#e1ed5e" stroke-width="0.3" x1="172.23445277983987" x2="176.4835382374775" y1="55.19839476539836" y2="52.563006222186495" /><path d="M 173.08426987136738 54.67131705675599 a86.0,86.0 0 0,1 12.851231095245387,41.99856678651699" fill="none" id="id15" stroke="none" /><text fill="#e1ed5e" style="font-size:6.75px; font-family:Arial;" text-anchor="middle"><textPath startOffset="22.20632615414155" xlink:href="#id15">March</textPath></text><path d="M 118.21658344932153 89.55222093294921 l 17.19918068784824 -9.864266834713053 a40.82714241941263,40.82714241941263 0 0,0 0.3443912527364056,0.6126336104094092 l -17.366429581877078 9.56674971436885" fill="red" stroke="none" /><path d="M 118.56541770881063 90.18545643968196 l 18.925983199011565 -10.00515525381337 a42.40784836694658,42.40784836694658 0 0,0 0.3356087789791755,0.648289338858902 l -19.09540141115086 9.677893192694123" fill="red" stroke="none" /><path d="M 119.04729006885535 91.15688171328212 l 18.90787071407305 -8.778389821863252 a41.84628750652484,41.84628750652484 0 0,0 0.29770182843621196,0.6559465170864444 l -19.056174859472605 8.451621295934746" fill="red" stroke="none" /><path d="M 119.34039704204932 91.81776055985345 l 18.692881350458325 -7.908298402724687 a41.2969208701431,41.2969208701431 0 0,0 0.2713371180217397,0.6570643535567864 l -18.82624015536626 7.585359478714597" fill="red" stroke="none" /><path d="M 119.7369772167798 92.82701384747503 l 22.43803349018914 -8.154627821031537 a44.873904201164734,44.873904201164734 0 0,0 0.2575909954041025,0.7282444315838883 l -22.575077566403056 7.767185763021035" fill="red" stroke="none" /><path d="M 119.97218684219823 93.5106431181261 l 19.91112415557228 -6.46951641228423 a41.93579489170232,41.93579489170232 0 0,0 0.2171565584901857,0.6884456337947713 l -20.019536197830675 6.125820612063039" fill="red" stroke="none" /><path d="M 120.08093135843002 93.85539295169968 l 15.794012778860147 -4.832843681883727 a37.51687675416636,37.51687675416636 0 0,0 0.18364350900549342,0.6191546182879187 l -15.874862184977344 4.560259676849278" fill="red" stroke="none" /><path d="M 120.45610955862082 95.25157060432595 l 25.83250361882035 -5.996439312956683 a47.519342519194154,47.519342519194154 0 0,0 0.17809709439206264,0.7983743528287768 l -25.93189510021445 5.550886790577942" fill="red" stroke="none" /><path d="M 120.53481517161879 95.60439243477599 l 20.717201969605753 -4.434648617326425 a42.18651849192292,42.18651849192292 0 0,0 0.1458864131323069,0.7113939609382046 l -20.79046767865306 4.077379000224808" fill="red" stroke="none" /><path d="M 120.67395015179393 96.31383870115 l 18.995761961748094 -3.3869406703337086 a40.29534502442898,40.29534502442898 0 0,0 0.1158743274012195,0.68389683959158 l -19.051248150669537 3.0594580424262907" fill="red" stroke="none" /><path d="M 120.73433829027371 96.67025291283417 l 15.905723099350913 -2.554315185653837 a37.109517478214144,37.109517478214144 0 0,0 0.09585583907163864,0.6315702135912037 l -15.947334831861852 2.2801458596705513" fill="red" stroke="none" /><path d="M 120.83666639777658 97.38593545837742 l 22.178951151202714 -2.782460911354075 a43.35280659985787,43.35280659985787 0 0,0 0.08651908670970115,0.7412426986128866 l -22.223560590916005 2.4002744744163356" fill="red" stroke="none" /><path d="M 120.87857604477298 97.74499172005257 l 26.33522048791859 -2.8443577822140362 a47.48837876013798,47.48837876013798 0 0,0 0.08078197076205382,0.8134634212951151 l -26.380279584362874 2.3906188302144864" fill="red" stroke="none" /><path d="M 120.94382443527127 98.46500227214037 l 19.03894265577784 -1.3953866834488826 a40.090008943066096,40.090008943066096 0 0,0 0.04451787215142848,0.6886717781059928 l -19.060141118933686 1.0674558410898547" fill="red" stroke="none" /><path d="M 120.98425023603335 99.18683210126433 l 17.675884378720337 -0.6849642754382084 a38.689151043182264,38.689151043182264 0 0,0 0.02005996656237462,0.6656926306040472 l -17.685056039738356 0.3806014974091621" fill="red" stroke="none" /><line stroke="#e1ed5e" stroke-width="0.3" x1="184.98032266829074" x2="189.97916517819016" y1="98.17113171792111" y2="98.06355123074" /><path d="M 185.9800911702706 98.14961562048488 a86.0,86.0 0 0,1 -9.607161424134198,41.387399972396054" fill="none" id="id16" stroke="none" /><text fill="#e1ed5e" style="font-size:6.75px; font-family:Arial;" text-anchor="middle"><textPath startOffset="21.466115282336823" xlink:href="#id16">April</textPath></text><path d="M 120.99513854157772 99.54816195383933 l 23.855057059888654 -0.513386580024032 a44.86058073708794,44.86058073708794 0 0,0 0.009969714809292204,0.7721653989908825 l -23.86035978181566 0.10268492297268673" fill="red" stroke="none" /><path d="M 120.99824983174949 100.27111621757518 l 26.188515928573793 0.33812967458492516 a47.190698696636524,47.190698696636524 0 0,0 -0.01747839506253044,0.8121523385211711 l -26.178815470826255 -0.7888718288962111" fill="red" stroke="none" /><path d="M 120.9904718944345 100.63252640178507 l 17.642527692575253 0.5316395274913721 a38.650536081674005,38.650536081674005 0 0,0 -0.025763098538145245,0.6648310975146081 l -17.630762461185903 -0.8352478720199864" fill="red" stroke="none" /><path d="M 118.81262510543309 109.33194174019688 l 11.826304989483228 5.866400278809811 a34.20136894172327,34.20136894172327 0 0,0 -0.2661539622660476,0.5251470175838546 l -11.72357235743091 -6.06910150809636" fill="red" stroke="none" /><line stroke="#e1ed5e" stroke-width="0.3" x1="174.80103733775053" x2="179.2010983576182" y1="140.37084112569926" y2="142.7455964860345" /><path d="M 175.68104954172406 140.8457921977663 a86.0,86.0 0 0,1 -30.038265399797805,32.042727171017184" fill="none" id="id17" stroke="none" /><text fill="#e1ed5e" style="font-size:6.75px; font-family:Arial;" text-anchor="middle"><textPath startOffset="22.206326154141568" xlink:href="#id17">May</textPath></text><path d="M 118.48025628344425 109.97397251340804 l 17.156916909359257 9.259753492816934 a40.49622611128608,40.49622611128608 0 0,0 -0.3363570077140024,0.6105856704981801 l -16.994983492193747 -9.55370968171292" fill="red" stroke="none" /><path d="M 118.12598468904814 110.60418214915192 l 15.535697408855796 9.088795337952245 a38.99900260221969,38.99900260221969 0 0,0 -0.3439695766964614,0.5765127956363552 l -15.376946956461108 -9.354870227474704" fill="red" stroke="none" /><path d="M 117.94076556474637 110.91462005526583 l 15.60791307059264 9.495383037381792 a39.26935273746102,39.26935273746102 0 0,0 -0.356295251135143,0.5744613917075793 l -15.442153179789534 -9.762640760454646" fill="red" stroke="none" /><path d="M 117.55443506779139 111.5257021239791 l 14.014402530639849 9.201425644853646 a37.76513382554923,37.76513382554923 0 0,0 -0.3614606963182824,0.5403346973645324 l -13.853938728910846 -9.441297256423985" fill="red" stroke="none" /><path d="M 117.14729908036423 112.12312394758627 l 14.632023100790128 10.344826250680661 a38.919585100632986,38.919585100632986 0 0,0 -0.3914572783624331,0.543699921824313 l -14.451786030052093 -10.595159777956106" fill="red" stroke="none" /><path d="M 116.498646956653 112.99209946851258 l 15.301032034478723 12.049020182390334 a40.47563782462063,40.47563782462063 0 0,0 -0.43575317668103625,0.5436690880234694 l -15.091360945742831 -12.310617103992053" fill="red" stroke="none" /><path d="M 115.80600337817218 113.82643327865902 l 12.525812780907408 10.957059196593585 a37.64190890673301,37.64190890673301 0 0,0 -0.4308047470512701,0.4840137002418692 l -12.3353491842078 -11.171047066576321" fill="red" stroke="none" /><path d="M 115.56566222782051 114.09645910891815 l 14.124547545609605 12.791367562428132 a40.055758381269555,40.055758381269555 0 0,0 -0.46722866171178296,0.5070844335067347 l -13.902272475902102 -13.0326032507362" fill="red" stroke="none" /><path d="M 115.07121518719521 114.62390073753431 l 11.65436154802581 11.308459491870885 a37.23900856491514,37.23900856491514 0 0,0 -0.45034263517606693,0.4561947118123746 l -11.457978287794207 -11.507394697663923" fill="red" stroke="none" /><path d="M 114.81725581225074 114.88116024355365 l 13.146722262032304 13.203421951927508 a39.632408794239595,39.632408794239595 0 0,0 -0.48757308092637097,0.47719288021685874 l -12.917499228730138 -13.42776493506694" fill="red" stroke="none" /><path d="M 114.29624159901734 115.38237550388516 l 11.50029165190853 12.37400776760881 a37.892980089723665,37.892980089723665 0 0,0 -0.4816025456185905,0.43993250673643913 l -11.285589556823075 -12.57013304093183" fill="red" stroke="none" /><path d="M 113.75828350139079 115.86535959552629 l 12.038773879258068 13.88250770267603 a39.37542099193283,39.37542099193283 0 0,0 -0.5158827471044556,0.4396464689196014 l -11.798025655576565 -14.087678561818578" fill="red" stroke="none" /><line stroke="#e1ed5e" stroke-width="0.3" x1="143.8653032363475" x2="146.44561519142675" y1="172.8068346515853" y2="177.08958963109032" /><path d="M 144.38136562736335 173.6633856474863 a86.0,86.0 0 0,1 -40.68145358897372,12.25698825130547" fill="none" id="id18" stroke="none" /><text fill="#e1ed5e" style="font-size:6.75px; font-family:Arial;" text-anchor="middle"><textPath startOffset="21.466115282336833" xlink:href="#id18">June</textPath></text><path d="M 110.5260780823613 118.17145234162733 l 8.431414481506055 14.555378102308762 a37.8210517465502,37.8210517465502 0 0,0 -0.5661473453745329,0.32147323824174995 l -8.179618369210322 -14.69835450634514" fill="red" stroke="none" /><path d="M 104.48393922423573 120.51570834832081 l 2.2680976936025403 10.377399973653741 a31.622367785052155,31.622367785052155 0 0,0 -0.5327744634367628,0.11164806888225287 l -2.0891317687363995 -10.414904023262535" fill="red" stroke="none" /><path d="M 104.13013068566511 120.58985236759428 l 2.3531893644471067 11.731304719999764 a32.96499104130194,32.96499104130194 0 0,0 -0.5573161621436107,0.10681096889846825 l -2.1509055877317915 -11.770072887246702" fill="red" stroke="none" /><path d="M 103.41894727170886 120.7198165907248 l 2.3738857945458345 14.38643955621237 a35.58097996947045,35.58097996947045 0 0,0 -0.6051547610837411,0.09451272804503745 l -2.1258951698535764 -14.425170591604513" fill="red" stroke="none" /><path d="M 101.26447882468166 120.96189622390904 l 0.8726276520763956 14.465983872481107 a35.49227961426538,35.49227961426538 0 0,0 -0.6101493533311821,0.031537752192959734 l -0.6234902303317338 -14.47886143143627" fill="red" stroke="none" /><path d="M 100.90346689309514 120.98055641714683 l 0.6066199648749816 14.087095491928444 a35.100150608433076,35.100150608433076 0 0,0 -0.6038557175229258,0.020798011871199982 l -0.36404389567740353 -14.09545030222574" fill="red" stroke="none" /><line stroke="#e1ed5e" stroke-width="0.3" x1="102.19456741930631" x2="102.32365962044197" y1="184.97166512339345" y2="189.96999836594603" /><path d="M 102.22038585953345 185.97133177190398 a86.0,86.0 0 0,1 -42.740103519485714,-10.115201625700543" fill="none" id="id19" stroke="none" /><text fill="#e1ed5e" style="font-size:6.75px; font-family:Arial;" text-anchor="middle"><textPath startOffset="22.20632615414155" xlink:href="#id19">July</textPath></text><path d="M 99.45781275523022 120.99299961872073 l -0.4223482970307011 16.352943976573318 a37.35839707260312,37.35839707260312 0 0,0 -0.6427061217328143,-0.022136098345353735 l 0.7037747704381584 -16.34325107980187" fill="red" stroke="none" /><path d="M 96.22490169976321 120.6578951692458 l -2.5874722347517687 14.159030024591257 a35.39351047531102,35.39351047531102 0 0,0 -0.5983734501300653,-0.11467969585823824 l 2.8308132994535287 -14.11239313038455" fill="red" stroke="none" /><path d="M 95.86986931433489 120.58985236759428 l -3.272565596896733 16.314651431549287 a37.63963752366455,37.63963752366455 0 0,0 -0.6341535783131128,-0.1328930480952661 l 3.5529106366392327 -16.25590240272748" fill="red" stroke="none" /><path d="M 94.46302465271185 120.25689768951611 l -4.319843209087597 15.804047595064082 a37.383801931729735,37.383801931729735 0 0,0 -0.6192695004666334,-0.17501174654771742 l 4.591243877658845 -15.727347055177843" fill="red" stroke="none" /><path d="M 94.11515582081647 120.15858648285463 l -4.605297565728802 15.775488089627562 a37.43395235890894,37.43395235890894 0 0,0 -0.6169917960490465,-0.18589456688869868 l 4.876164336218094 -15.693878153633138" fill="red" stroke="none" /><path d="M 93.08242187328487 119.8279376855182 l -5.35493357772228 15.348910752322155 a37.25621034880418,37.25621034880418 0 0,0 -0.6036933155601149,-0.21646294458048426 l 5.618346453912121 -15.254460266701711" fill="red" stroke="none" /><path d="M 92.06813273071674 119.44442032107085 l -5.457551988116501 13.378808693885553 a35.44913131543146,35.44913131543146 0 0,0 -0.5630141442723171,-0.2353399579676285 l 5.6870375918862806 -13.28288369289795" fill="red" stroke="none" /><path d="M 91.7346041902142 119.30500536409082 l -7.48841431934494 17.490254783967217 a40.02591289337409,40.02591289337409 0 0,0 -0.6310358208069632,-0.2766275594084378 l 7.788370814809647 -17.358762671264326" fill="red" stroke="none" /><path d="M 91.07499286063937 119.00905698771935 l -7.6842237554892066 16.366356350606264 a39.08051202038965,39.08051202038965 0 0,0 -0.6064687521671073,-0.29114185608559084 l 7.964805175656556 -16.23166021802111" fill="red" stroke="none" /><path d="M 90.42595943632237 118.69057910512821 l -7.892406634933475 15.40766926554562 a38.311451547677365,38.311451547677365 0 0,0 -0.5843574508636395,-0.30570819985312503 l 8.15645498832361 -15.269531646747778" fill="red" stroke="none" /><path d="M 90.10565033884886 118.52300852407294 l -6.831765454615105 12.789607612834253 a35.49989938300057,35.49989938300057 0 0,0 -0.5365170592915668,-0.2925518785626652 l 7.050905325775313 -12.670115082511822" fill="red" stroke="none" /><line stroke="#e1ed5e" stroke-width="0.3" x1="58.666819895761336" x2="56.23545636021788" y1="174.27360380694188" y2="178.64263932499728" /><path d="M 58.180547188652646 175.14741091055294 a86.0,86.0 0 0,1 -31.652253787137756,-30.449443065178592" fill="none" id="id20" stroke="none" /><text fill="#e1ed5e" style="font-size:6.75px; font-family:Arial;" text-anchor="middle"><textPath startOffset="22.20632615414155" xlink:href="#id20">August</textPath></text><path d="M 89.4739219176387 118.17145234162733 l -8.021798727933573 13.848247385038583 a37.003849863976626,37.003849863976626 0 0,0 -0.5484184273005505,-0.3240152735055126 l 8.258985026262506 -13.70811353923932" fill="red" stroke="none" /><path d="M 88.24862548938628 117.40417183066458 l -10.078682717252736 14.926860315734693 a39.010857952926735,39.010857952926735 0 0,0 -0.5532912126777902,-0.3805587412584161 l 10.334130814553417 -14.751160785111177" fill="red" stroke="none" /><path d="M 87.95078237400918 117.19931262002967 l -13.429213042957713 19.16914778504688 a44.40512742452203,44.40512742452203 0 0,0 -0.6222483573535605,-0.4439576812531916 l 13.757188728160159 -18.93514584194947" fill="red" stroke="none" /><path d="M 87.36589467227662 116.77436683061367 l -13.514106062454099 17.942748346572007 a43.46270867227884,43.46270867227884 0 0,0 -0.5937239285682758,-0.4552421907390413 l 13.820958719515861 -17.7074668140056" fill="red" stroke="none" /><path d="M 86.79598089348748 116.32954008644616 l -14.92757425709196 18.461077665690194 a44.7411849278767,44.7411849278767 0 0,0 -0.5946952951274539,-0.48939374124032453 l 15.243139680764102 -18.20138880559269" fill="red" stroke="none" /><path d="M 86.24171649860922 115.8653595955263 l -21.85594386378399 25.20317368540322 a54.35988977789762,54.35988977789762 0 0,0 -0.7016506580692459,-0.6191251262229631 l 22.286536874759822 -24.823225417407965" fill="red" stroke="none" /><path d="M 85.97065885151581 115.62618273729859 l -6.862990893898296 7.644147269457339 a31.272956316800098,31.272956316800098 0 0,0 -0.397465053831301,-0.36307490286942357 l 6.993555497196452 -7.5248796000013405" fill="red" stroke="none" /><path d="M 85.44109423537348 115.13401014063109 l -22.502605233459235 23.39150079679952 a53.45811996742232,53.45811996742232 0 0,0 -0.6576622780706696,-0.6436609586531266 l 22.9019174639057 -23.000689735223823" fill="red" stroke="none" /><path d="M 84.9287848128048 114.62390073753433 l -16.510860351465176 16.02081715854348 a44.00597948301845,44.00597948301845 0 0,0 -0.5228192181507197,-0.5481738600273398 l 16.784186120994853 -15.734236181933639" fill="red" stroke="none" /><path d="M 84.19399662182784 113.82643327865904 l -25.818743856552768 22.585161519350287 a55.30301816437473,55.30301816437473 0 0,0 -0.6205985939894374,-0.721896369730523 l 26.203684960112987 -22.137388050458235" fill="red" stroke="none" /><path d="M 83.72743513129214 113.27417163493432 l -25.286286989103917 20.627019539435718 a53.632349666789075,53.632349666789075 0 0,0 -0.5773958854319742,-0.7203901457523572 l 25.637600786590752 -20.188701560105102" fill="red" stroke="none" /><path d="M 83.28015986056508 112.70617746262583 l -27.885111630533224 21.191182091927676 a56.0235013826507,56.0235013826507 0 0,0 -0.5768786178233589,-0.7728231807307802 l 28.24575151505167 -20.708046031687587" fill="red" stroke="none" /><path d="M 82.6465618267979 111.8261652097733 l -32.028218581863456 21.826856473247027 a59.75846293432377,59.75846293432377 0 0,0 -0.5719650226298595,-0.8550101035982854 l 32.39918670990404 -21.27230945544292" fill="red" stroke="none" /><path d="M 82.24976979558568 111.22182372390057 l -31.03469052213283 19.620355474520643 a57.71662245837862,57.71662245837862 0 0,0 -0.5236694027264629,-0.8443218171628523 l 31.367824564527247 -19.083237325992528" fill="red" stroke="none" /><line stroke="#e1ed5e" stroke-width="0.3" x1="26.63291911575756" x2="22.317208475507996" y1="142.92168965132927" y2="145.44649492493687" /><path d="M 25.769776987707644 143.4266507060508 a86.0,86.0 0 0,1 -11.730757126820373,-40.83630448921669" fill="none" id="id21" stroke="none" /><text fill="#e1ed5e" style="font-size:6.75px; font-family:Arial;" text-anchor="middle"><textPath startOffset="21.46611528233685" xlink:href="#id21">September</textPath></text><path d="M 81.35079622478065 109.6543875284942 l -5.890407244567492 3.049367411345977 a27.632913320422034,27.632913320422034 0 0,0 -0.21503845011924563,-0.42429126278832663 l 5.942024364473005 -2.947521936854965" fill="red" stroke="none" /><path d="M 81.02952815118164 109.00673069616217 l -37.68688013011867 17.892838028257408 a62.718755813751066,62.718755813751066 0 0,0 -0.4546374588132192,-0.979248639836589 l 37.98929220577172 -17.24146932114199" fill="red" stroke="none" /><path d="M 80.73074385275274 108.34839909993369 l -33.63063066443979 14.570460043903674 a57.6512977229859,57.6512977229859 0 0,0 -0.3866727960606082,-0.913980268589837 l 33.87645444169271 -13.989405249647678" fill="red" stroke="none" /><path d="M 80.45479744820244 107.68017299344265 l -35.04050266884563 13.768960519120988 a58.64865337648202,58.64865337648202 0 0,0 -0.3611241131293611,-0.9427811055652987 l 35.272321061568505 -13.16375584672253" fill="red" stroke="none" /><path d="M 80.0844068197444 106.66101706037122 l -35.666743996172045 11.929184739620483 a58.60880316947707,58.60880316947707 0 0,0 -0.31176464155685696,-0.9595129047928866 l 35.866800888745146 -11.313472934849793" fill="red" stroke="none" /><path d="M 79.86692584326677 105.97154293290107 l -31.953686322156283 9.477579442253008 a54.329605183064714,54.329605183064714 0 0,0 -0.25821403011146393,-0.8988769133163139 l 32.11209298915385 -8.926145053432098" fill="red" stroke="none" /><path d="M 79.67330655649465 105.27499134158121 l -41.98341289432881 10.895138460327082 a64.37408212660405,64.37408212660405 0 0,0 -0.26911028873126347,-1.0749618317212373 l 42.16473449735513 -10.170848789208453" fill="red" stroke="none" /><path d="M 79.4281124754447 104.21870165774334 l -43.311042037199144 8.881847357119137 a65.21236902523088,65.21236902523088 0 0,0 -0.21603947066194693,-1.1015806065275977 l 43.457511440836754 -8.135003023523584" fill="red" stroke="none" /><path d="M 79.29508885075956 103.50808413554451 l -37.79595133839184 6.403861205793622 a59.33462372212818,59.33462372212818 0 0,0 -0.1619503113040632,-1.008464743084062 l 37.900583404057194 -5.752317233016346" fill="red" stroke="none" /><path d="M 79.18660465613746 102.79330883721812 l -49.84085823370934 6.689005203555577 a71.28771162108995,71.28771162108995 0 0,0 -0.15275425867595113,-1.2176017379030544 l 49.94861400163214 -5.830085711365113" fill="red" stroke="none" /><path d="M 79.1416061653843 102.43462659150553 l -29.866788327820416 3.4861014535598995 a51.06955184839545,51.06955184839545 0 0,0 -0.09440011743463872,-0.8740278463813881 l 29.922370746756105 -2.9714772852937292" fill="red" stroke="none" /><path d="M 79.07016306316243 101.71520430193888 l -39.99900614865825 3.2779265135461957 a61.13309476116451,61.13309476116451 0 0,0 -0.07692127348044088,-1.0495296624042358 l 40.04950398080303 -2.5889237146451993" fill="red" stroke="none" /><path d="M 79.0235259727143 100.99374915477108 l -43.13751725962385 2.043616637377307 a64.18589774781707,64.18589774781707 0 0,0 -0.04278407950001662,-1.104066985111647 l 43.16630347197507 -1.3007724052516632" fill="red" stroke="none" /><line stroke="#e1ed5e" stroke-width="0.3" x1="15.007084014347285" x2="10.007500721073583" y1="101.09737516637583" y2="101.16192664675087" /><path d="M 14.007167355692545 101.11028546245083 a86.0,86.0 0 0,1 10.666146001902534,-42.60595125391555" fill="none" id="id22" stroke="none" /><text fill="#e1ed5e" style="font-size:6.75px; font-family:Arial;" text-anchor="middle"><textPath startOffset="22.20632615414155" xlink:href="#id22">October</textPath></text><path d="M 79.00175016825051 100.2711162175752 l -33.42848354613833 0.43160759067646937 a54.43126975313338,54.43126975313338 0 0,0 -0.004032327328130583,-0.9369708621474613 l 33.43096017075597 0.1438727496746672" fill="red" stroke="none" /><path d="M 79.00486145842228 99.54816195383935 l -53.62237629115319 -1.1540114244021098 a74.63479263945818,74.63479263945818 0 0,0 0.038697448880856834,-1.2841799343515017 l 53.59456714781668 2.0768615061786058" fill="red" stroke="none" /><path d="M 79.05617556472873 98.46500227214037 l -49.657516840503426 -3.63945829267724 a70.79070832423474,70.79070832423474 0 0,0 0.09953010495506931,-1.2145193809631072 l 49.58751225172886 4.493691590848126" fill="red" stroke="none" /><path d="M 79.08570108090925 98.10471618934814 l -33.11227514609662 -3.0006819382772325 a54.24796019977032,54.24796019977032 0 0,0 0.09228062210532648,-0.9292532711061697 l 33.05571739830906 3.5702107400878327" fill="red" stroke="none" /><path d="M 79.16333360222342 97.38593545837743 l -33.92109188074425 -4.255571491418439 a55.18699113845012,55.18699113845012 0 0,0 0.12636244447126427,-0.9415469848355646 l 33.842813437215156 4.838836818318663" fill="red" stroke="none" /><path d="M 79.26566170972629 96.67025291283419 l -39.71091053162256 -6.37721285435952 a61.21971231921407,61.21971231921407 0 0,0 0.17604497453451465,-1.039027405037356 l 39.59525369556782 7.059826047712704" fill="red" stroke="none" /><path d="M 79.3925641242962 95.95851677861259 l -45.85315421829691 -8.992615798427533 a67.72664005323995,67.72664005323995 0 0,0 0.23420744218942927,-1.1420786651957628 l 45.69156748019248 9.780570119786697" fill="red" stroke="none" /><path d="M 79.54389044137918 95.25157060432595 l -51.65257440173466 -11.989992620472353 a74.02592163617447,74.02592163617447 0 0,0 0.29880809929575597,-1.2387524810940904 l 51.43853350217809 12.87733033322584" fill="red" stroke="none" /><path d="M 79.62865764111835 94.90015583598534 l -32.25693443459595 -8.075331312349928 a54.25238028956786,54.25238028956786 0 0,0 0.23458643500284757,-0.9039572278953409 l 32.113151667722796 8.629384965794133" fill="red" stroke="none" /><path d="M 79.81627453868168 94.20196356495316 l -35.19951383596477 -10.1115160384038 a57.62306009720068,57.62306009720068 0 0,0 0.28206241754142575,-0.9509742512108507 l 35.02024552131164 10.71591967636119" fill="red" stroke="none" /><path d="M 80.02781315780177 93.51064311812611 l -22.67189044342044 -7.366543755901897 a44.83863635332517,44.83863635332517 0 0,0 0.244824732755031,-0.7319947890573729 l 22.54172841689364 7.755711647881592" fill="red" stroke="none" /><path d="M 80.2630227832202 92.82701384747504 l -19.752355610028687 -7.1785751036906165 a42.01636249840487,42.01636249840487 0 0,0 0.25288930607860316,-0.6776176116379896 l 19.625861715448455 7.517515852357948" fill="red" stroke="none" /><path d="M 80.65960295795068 91.81776055985345 l -33.64185332285097 -14.2326808751331 a57.52866682332656,57.52866682332656 0 0,0 0.3936858987084373,-0.9086813331471403 l 33.391876714299855 14.80966135286684" fill="red" stroke="none" /><path d="M 81.10775173730289 90.83032412892265 l -41.79439752908705 -20.28562578893251 a67.45727368742124,67.45727368742124 0 0,0 0.5160159795878779,-1.04025672712727 l 41.43902153654576 21.00204210455874" fill="red" stroke="none" /><path d="M 81.43458229118936 90.18545643968196 l -46.914291729573605 -24.80107730422114 a74.06641314369656,74.06641314369656 0 0,0 0.6055525360338679,-1.1219968817792176 l 46.48043109432127 25.60495516933283" fill="red" stroke="none" /><line stroke="#e1ed5e" stroke-width="0.3" x1="26.266209847984243" x2="21.928928074336255" y1="57.711370442889674" y2="55.22380399835377" /><path d="M 25.398753493254645 57.213857153982495 a86.0,86.0 0 0,1 29.58750427330803,-30.492523968695096" fill="none" id="id23" stroke="none" /><text fill="#e1ed5e" style="font-size:6.75px; font-family:Arial;" text-anchor="middle"><textPath startOffset="21.46611528233685" xlink:href="#id23">November</textPath></text><path d="M 82.15384107792192 88.93136811851018 l -32.102041916423474 -19.910485285293635 a58.77523685564002,58.77523685564002 0 0,0 0.5406549421246127,-0.8551862798759496 l 31.754559378052896 20.4601192128838" fill="red" stroke="none" /><path d="M 82.54541684631803 88.32363383020206 l -52.36374946104589 -35.02909850939381 a84.0,84.0 0 0,0 0.8143021373250385,-1.194887906918337 l 51.75302285805211 35.92526443958256" fill="red" stroke="none" /><path d="M 82.7489923806493 88.02491185347247 l -13.623607482097505 -9.457065005803406 a37.58429254898304,37.58429254898304 0 0,0 0.37349369278913763,-0.528280341154157 l 13.45880116950449 9.69017184728935" fill="red" stroke="none" /><path d="M 83.17141714833178 87.43820079747576 l -11.994417594988047 -8.953306805898242 a35.96755678805003,35.96755678805003 0 0,0 0.37461762099534357,-0.4929528770459297 l 11.838524033768595 9.1584444588252" fill="red" stroke="none" /><line stroke="#e1ed5e" stroke-width="0.3" x1="56.762969772571076" x2="54.21961505331055" y1="26.818313649435495" y2="22.513508569990535" /><path d="M 56.25429882871897 25.957352633546506 a86.0,86.0 0 0,1 42.265352541879196,-11.944610805530505" fill="none" id="id24" stroke="none" /><text fill="#e1ed5e" style="font-size:6.75px; font-family:Arial;" text-anchor="middle"><textPath startOffset="22.20632615414155" xlink:href="#id24">December</textPath></text></svg>