<?xml version="1.0" encoding="utf-8" ?>
<svg baseProfile="full" height="200mm" version="1.1" viewBox="0,0,200,200" width="200mm" xmlns="http://www.w3.org/2000/svg" xmlns:ev="http://www.w3.org/2001/xml-events" xmlns:xlink="http://www.w3.org/1999/xlink"><defs /><rect fill="#1a1a1a" height="200" width="200" x="0" y="0" /><text alignment-baseline="middle" fill="#e1ed5e" style="dominant-baseline: central; font-size:9.0px; font-family:Arial;" text-anchor="middle" x="100.0" y="100.0">2025</text><line stroke="#e1ed5e" stroke-width="0.3" x1="100.0" x2="100.0" y1="15.0" y2="10.0" /><path d="M 100.0 14.0 a86.0,86.0 0 0,1 42.46469731375804,11.215312516191453" fill="none" id="id49" stroke="none" /><text fill="#e1ed5e" style="font-size:6.75px; font-family:Arial;" text-anchor="middle"><textPath startOffset="22.20632615414155" xlink:href="#id49">January</textPath></text><line stroke="#e1ed5e" stroke-width="0.3" x1="143.23703022742887" x2="145.7803849466894" y1="26.81831364943548" y2="22.513508569990506" /><path d="M 143.74570117128098 25.957352633546492 a86.0,86.0 0 0,1 28.547481713284135,27.462654790039103" fill="none" id="id50" stroke="none" /><text fill="#e1ed5e" style="font-size:6.75px; font-family:Arial;" text-anchor="middle"><textPath startOffset="19.985693538727396" xlink:href="#id50">February</textPath></text><line stroke="#e1ed5e" stroke-width="0.3" x1="172.23445277983987" x2="176.4835382374775" y1="55.19839476539836" y2="52.563006222186495" /><path d="M 173.08426987136738 54.67131705675599 a86.0,86.0 0 0,1 12.851231095245387,41.99856678651699" fill="none" id="id51" stroke="none" /><text fill="#e1ed5e" style="font-size:6.75px; font-family:Arial;" text-anchor="middle"><textPath startOffset="22.20632615414155" xlink:href="#id51">March</textPath></text><path d="M 117.84615892207809 88.93136811851018 l 15.396942269666088 -9.549566762663314 a39.11794846581682,39.11794846581682 0 0,0 0.34998307238955356,0.5752801491556592 l -15.559041140341865 9.283118840300574" fill="#ff8b0c" stroke="none" /><path d="M 119.04729006885535 91.15688171328212 l 15.444184195030147 -7.170298094101416 a38.02750716365415,38.02750716365415 0 0,0 0.2705343553290312,0.5960865912797971 l -15.565320867322525 6.903389493979557" fill="#ff7a0b" stroke="none" /><path d="M 119.97218684219823 93.5106431181261 l 17.4588541054488 -5.672725572517054 a39.3573255703666,39.3573255703666 0 0,0 0.20380444425365354,0.6461157828707201 l -17.553914033470658 5.371359623219915" fill="#ff8f0d" stroke="none" /><path d="M 120.37134235888165 94.90015583598534 l 13.654753669582322 -3.4183862106915157 a35.0761380379143,35.0761380379143 0 0,0 0.14158599995899765,0.586965377279826 l -13.711572469802139 3.1828356017522834" fill="#ff4b07" stroke="none" /><path d="M 120.53481517161879 95.60439243477599 l 17.58006132564179 -3.7631237444442753 a38.97831072513006,38.97831072513006 0 0,0 0.1347920175668082,0.6572937480664443 l -17.642232639123595 3.459954340214419" fill="#ff890c" stroke="none" /><path d="M 120.67395015179393 96.31383870115 l 20.863154877984968 -3.719896464801545 a42.19218868289991,42.19218868289991 0 0,0 0.1213289396641828,0.7160902699354856 l -20.924095679169376 3.3602204065502215" fill="#ffba11" stroke="none" /><path d="M 120.83666639777658 97.38593545837742 l 17.81692435965704 -2.2352227232625297 a38.95658693238583,38.95658693238583 0 0,0 0.07774556221529959,0.6660764986459691 l -17.85276027487593 1.928202486291708" fill="#ff880c" stroke="none" /><path d="M 120.87857604477298 97.74499172005257 l 13.563167312128705 -1.4649013671035103 a34.64204689744682,34.64204689744682 0 0,0 0.058929213687039655,0.5934091397855301 l -13.586373651497974 1.2312166966135452" fill="#ff4406" stroke="none" /><line stroke="#e1ed5e" stroke-width="0.3" x1="184.98032266829074" x2="189.97916517819016" y1="98.17113171792111" y2="98.06355123074" /><path d="M 185.9800911702706 98.14961562048488 a86.0,86.0 0 0,1 -9.607161424134198,41.387399972396054" fill="none" id="id52" stroke="none" /><text fill="#e1ed5e" style="font-size:6.75px; font-family:Arial;" text-anchor="middle"><textPath startOffset="21.466115282336823" xlink:href="#id52">April</textPath></text><path d="M 120.99513854157772 99.54816195383933 l 24.956429770936253 -0.5370893097235251 a45.96220847277525,45.96220847277525 0 0,0 0.010214538085548385,0.7911272315416403 l -24.961977316139517 0.10742582012142196" fill="#fff116" stroke="none" /><path d="M 120.9764740272857 100.99374915477107 l 25.709438426039917 1.217970793007571 a46.738272611714976,46.738272611714976 0 0,0 -0.044988144890295526,0.8032935483425417 l -25.68466393026209 -1.660336057685536" fill="#fffc17" stroke="none" /><path d="M 120.89721153311464 102.0752229133903 l 25.025621856609824 2.485199703146101 a46.14871700255392,46.14871700255392 0 0,0 -0.08530414203421043,0.7898104110007497 l -24.979135413074562 -2.9156064360316423" fill="#fff316" stroke="none" /><path d="M 120.81339534386255 102.79330883721812 l 25.37129443942411 3.4050120030129656 a46.59876341295835,46.59876341295835 0 0,0 -0.11353666435604241,0.7940751660686085 l -25.308923724051464 -3.8412326410619833" fill="#fffa17" stroke="none" /><path d="M 120.49622156327973 104.57218783832717 l 20.09724241228153 4.483185696331969 a41.591214305276004,41.591214305276004 0 0,0 -0.16188772950354077,0.697408101705734 l -20.01709411684744 -4.828462455386267" fill="#ffb110" stroke="none" /><path d="M 120.32669344350535 105.2749913415812 l 24.817312563453086 6.440354367392566 a46.63936752827025,46.63936752827025 0 0,0 -0.2083489898109468,0.7753440988131935 l -24.70277549730036 -6.866589399381309" fill="#fffa17" stroke="none" /><path d="M 120.13307415673323 105.97154293290107 l 30.119880719473656 8.933666038777487 a52.41683630551821,52.41683630551821 0 0,0 -0.26401418814535144,0.8628136426177012 l -29.961639758822173 -9.450806653947245" fill="#b5ff20" stroke="none" /><path d="M 119.9155931802556 106.66101706037122 l 25.01253903581717 8.365753795671832 a47.37447526659204,47.37447526659204 0 0,0 -0.265317746219255,0.7711375629972359 l -24.864830458654687 -8.795064061758369" fill="#f9ff18" stroke="none" /><path d="M 119.67450827220406 107.3425965602758 l 24.0671038284814 8.98192886662733 a46.688529207723384,46.688529207723384 0 0,0 -0.2874806620916321,0.7505212933214211 l -23.90892888679626 -9.394873726781896" fill="#fffb17" stroke="none" /><path d="M 119.41010516605496 108.01547362559984 l 23.687931896567086 9.782017755060364 a46.6282264095024,46.6282264095024 0 0,0 -0.312739997072442,0.7392249711775767 l -23.516040918302334 -10.188317251904106" fill="#fffa17" stroke="none" /><path d="M 119.12269723197855 108.67885076344098 l 23.140319244180635 10.502251586286608 a46.41203775977551,46.41203775977551 0 0,0 -0.33643286815362106,0.7246464675298842 l -22.95611175918718 -10.899018121095322" fill="#fff717" stroke="none" /><path d="M 118.81262510543309 109.33194174019688 l 22.98499346999247 11.401631551081584 a46.65749650379428,46.65749650379428 0 0,0 -0.36308714967107436,0.7164053923878443 l -22.78532765053513 -11.795591155172122" fill="#fffa17" stroke="none" /><line stroke="#e1ed5e" stroke-width="0.3" x1="174.80103733775053" x2="179.2010983576182" y1="140.37084112569926" y2="142.7455964860345" /><path d="M 175.68104954172406 140.8457921977663 a86.0,86.0 0 0,1 -30.038265399797805,32.042727171017184" fill="none" id="id53" stroke="none" /><text fill="#e1ed5e" style="font-size:6.75px; font-family:Arial;" text-anchor="middle"><textPath startOffset="22.206326154141568" xlink:href="#id53">May</textPath></text><path d="M 118.48025628344425 109.97397251340804 l 16.533232759449156 8.923145143190073 a39.78750395141833,39.78750395141833 0 0,0 -0.33047044276993504,0.5998998452563271 l -16.377185907227712 -9.206415506844206" fill="#ff950d" stroke="none" /><path d="M 117.75023020441432 111.22182372390056 l 22.384422308083046 14.151593439063413 a47.482635045084706,47.482635045084706 0 0,0 -0.44270804837476274,0.6870927223339948 l -22.137509396331236 -14.534807761318861" fill="#f8ff18" stroke="none" /><path d="M 117.35343817320211 111.8261652097733 l 21.163819575244567 14.422895582339384 a46.61107526037456,46.61107526037456 0 0,0 -0.4575411795414766,0.6591221941631746 l -20.912417488540953 -14.78505903868958" fill="#fffa17" stroke="none" /><path d="M 117.14729908036423 112.12312394758627 l 11.06353269528302 7.821906968233755 a34.549316747323466,34.549316747323466 0 0,0 -0.34750065984051076,0.4826480232518637 l -10.927252243066906 -8.01118859693675" fill="#ff4206" stroke="none" /><path d="M 116.498646956653 112.99209946851258 l 22.969216371891523 18.0874434492379 a50.23594553401939,50.23594553401939 0 0,0 -0.5408308312490352,0.6747696185250416 l -22.654467628587632 -18.48014090134119" fill="#d2ff1c" stroke="none" /><path d="M 116.0416608686014 113.55231037782055 l 16.22529517244111 13.707448246775375 a42.24039408464132,42.24039408464132 0 0,0 -0.4740126316537093,0.5513837790020054 l -15.986940031216623 -13.984709124938908" fill="#ffba11" stroke="none" /><path d="M 115.32070863581623 114.36230785411682 l 18.771119909160564 17.596875530394957 a46.72945726353933,46.72945726353933 0 0,0 -0.5551758783271298,0.5820996888620837 l -18.46543747945447 -17.917382335839548" fill="#fffb17" stroke="none" /><path d="M 114.81725581225074 114.88116024355365 l 22.264422094904734 22.36044495165305 a52.5546191492781,52.5546191492781 0 0,0 -0.646547064766095,0.6327823829923045 l -21.876225077762843 -22.740377437567926" fill="#b3ff20" stroke="none" /><path d="M 114.29624159901734 115.38237550388516 l 17.517170595293354 18.84800938737207 a46.731279088515514,46.731279088515514 0 0,0 -0.593933306795929,0.5425439937352969 l -17.19013773903056 -19.14674614769395" fill="#fffb17" stroke="none" /><path d="M 113.75828350139079 115.86535959552629 l 14.16450267427717 16.33379108640145 a42.62003393299401,42.62003393299401 0 0,0 -0.5583925106868753,0.47587421167416516 l -13.881244687013247 -16.57518968829856" fill="#ffc011" stroke="none" /><path d="M 113.48314897796784 116.09983520530334 l 16.500604092989423 19.702890409293907 a46.69968532714409,46.69968532714409 0 0,0 -0.6207274839223382,0.5108164603561335 l -16.159006480522393 -19.98400198850722" fill="#fffb17" stroke="none" /><path d="M 112.34349029814194 116.9893568818739 l 15.108949531998094 20.79568497315357 a46.704880265488704,46.704880265488704 0 0,0 -0.6544747580106313,0.46695036245800176 l -14.748747446138578 -21.05267959745579" fill="#fffb17" stroke="none" /><path d="M 111.7513745106137 117.40417183066458 l 14.389370769241918 21.31113098104723 a46.71416525625642,46.71416525625642 0 0,0 -0.6702933294739317,0.4442338687972184 l -14.020402741028022 -21.55566287093577" fill="#fffb17" stroke="none" /><path d="M 111.45004920935366 117.60387380957326 l 11.434714251322601 17.580297084170763 a41.97187487033773,41.97187487033773 0 0,0 -0.6090282892952875,0.38871066940444077 l -11.130404159980383 -17.77452218239901" fill="#ffb610" stroke="none" /><line stroke="#e1ed5e" stroke-width="0.3" x1="143.8653032363475" x2="146.44561519142675" y1="172.8068346515853" y2="177.08958963109032" /><path d="M 144.38136562736335 173.6633856474863 a86.0,86.0 0 0,1 -40.68145358897372,12.25698825130547" fill="none" id="id54" stroke="none" /><text fill="#e1ed5e" style="font-size:6.75px; font-family:Arial;" text-anchor="middle"><textPath startOffset="21.466115282336833" xlink:href="#id54">June</textPath></text><path d="M 110.8373102113329 117.98757091392108 l 15.979534627393521 26.522541726370516 a51.9643463766819,51.9643463766819 0 0,0 -0.770141626353966,0.45501324769363777 l -15.520625130011174 -26.7936735463579" fill="#bbff1f" stroke="none" /><path d="M 109.89434966115114 118.52300852407294 l 12.114230269451577 22.678801359191844 a46.71152671684392,46.71152671684392 0 0,0 -0.7124822363943697,0.37273703209147246 l -11.722057130530711 -22.883967810228032" fill="#fffb17" stroke="none" /><path d="M 109.2508944713604 118.85261126421891 l 10.400741167155312 21.195910372902862 a44.61021036251669,44.61021036251669 0 0,0 -0.6922810683328064,0.33233698265098793 l -10.034347430822272 -21.371801632053412" fill="#ffdd14" stroke="none" /><path d="M 108.59647513512805 119.15986991738527 l 15.972104404860517 35.5987120178491 a60.01764237430959,60.01764237430959 0 0,0 -0.9462190736151727,0.414794635057576 l -15.356964656587591 -35.86837120620113" fill="#56ff2a" stroke="none" /><path d="M 107.93186726928326 119.44442032107085 l 13.67993720848048 33.53541354349807 a57.21829156050024,57.21829156050024 0 0,0 -0.9151627714315993,0.36416215355973586 l -13.100653361007014 -33.76592254146388" fill="#78ff26" stroke="none" /><path d="M 107.2578585660854 119.70592522655815 l 8.91121727326053 24.194985292913877 a46.78385360289605,46.78385360289605 0 0,0 -0.7580776314013159,0.2718196675102794 l -8.493420081229479 -24.344792501464116" fill="#fffc17" stroke="none" /><path d="M 106.91757812671514 119.82793768551818 l 6.801539003914197 19.49533334714524 a41.64773486700368,41.64773486700368 0 0,0 -0.6789181047419491,0.23032588237679544 l -6.464951166235021 -19.60952221642016" fill="#ffb110" stroke="none" /><path d="M 106.2309692047433 120.05430185196036 l 9.185211193549367 29.56249530317372 a51.95657011395598,51.95657011395598 0 0,0 -0.8563556742233416,0.25801293985078044 l -8.674980544885779 -29.716223612130225" fill="#bbff1f" stroke="none" /><path d="M 105.53697534728816 120.25689768951611 l 9.574347826943178 35.027532580439974 a57.31247960391958,57.31247960391958 0 0,0 -0.9538694937019532,0.2519256028716038 l -8.969987890429726 -35.18714953261516" fill="#77ff27" stroke="none" /><path d="M 104.83641907484287 120.43548508189849 l 5.025145865987034 21.23291877515357 a42.81946219975909,42.81946219975909 0 0,0 -0.7187141732975749,0.16357700591007357 l -4.658911543296598 -21.31627251464133" fill="#ffc312" stroke="none" /><path d="M 104.48393922423573 120.51570834832081 l 4.390972342225131 20.090349898528878 a41.56460058341774,41.56460058341774 0 0,0 -0.7002814566043168,0.14675078794050203 l -4.044499424191436 -20.16295666719592" fill="#ffb010" stroke="none" /><path d="M 103.7750983002368 120.6578951692458 l 5.473990870338816 29.95448609901743 a51.45054701486956,51.45054701486956 0 0,0 -0.8725792970319735,0.15170909557297738 l -4.957562601834793 -30.044273773111414" fill="#c2ff1e" stroke="none" /><path d="M 103.06178313531738 120.77559828337769 l 6.092517576980048 41.34051698623474 a62.78704482390414,62.78704482390414 0 0,0 -1.070583123586237,0.1483730657534134 l -5.38000586220698 -41.43926461748075" fill="#36ff2e" stroke="none" /><path d="M 102.34483914955558 120.86867818915974 l 2.8743735707574802 25.581446409632203 a46.74242459119097,46.74242459119097 0 0,0 -0.8003358208863315,0.08295808021060838 l -2.433605153265546 -25.62713385829857" fill="#fffc17" stroke="none" /><line stroke="#e1ed5e" stroke-width="0.3" x1="102.19456741930631" x2="102.32365962044197" y1="184.97166512339345" y2="189.96999836594603" /><path d="M 102.22038585953345 185.97133177190398 a86.0,86.0 0 0,1 -42.740103519485714,-10.115201625700543" fill="none" id="id55" stroke="none" /><text fill="#e1ed5e" style="font-size:6.75px; font-family:Arial;" text-anchor="middle"><textPath startOffset="22.20632615414155" xlink:href="#id55">July</textPath></text><path d="M 100.54218724476979 120.99299961872073 l 0.6655792708150764 25.770627238532438 a46.77922078017737,46.77922078017737 0 0,0 -0.8051379078746028,0.013861179246088583 l -0.22188167304780562 -25.778265895057686" fill="#fffc17" stroke="none" /><path d="M 100.18074693466247 120.99922214144158 l 0.19959419878609067 23.188901799520348 a44.18976076875281,44.18976076875281 0 0,0 -0.7606822668970763,0.0 l 0.1995941987860747 -23.188901799520348" fill="#ffd714" stroke="none" /><path d="M 99.45781275523022 120.99299961872073 l -0.6802584288995324 26.338990959817224 a47.34777402953468,47.34777402953468 0 0,0 -0.8145612928751791,-0.02805513792025056 l 1.1335400734493544 -26.32337902347088" fill="#faff18" stroke="none" /><path d="M 98.73552117531835 120.96189622390904 l -1.3051544668768473 21.636196634397347 a42.675526129363405,42.675526129363405 0 0,0 -0.7328754250285834,-0.05054338016551415 l 1.6773926526843608 -21.610524909715547" fill="#ffc111" stroke="none" /><path d="M 98.01472825383883 120.90594882070398 l -2.7247671628404855 28.693221955546488 a49.82230633176236,49.82230633176236 0 0,0 -0.8530703485158333,-0.08842422961787304 l 3.2182701079619123 -28.642068357472855" fill="#d8ff1c" stroke="none" /><path d="M 96.22490169976321 120.6578951692458 l -4.646908918453297 25.428571566578878 a46.849681127879016,46.849681127879016 0 0,0 -0.7920549546374441,-0.15179921716294228 l 5.083931487662436 -25.344815151067465" fill="#fffd17" stroke="none" /><path d="M 95.16358092515715 120.4354850818985 l -5.921157321943956 25.018866282610443 a46.709993661966394,46.709993661966394 0 0,0 -0.780828087842798,-0.19190854653876652 l 6.350938694529964 -24.913236477757646" fill="#fffb17" stroke="none" /><path d="M 94.46302465271185 120.25689768951611 l -6.795592948623575 24.861521402165096 a46.7735393369575,46.7735393369575 0 0,0 -0.7748122139409664,-0.21896967104973472 l 7.222536330669155 -24.74086293777684" fill="#fffc17" stroke="none" /><path d="M 93.08242187328487 119.8279376855182 l -5.923385193371122 16.978270479939663 a38.981884234947096,38.981884234947096 0 0,0 -0.6316558426166157,-0.22648931192388566 l 6.214760596617465 -16.87379362697582" fill="#ff890c" stroke="none" /><path d="M 92.40401165467489 119.57807347666478 l -5.012448365330956 12.91919865238254 a34.85750094478914,34.85750094478914 0 0,0 -0.557519043295509,-0.2218483332090278 l 5.234088484668323 -12.831003474767448" fill="#ff4706" stroke="none" /><line stroke="#e1ed5e" stroke-width="0.3" x1="58.666819895761336" x2="56.23545636021788" y1="174.27360380694188" y2="178.64263932499728" /><path d="M 58.180547188652646 175.14741091055294 a86.0,86.0 0 0,1 -31.652253787137756,-30.449443065178592" fill="none" id="id56" stroke="none" /><text fill="#e1ed5e" style="font-size:6.75px; font-family:Arial;" text-anchor="middle"><textPath startOffset="22.20632615414155" xlink:href="#id56">August</textPath></text><path d="M 89.7882731507175 118.34994917583269 l -10.092712745987741 18.136086938926166 a41.755252348003665,41.755252348003665 0 0,0 -0.6250388125291004,-0.35491335026499365 l 10.40340032543805 -17.959670422866537" fill="#ffb310" stroke="none" /><path d="M 88.54995079064634 117.60387380957326 l -11.342318317124276 17.438242990218374 a41.802415806652675,41.802415806652675 0 0,0 -0.5998155017303334,-0.39752500760724235 l 11.640808517594571 -17.240419961519812" fill="#ffb410" stroke="none" /><path d="M 87.07902340077011 116.55440617244103 l -19.874925946057854 25.463833498300637 a53.302004547558056,53.302004547558056 0 0,0 -0.7184158576348387,-0.5707530065852432 l 20.310299296410047 -25.117946577710264" fill="#aaff21" stroke="none" /><path d="M 86.51685102203217 116.09983520530335 l -16.51805524233502 19.723728318084095 a46.72686548638259,46.72686548638259 0 0,0 -0.6121987555544695,-0.5217290608518895 l 16.855119474466548 -19.436474867009252" fill="#fffb17" stroke="none" /><path d="M 86.24171649860922 115.8653595955263 l -14.201960227469156 16.376985250186465 a42.67720738903978,42.67720738903978 0 0,0 -0.5508563533043196,-0.486066684821095 l 14.481758933680064 -16.13009542359308" fill="#ffc111" stroke="none" /><path d="M 85.70375840098266 115.38237550388516 l -19.256297556018954 20.719263714848644 a49.28591318043993,49.28591318043993 0 0,0 -0.6164592029441376,-0.5829006538270705 l 19.610092593353908 -20.384728424275643" fill="#dfff1b" stroke="none" /><path d="M 85.18274418774928 114.88116024355367 l -31.58903896974623 31.725277393132217 a65.77008609220371,65.77008609220371 0 0,0 -0.7953776168580867,-0.8057133266156897 l 32.13045721165985 -31.176823572535863" fill="#33ff50" stroke="none" /><path d="M 84.43433777217949 114.09645910891817 l -19.047832539818206 17.249956255068014 a46.69787764129009,46.69787764129009 0 0,0 -0.5344486491089906,-0.6004587229251854 l 19.341940038575533 -16.919523362401964" fill="#fffb17" stroke="none" /><path d="M 83.72743513129214 113.27417163493432 l -20.866320837278344 17.021479184039258 a47.9283140745372,47.9283140745372 0 0,0 -0.5159873008410364,-0.6437734944736333 l 21.15622605017424 -16.659777855987365" fill="#f2ff19" stroke="none" /><path d="M 83.50135304334701 112.99209946851258 l -24.335654435851612 19.163464973377064 a51.97519114722351,51.97519114722351 0 0,0 -0.5474551407406496,-0.7076595671029171 l 24.66191639381033 -18.74172741216089" fill="#bbff1f" stroke="none" /><path d="M 83.06392112726016 112.41649034213515 l -20.80232601986867 15.250984720872449 a46.79397803350987,46.79397803350987 0 0,0 -0.47065875027662946,-0.6537038391566395 l 21.061764562520906 -14.890647276264671" fill="#fffc17" stroke="none" /><path d="M 82.6465618267979 111.8261652097733 l -14.883889007622264 10.143196328661025 a39.01151253373745,39.01151253373745 0 0,0 -0.37339013678626654,-0.558167592256431 l 15.05628224981926 -9.885491822198773" fill="#ff890c" stroke="none" /><path d="M 82.05923443525364 110.91462005526583 l -28.038376098060112 17.057701410374538 a53.81944106199498,53.81944106199498 0 0,0 -0.47468522590063483,-0.7955997424526463 l 28.32784219965898 -16.57253957403578" fill="#a3ff22" stroke="none" /><line stroke="#e1ed5e" stroke-width="0.3" x1="26.63291911575756" x2="22.317208475507996" y1="142.92168965132927" y2="145.44649492493687" /><path d="M 25.769776987707644 143.4266507060508 a86.0,86.0 0 0,1 -11.730757126820373,-40.83630448921669" fill="none" id="id57" stroke="none" /><text fill="#e1ed5e" style="font-size:6.75px; font-family:Arial;" text-anchor="middle"><textPath startOffset="21.46611528233685" xlink:href="#id57">September</textPath></text><path d="M 81.69416730710424 110.29060199501025 l -24.845708717887696 13.966985495227622 a49.502384558454395,49.502384558454395 0 0,0 -0.41116112644749614,-0.7463768743245262 l 25.08244625378671 -13.537238102505274" fill="#dcff1b" stroke="none" /><path d="M 81.51974371655577 109.97397251340807 l -21.049031553769755 11.360365296407615 a44.919022325743526,44.919022325743526 0 0,0 -0.36137886452022444,-0.683592622491367 l 21.241462926514863 -10.99635765883012" fill="#ffe215" stroke="none" /><path d="M 80.87730276802145 108.67885076344099 l -41.60686134910997 18.88330584350026 a66.69146693752819,66.69146693752819 0 0,0 -0.4654394786687544,-1.0494431519642173 l 41.925741912510006 -18.164314355043345" fill="#34ff5d" stroke="none" /><path d="M 80.58989483394504 108.01547362559985 l -23.768068178755847 9.81511032467 a46.71492670873145,46.71492670873145 0 0,0 -0.3005268796908262,-0.7458830693626033 l 23.93349767270406 -9.404527887464592" fill="#fffb17" stroke="none" /><path d="M 80.32549172779594 107.34259656027581 l -22.953903245052093 8.566478444095937 a45.50033116340212,45.50033116340212 0 0,0 -0.2675327149956236,-0.7361351309389091 l 23.09796022105294 -8.17009551615091" fill="#ffea16" stroke="none" /><path d="M 80.20201598880116 107.00284435728193 l -16.976994027743583 6.005017822195631 a39.00773626147741,39.00773626147741 0 0,0 -0.21846035469038355,-0.6349480497555448 l 17.077845213377195 -5.71189706935079" fill="#ff890c" stroke="none" /><path d="M 80.0844068197444 106.66101706037122 l -9.05614013125693 3.0289383484303882 a30.54924822148605,30.54924822148605 0 0,0 -0.16250417866514552,-0.5001364353999065 l 9.106936560938324 -2.8726030130526783" fill="#ff0000" stroke="none" /><path d="M 79.97269907076064 106.31721596034903 l -29.04833566900085 9.162722942954137 a51.45917426438683,51.45917426438683 0 0,0 -0.25919061648160335,-0.8470499313305878 l 29.201753057988583 -8.661346039071502" fill="#c2ff1e" stroke="none" /><path d="M 79.76711848015287 105.62410040840567 l -27.292465336311754 7.586441174668056 a49.32724402109174,49.32724402109174 0 0,0 -0.22035636430368089,-0.8200280061536102 l 27.41900977695721 -7.115522235338907" fill="#deff1b" stroke="none" /><path d="M 79.58551787078972 104.9243191809786 l -22.584249356999354 5.447703820884421 a44.23199939607447,44.23199939607447 0 0,0 -0.17216659992357872,-0.7416892064522265 l 22.67467652285349 -5.05814595708362" fill="#ffd814" stroke="none" /><path d="M 79.35854240842038 103.8639653848113 l -61.92437277473888 11.591896154433886 a84.0,84.0 0 0,0 -0.25381423064324515,-1.4235249970671453 l 62.11473344772131 -10.524252406633527" fill="#4dd2ff" stroke="none" /><path d="M 79.18660465613746 102.79330883721812 l -17.860691661535107 2.3970345555227133 a39.02082354635325,39.02082354635325 0 0,0 -0.08361324607290227,-0.6664798390076546 l 17.89930641685486 -2.08923696222765" fill="#ff890c" stroke="none" /><path d="M 79.1416061653843 102.43462659150553 l -26.89111336768694 3.138775698611539 a48.07367524072019,48.07367524072019 0 0,0 -0.08886235386812492,-0.8227550334300628 l 26.941158023056115 -2.675424343296694" fill="#f0ff19" stroke="none" /><path d="M 79.07016306316243 101.71520430193888 l -28.699177273831033 2.3519032886273057 a49.79538548576552,49.79538548576552 0 0,0 -0.0626554974842825,-0.8548844831484653 l 28.73540932997965 -1.85754566898208" fill="#d8ff1c" stroke="none" /><path d="M 79.0235259727143 100.99374915477108 l -25.684917727055716 1.2168091381051371 a46.71372441176496,46.71372441176496 0 0,0 -0.031137738492452428,-0.8035266730593905 l 25.702057598399367 -0.7745052180317499" fill="#fffb17" stroke="none" /><line stroke="#e1ed5e" stroke-width="0.3" x1="15.007084014347285" x2="10.007500721073583" y1="101.09737516637583" y2="101.16192664675087" /><path d="M 14.007167355692545 101.11028546245083 a86.0,86.0 0 0,1 10.666146001902534,-42.60595125391555" fill="none" id="id58" stroke="none" /><text fill="#e1ed5e" style="font-size:6.75px; font-family:Arial;" text-anchor="middle"><textPath startOffset="22.20632615414155" xlink:href="#id58">October</textPath></text><path d="M 79.00175016825051 100.2711162175752 l -44.8980537369502 0.5796954795368311 a65.90179591302628,65.90179591302628 0 0,0 -0.004882076310881629,-1.1344225996149886 l 44.90138011055058 0.19323659828183287" fill="#33ff52" stroke="none" /><line stroke="#e1ed5e" stroke-width="0.3" x1="26.266209847984243" x2="21.928928074336255" y1="57.711370442889674" y2="55.22380399835377" /><path d="M 25.398753493254645 57.213857153982495 a86.0,86.0 0 0,1 29.58750427330803,-30.492523968695096" fill="none" id="id59" stroke="none" /><text fill="#e1ed5e" style="font-size:6.75px; font-family:Arial;" text-anchor="middle"><textPath startOffset="21.46611528233685" xlink:href="#id59">November</textPath></text><line stroke="#e1ed5e" stroke-width="0.3" x1="56.762969772571076" x2="54.21961505331055" y1="26.818313649435495" y2="22.513508569990535" /><path d="M 56.25429882871897 25.957352633546506 a86.0,86.0 0 0,1 42.265352541879196,-11.944610805530505" fill="none" id="id60" stroke="none" /><text fill="#e1ed5e" style="font-size:6.75px; font-family:Arial;" text-anchor="middle"><textPath startOffset="22.20632615414155" xlink:href="#id60">December</textPath></text></svg>