<?xml version="1.0" encoding="utf-8" ?>
<svg baseProfile="full" height="200mm" version="1.1" viewBox="0,0,200,200" width="200mm" xmlns="http://www.w3.org/2000/svg" xmlns:ev="http://www.w3.org/2001/xml-events" xmlns:xlink="http://www.w3.org/1999/xlink"><defs /><rect fill="#1a1a1a" height="200" width="200" x="0" y="0" /><text alignment-baseline="middle" fill="#e1ed5e" style="dominant-baseline: central; font-size:9.0px; font-family:Arial;" text-anchor="middle" x="100.0" y="100.0">2025</text><line stroke="#e1ed5e" stroke-width="0.3" x1="100.0" x2="100.0" y1="15.0" y2="10.0" /><path d="M 100.0 14.0 a86.0,86.0 0 0,1 42.46469731375804,11.215312516191453" fill="none" id="id49" stroke="none" /><text fill="#e1ed5e" style="font-size:6.75px; font-family:Arial;" text-anchor="middle"><textPath startOffset="22.20632615414155" xlink:href="#id49">January</textPath></text><line stroke="#e1ed5e" stroke-width="0.3" x1="143.23703022742887" x2="145.7803849466894" y1="26.81831364943548" y2="22.513508569990506" /><path d="M 143.74570117128098 25.957352633546492 a86.0,86.0 0 0,1 28.547481713284135,27.462654790039103" fill="none" id="id50" stroke="none" /><text fill="#e1ed5e" style="font-size:6.75px; font-family:Arial;" text-anchor="middle"><textPath startOffset="19.985693538727396" xlink:href="#id50">February</textPath></text><line stroke="#e1ed5e" stroke-width="0.3" x1="172.23445277983987" x2="176.4835382374775" y1="55.19839476539836" y2="52.563006222186495" /><path d="M 173.08426987136738 54.67131705675599 a86.0,86.0 0 0,1 12.851231095245387,41.99856678651699" fill="none" id="id51" stroke="none" /><text fill="#e1ed5e" style="font-size:6.75px; font-family:Arial;" text-anchor="middle"><textPath startOffset="22.20632615414155" xlink:href="#id51">March</textPath></text><path d="M 117.84615892207809 88.93136811851018 l 21.229508002341216 -13.167069178810996 a45.98126739741329,45.98126739741329 0 0,0 0.41138827232146064,0.676214152433513 l -21.4530120729489 12.7996872531704" fill="red" stroke="none" /><path d="M 119.04729006885535 91.15688171328212 l 21.294645794962424 -9.886502014610668 a44.47775248225033,44.47775248225033 0 0,0 0.3164225317869496,0.6971951053965295 l -21.46167064371272 9.518484900372076" fill="red" stroke="none" /><path d="M 119.97218684219823 93.5106431181261 l 24.072499360703986 -7.821629179846772 a46.31132372078008,46.31132372078008 0 0,0 0.23981440447953464,0.7602771973957695 l -24.203569248951727 7.4061018160245835" fill="red" stroke="none" /><path d="M 120.37134235888165 94.90015583598534 l 18.827355277515274 -4.713316199018403 a40.40836562768003,40.40836562768003 0 0,0 0.16310971429978055,0.6761950688606282 l -18.905697792075873 4.388535898498369" fill="red" stroke="none" /><path d="M 120.53481517161879 95.60439243477599 l 24.239621481834355 -5.188644878137384 a45.78873303043193,45.78873303043193 0 0,0 0.15834333484905733,0.7721383352147818 l -24.32534411259841 4.770630886759191" fill="red" stroke="none" /><path d="M 120.67395015179393 96.31383870115 l 28.766394370969568 -5.129042532228564 a50.220070540701286,50.220070540701286 0 0,0 0.1444141225845732,0.8523403263089078 l -28.850420355074363 4.633116417603818" fill="red" stroke="none" /><path d="M 120.83666639777658 97.38593545837742 l 24.566211371438115 -3.0819547062928545 a45.75877997716802,45.75877997716802 0 0,0 0.0913206817061693,0.7823798322579776 l -24.61562240614787 2.6586311357100243" fill="red" stroke="none" /><path d="M 120.87857604477298 97.74499172005257 l 18.701074794389918 -2.019825414091067 a39.809835011737185,39.809835011737185 0 0,0 0.06772008251121428,0.681931989159103 l -18.73307200258336 1.697617894227529" fill="red" stroke="none" /><line stroke="#e1ed5e" stroke-width="0.3" x1="184.98032266829074" x2="189.97916517819016" y1="98.17113171792111" y2="98.06355123074" /><path d="M 185.9800911702706 98.14961562048488 a86.0,86.0 0 0,1 -9.607161424134198,41.387399972396054" fill="none" id="id52" stroke="none" /><text fill="#e1ed5e" style="font-size:6.75px; font-family:Arial;" text-anchor="middle"><textPath startOffset="21.466115282336823" xlink:href="#id52">April</textPath></text><path d="M 120.99513854157772 99.54816195383933 l 34.4102560269876 -0.7405458563815716 a55.418223777647796,55.418223777647796 0 0,0 0.012316021710434716,0.9538894542052958 l -34.41790505581575 0.14812014411581306" fill="red" stroke="none" /><path d="M 120.9764740272857 100.99374915477107 l 35.4485143375906 1.679354266834752 a56.4882712948363,56.4882712948363 0 0,0 -0.054373052139232,0.9708673716963924 l -35.41435493456384 -2.289293354866568" fill="red" stroke="none" /><path d="M 120.89721153311464 102.0752229133903 l 34.50565899147098 3.426626278212339 a55.67538420964096,55.67538420964096 0 0,0 -0.10291382276490188,0.9528541840677317 l -34.44156286720503 -4.020076784164862" fill="red" stroke="none" /><path d="M 120.81339534386255 102.79330883721812 l 34.98227692862488 4.694875664270403 a56.29591416317133,56.29591416317133 0 0,0 -0.13716351771650545,0.959321323442527 l -34.89627935989177 -5.2963424596933395" fill="red" stroke="none" /><path d="M 120.49622156327973 104.57218783832717 l 27.710344115343286 6.181475837820703 a49.39143910625704,49.39143910625704 0 0,0 -0.1922489657343339,0.8282035127606138 l -27.5998345836784 -6.657548007929882" fill="red" stroke="none" /><path d="M 120.32669344350535 105.2749913415812 l 34.21843937808414 8.880045932875918 a56.351899655345335,56.351899655345335 0 0,0 -0.25173714802205177,0.9368075763077502 l -34.06051415372031 -9.467744442359216" fill="red" stroke="none" /><path d="M 120.13307415673323 105.97154293290107 l 41.52969060768557 12.31785710037501 a64.31795015366431,64.31795015366431 0 0,0 -0.323957960644893,1.0587133594696678 l -41.31150587453455 -13.030897432396735" fill="red" stroke="none" /><path d="M 119.9155931802556 106.66101706037122 l 34.48762022482198 11.534812175059427 a57.3654759447123,57.3654759447123 0 0,0 -0.32127171230493795,0.9337659799131794 l -34.28395768157381 -12.126750858061907" fill="red" stroke="none" /><path d="M 119.67450827220406 107.3425965602758 l 33.184041634456506 12.384402526870016 a56.41968443034025,56.41968443034025 0 0,0 -0.34739942573200744,0.9069502776378032 l -32.96594792913099 -12.953776371340963" fill="red" stroke="none" /><path d="M 119.41010516605496 108.01547362559984 l 32.66123435091574 13.48757568697447 a56.33653813317461,56.33653813317461 0 0,0 -0.3778545770990341,0.8931366038244488 l -32.4242287926244 -14.047786816465083" fill="red" stroke="none" /><path d="M 119.12269723197855 108.67885076344098 l 31.906178770242082 14.480643636167084 a56.03845435855173,56.03845435855173 0 0,0 -0.4062131041159124,0.8749468878514411 l -31.652191049286337 -15.027710591297355" fill="red" stroke="none" /><path d="M 118.81262510543309 109.33194174019688 l 31.692013534811284 15.720720647910946 a56.37689612699671,56.37689612699671 0 0,0 -0.43872320754262567,0.8656425101630846 l -31.416711657482388 -16.263917369776724" fill="red" stroke="none" /><line stroke="#e1ed5e" stroke-width="0.3" x1="174.80103733775053" x2="179.2010983576182" y1="140.37084112569926" y2="142.7455964860345" /><path d="M 175.68104954172406 140.8457921977663 a86.0,86.0 0 0,1 -30.038265399797805,32.042727171017184" fill="none" id="id53" stroke="none" /><text fill="#e1ed5e" style="font-size:6.75px; font-family:Arial;" text-anchor="middle"><textPath startOffset="22.206326154141568" xlink:href="#id53">May</textPath></text><path d="M 118.48025628344425 109.97397251340804 l 22.796240384871407 12.303350750143066 a46.9044593721986,46.9044593721986 0 0,0 -0.38958305792546066,0.7072064121833551 l -22.581080917494436 -12.693927680724226" fill="red" stroke="none" /><path d="M 117.75023020441432 111.22182372390056 l 30.863938059536537 19.51240453452655 a57.51460808035491,57.51460808035491 0 0,0 -0.5362419308051665,0.8322593849810916 l -30.52349126535432 -20.040785519429093" fill="red" stroke="none" /><path d="M 117.35343817320211 111.8261652097733 l 29.18095483919119 19.886479524278037 a56.31288990151394,56.31288990151394 0 0,0 -0.5527756209226945,0.796314509893091 l -28.83431831110636 -20.385835296358145" fill="red" stroke="none" /><path d="M 117.14729908036423 112.12312394758627 l 15.254545465914 10.784948963719673 a39.68197745212416,39.68197745212416 0 0,0 -0.39912550078020537,0.554350412080913 l -15.066640172758191 -11.045932981251719" fill="red" stroke="none" /><path d="M 116.498646956653 112.99209946851258 l 31.670259862911916 24.93920667637975 a61.310909062331426,61.310909062331426 0 0,0 -0.6600618254584222,0.8235286164047005 l -31.23628012539864 -25.480663126362703" fill="red" stroke="none" /><path d="M 116.0416608686014 113.55231037782055 l 22.371651959902874 18.900011258722913 a50.28653678731712,50.28653678731712 0 0,0 -0.5643047172226603,0.6564138732028526 l -22.043004733109434 -19.282302231087293" fill="red" stroke="none" /><path d="M 115.32070863581623 114.36230785411682 l 25.88186883765414 24.262805130126885 a56.47611657597325,56.47611657597325 0 0,0 -0.6709724328220569,0.7035119133014909 l -25.46038985345312 -24.704724160010883" fill="red" stroke="none" /><path d="M 114.81725581225074 114.88116024355365 l 30.69848017567017 30.83087776280422 a64.50792696418654,64.50792696418654 0 0,0 -0.7936012382541133,0.7767058425510861 l -30.163228985040263 -31.354733708277877" fill="red" stroke="none" /><path d="M 114.29624159901734 115.38237550388516 l 24.152906909562727 25.987885068955013 a56.47862853238859,56.47862853238859 0 0,0 -0.7178176857518165,0.6557094366412257 l -23.701989674344045 -26.39978727218282" fill="red" stroke="none" /><path d="M 113.75828350139079 115.86535959552629 l 19.53020395907947 22.521247563581937 a50.80998924024275,50.80998924024275 0 0,0 -0.6656943892733117,0.5673192004700681 l -19.13964409322911 -22.85409115427495" fill="red" stroke="none" /><path d="M 113.48314897796784 116.09983520530334 l 22.751251547245033 27.16660634867913 a56.435066635609886,56.435066635609886 0 0,0 -0.7501291855033132,0.617305251134285 l -22.28025223319703 -27.554206718670596" fill="red" stroke="none" /><path d="M 112.34349029814194 116.9893568818739 l 20.832419799900908 28.673365972249304 a56.44222948542949,56.44222948542949 0 0,0 -0.7909240806116101,0.5643033311795868 l -20.335768391440414 -29.02771356527311" fill="red" stroke="none" /><path d="M 111.7513745106137 117.40417183066458 l 19.84025506779411 29.38406975730614 a56.45503175372098,56.45503175372098 0 0,0 -0.8100633071826127,0.5368657885985969 l -19.331517061871534 -29.721233566996055" fill="red" stroke="none" /><path d="M 111.45004920935366 117.60387380957326 l 15.766335513330645 24.239946548817773 a49.91629893690501,49.91629893690501 0 0,0 -0.7243049838352579,0.46228570998787966 l -15.346748727448457 -24.50774668762946" fill="red" stroke="none" /><line stroke="#e1ed5e" stroke-width="0.3" x1="143.8653032363475" x2="146.44561519142675" y1="172.8068346515853" y2="177.08958963109032" /><path d="M 144.38136562736335 173.6633856474863 a86.0,86.0 0 0,1 -40.68145358897372,12.25698825130547" fill="none" id="id54" stroke="none" /><text fill="#e1ed5e" style="font-size:6.75px; font-family:Arial;" text-anchor="middle"><textPath startOffset="21.466115282336833" xlink:href="#id54">June</textPath></text><path d="M 110.8373102113329 117.98757091392108 l 22.03279406420066 36.569631941253135 a63.69405104454481,63.69405104454481 0 0,0 -0.943982624258123,0.5577215734507474 l -21.400043568914157 -36.94347208699763" fill="red" stroke="none" /><path d="M 109.89434966115114 118.52300852407294 l 16.703261202336364 31.269831795564134 a56.45139370061985,56.45139370061985 0 0,0 -0.8610426174936674,0.4504568020854011 l -16.162527682316203 -31.552718016594252" fill="red" stroke="none" /><path d="M 109.2508944713604 118.85261126421891 l 14.340679725312231 29.225202056187683 a53.55407086999993,53.55407086999993 0 0,0 -0.8310758701690826,0.39896692207861784 l -13.835491187142917 -29.46772325476586" fill="red" stroke="none" /><path d="M 108.59647513512805 119.15986991738527 l 22.022549174925835 49.08397579335455 a74.79804226776884,74.79804226776884 0 0,0 -1.1792421605206533,0.5169451084396619 l -21.174386339747425 -49.455785455088666" fill="red" stroke="none" /><path d="M 107.93186726928326 119.44442032107085 l 18.86207867461595 46.2390725193616 a70.93826027584645,70.93826027584645 0 0,0 -1.1346031680434918,0.45148201610526123 l -18.063354430530595 -46.55690137987293" fill="red" stroke="none" /><path d="M 107.2578585660854 119.70592522655815 l 12.286904445046567 33.360366291974316 a56.55111896939956,56.55111896939956 0 0,0 -0.9163447433232106,0.32856862297134265 l -11.710840141093621 -33.56692245598562" fill="red" stroke="none" /><path d="M 106.91757812671514 119.82793768551818 l 9.378052095207586 26.880423921372863 a49.46937040563317,49.46937040563317 0 0,0 -0.8064220372565545,0.2735821389971726 l -8.913960325013806 -27.03786904726816" fill="red" stroke="none" /><path d="M 106.2309692047433 120.05430185196036 l 12.66469089260794 40.76116021064431 a63.68332903046715,63.68332903046715 0 0,0 -1.049637804209556,0.31624726009813797 l -11.96117811395814 -40.97312283984818" fill="red" stroke="none" /><path d="M 105.53697534728816 120.25689768951611 l 13.201237638575389 48.29642601724482 a71.06812799805223,71.06812799805223 0 0,0 -1.1828090450864313,0.31239061919144706 l -12.36793815067746 -48.51650798573985" fill="red" stroke="none" /><path d="M 104.83641907484287 120.43548508189849 l 6.9287377004120705 29.276229731551723 a51.08496357677211,51.08496357677211 0 0,0 -0.8574485871338913,0.19515250681874652 l -6.423768963885317 -29.39115897194815" fill="red" stroke="none" /><path d="M 104.48393922423573 120.51570834832081 l 6.054330843402517 27.70084062605915 a49.35474375394185,49.35474375394185 0 0,0 -0.8315299885290333,0.1742551939108993 l -5.576609393444105 -27.80095180069659" fill="red" stroke="none" /><path d="M 103.7750983002368 120.6578951692458 l 7.547611139359091 41.30164231361375 a62.985617676922026,62.985617676922026 0 0,0 -1.0682091675287624,0.18572185615654535 l -6.835553000358279 -41.4254427482913" fill="red" stroke="none" /><path d="M 103.06178313531738 120.77559828337769 l 8.400443957611033 57.000852559488514 a78.6165310583127,78.6165310583127 0 0,0 -1.3404920015263966,0.1857799768206225 l -7.418023364897807 -57.13700710180174" fill="red" stroke="none" /><path d="M 102.34483914955558 120.86867818915974 l 3.963224363212305 35.272037249544574 a56.493996099149214,56.493996099149214 0 0,0 -0.967304737368776,0.10026509109872439 l -3.3554870292379264 -35.335031709099056" fill="red" stroke="none" /><line stroke="#e1ed5e" stroke-width="0.3" x1="102.19456741930631" x2="102.32365962044197" y1="184.97166512339345" y2="189.96999836594603" /><path d="M 102.22038585953345 185.97133177190398 a86.0,86.0 0 0,1 -42.740103519485714,-10.115201625700543" fill="none" id="id55" stroke="none" /><text fill="#e1ed5e" style="font-size:6.75px; font-family:Arial;" text-anchor="middle"><textPath startOffset="22.20632615414155" xlink:href="#id55">July</textPath></text><path d="M 100.54218724476979 120.99299961872073 l 0.917709517155157 35.532882282973034 a56.544731172052714,56.544731172052714 0 0,0 -0.9732164366553552,0.016754803545805098 l -0.30593339060713387 -35.543414563797995" fill="red" stroke="none" /><path d="M 100.18074693466247 120.99922214144158 l 0.2752031257984373 31.97316504123632 a52.97434939939491,52.97434939939491 0 0,0 -0.9119001209217635,0.0 l 0.2752031257984153 -31.97316504123632" fill="red" stroke="none" /><path d="M 99.45781275523022 120.99299961872073 l -0.937949334812689 36.316549712383846 a57.328659925281066,57.328659925281066 0 0,0 -0.9862703855604538,-0.033969146257723404 l 1.5629400720477857 -36.29502376770002" fill="red" stroke="none" /><path d="M 98.73552117531835 120.96189622390904 l -1.7995642715009224 29.832274587084484 a50.88650261583763,50.88650261583763 0 0,0 -0.873884181761497,-0.06026816961106035 l 2.3128112140413495 -29.79687807295714" fill="red" stroke="none" /><path d="M 98.01472825383883 120.90594882070398 l -3.7569450657746173 39.562594601547275 a60.74057784976995,60.74057784976995 0 0,0 -1.0400158027675044,-0.10780189032490269 l 4.437393465147715 -39.49206334276661" fill="red" stroke="none" /><path d="M 96.22490169976321 120.6578951692458 l -6.407219585723268 35.06125139043597 a56.641882833024184,56.641882833024184 0 0,0 -0.9576048941599586,-0.1835272570846082 l 7.009792094454921 -34.945766935002894" fill="red" stroke="none" /><path d="M 95.16358092515715 120.4354850818985 l -8.164170167539154 34.49634431653304 a56.449279904242594,56.449279904242594 0 0,0 -0.9436349661426409,-0.23192251615319842 l 8.756758418425006 -34.350700542065816" fill="red" stroke="none" /><path d="M 94.46302465271185 120.25689768951611 l -9.369853595390952 34.2793951106428 a56.536897522865196,56.536897522865196 0 0,0 -0.9365440238222983,-0.26467669601758287 l 9.958528787317864 -34.1130296212867" fill="red" stroke="none" /><path d="M 93.08242187328487 119.8279376855182 l -8.16724198618099 23.409864290386114 a45.793660233114686,45.793660233114686 0 0,0 -0.742032705928442,-0.2660665280868106 l 8.56899425273916 -23.265810221259347" fill="red" stroke="none" /><path d="M 92.40401165467489 119.57807347666478 l -6.911230218272644 17.813162274105157 a40.106905906859126,40.106905906859126 0 0,0 -0.6414792571088709,-0.2552578350266995 l 7.2168305514233735 -17.691557594672393" fill="red" stroke="none" /><line stroke="#e1ed5e" stroke-width="0.3" x1="58.666819895761336" x2="56.23545636021788" y1="174.27360380694188" y2="178.64263932499728" /><path d="M 58.180547188652646 175.14741091055294 a86.0,86.0 0 0,1 -31.652253787137756,-30.449443065178592" fill="none" id="id56" stroke="none" /><text fill="#e1ed5e" style="font-size:6.75px; font-family:Arial;" text-anchor="middle"><textPath startOffset="22.20632615414155" xlink:href="#id56">August</textPath></text><path d="M 89.7882731507175 118.34994917583269 l -13.915966057001038 25.00627696446112 a49.6176169329828,49.6176169329828 0 0,0 -0.7427313840625871,-0.42174226396914455 l 14.344346207984831 -24.76303153469734" fill="red" stroke="none" /><path d="M 88.54995079064634 117.60387380957326 l -15.638938775063234 24.044080481938447 a49.68264653465767,49.68264653465767 0 0,0 -0.7128875444977008,-0.47246299192341373 l 16.050501018300896 -23.771319468923714" fill="red" stroke="none" /><path d="M 87.07902340077011 116.55440617244103 l -27.403811226144484 35.10987100909492 a65.53843185377598,65.53843185377598 0 0,0 -0.8833410512031104,-0.7017795549142892 l 28.004109770064954 -34.6329575401755" fill="red" stroke="none" /><path d="M 86.51685102203217 116.09983520530335 l -22.77531342318077 27.19533793340975 a56.472542999289935,56.472542999289935 0 0,0 -0.7398831525995865,-0.6305444740675762 l 23.240062052357413 -26.799269069119223" fill="red" stroke="none" /><path d="M 86.24171649860922 115.8653595955263 l -19.581850929712335 22.580804248907373 a50.88882075895516,50.88882075895516 0 0,0 -0.6568478103943229,-0.5795918222876202 l 19.967641093013246 -22.240389284847463" fill="red" stroke="none" /><path d="M 85.70375840098266 115.38237550388516 l -26.550838205476598 28.567995328759284 a60.000991865815514,60.000991865815514 0 0,0 -0.7504814506741815,-0.7096270543027486 l 27.038655490541593 -28.106733637710605" fill="red" stroke="none" /><path d="M 85.18274418774928 114.88116024355367 l -43.55538546869147 43.743232811939436 a82.72958788268261,82.72958788268261 0 0,0 -1.000474020385686,-1.0134749005658152 l 44.301900114132685 -42.987017417392956" fill="red" stroke="none" /><path d="M 84.43433777217949 114.09645910891817 l -26.263403879093428 23.784468236818565 a56.43257417440357,56.43257417440357 0 0,0 -0.6458604663991252,-0.7256310807192187 l 26.66892319514089 -23.328862986358484" fill="red" stroke="none" /><path d="M 83.72743513129214 113.27417163493432 l -28.77075963759047 23.46944102408994 a58.12911623116339,58.12911623116339 0 0,0 -0.6258072365689091,-0.7807907498812099 l 29.17048478621424 -22.970722440630468" fill="red" stroke="none" /><path d="M 83.50135304334701 112.99209946851258 l -33.55432277004481 26.422839410549845 a63.70900395785476,63.70900395785476 0 0,0 -0.6710474932049795,-0.867419343079836 l 34.00417708046786 -25.841342073356756" fill="red" stroke="none" /><path d="M 83.06392112726016 112.41649034213515 l -28.682522735450263 21.02825980020816 a56.56507866847298,56.56507866847298 0 0,0 -0.5689375076497599,-0.7902044374448881 l 29.04024003547563 -20.531421757312135" fill="red" stroke="none" /><path d="M 82.6465618267979 111.8261652097733 l -20.522103366964682 13.985573489670374 a45.83451212404532,45.83451212404532 0 0,0 -0.4386949810451113,-0.6557894737457796 l 20.759801453420522 -13.630247101718775" fill="red" stroke="none" /><path d="M 82.05923443525364 110.91462005526583 l -38.6596844569015 23.519384709685387 a66.25188017562778,66.25188017562778 0 0,0 -0.5843388204512118,-0.9793854741823882 l 39.05880415305094 -22.850437141616887" fill="red" stroke="none" /><line stroke="#e1ed5e" stroke-width="0.3" x1="26.63291911575756" x2="22.317208475507996" y1="142.92168965132927" y2="145.44649492493687" /><path d="M 25.769776987707644 143.4266507060508 a86.0,86.0 0 0,1 -11.730757126820373,-40.83630448921669" fill="none" id="id57" stroke="none" /><text fill="#e1ed5e" style="font-size:6.75px; font-family:Arial;" text-anchor="middle"><textPath startOffset="21.46611528233685" xlink:href="#id57">September</textPath></text><path d="M 81.69416730710424 110.29060199501025 l -34.257592372051846 19.257864655613133 a60.29946546994728,60.29946546994728 0 0,0 -0.5008404416867858,-0.9091708806018004 l 34.58400922319015 -18.66532325661351" fill="red" stroke="none" /><path d="M 81.51974371655577 109.97397251340807 l -29.022683594304244 15.66382218921154 a53.979864896483924,53.979864896483924 0 0,0 -0.4342744181247847,-0.8214835385045601 l 29.288010520653916 -15.161923635620854" fill="red" stroke="none" /><path d="M 80.87730276802145 108.67885076344099 l -57.36809169593562 26.03655229032298 a84.0,84.0 0 0,0 -0.5862356610748805,-1.3218066540292166 l 57.80776844174178 -25.045197299801067" fill="red" stroke="none" /><path d="M 80.58989483394504 108.01547362559985 l -32.77172731855879 13.533204160410385 a56.456081654482375,56.456081654482375 0 0,0 -0.36319376384723895,-0.9014171365650543 l 32.99982369666342 -12.967087656002526" fill="red" stroke="none" /><path d="M 80.32549172779594 107.34259656027581 l -31.649145920735293 11.811573979796588 a54.781381223866546,54.781381223866546 0 0,0 -0.32210340617959266,-0.8862902358979233 l 31.847773587920113 -11.265035946892548" fill="red" stroke="none" /><path d="M 80.20201598880116 107.00284435728193 l -23.408104301185872 8.279798136391172 a45.82930534981966,45.82930534981966 0 0,0 -0.25666412003054023,-0.7459860746201943 l 23.54715925215964 -7.87563935868168" fill="red" stroke="none" /><path d="M 80.0844068197444 106.66101706037122 l -12.486726001799303 4.176340326565088 a34.16662997001528,34.16662997001528 0 0,0 -0.1817465392529124,-0.5593583317972668 l 12.556764792068464 -3.9607830947900178" fill="red" stroke="none" /><path d="M 79.97269907076064 106.31721596034903 l -40.05223009471744 12.633683794730418 a62.99751304286271,62.99751304286271 0 0,0 -0.31730715612527316,-1.0369781454865812 l 40.26376402334884 -11.942378676691789" fill="red" stroke="none" /><line stroke="#e1ed5e" stroke-width="0.3" x1="15.007084014347285" x2="10.007500721073583" y1="101.09737516637583" y2="101.16192664675087" /><path d="M 14.007167355692545 101.11028546245083 a86.0,86.0 0 0,1 10.666146001902534,-42.60595125391555" fill="none" id="id58" stroke="none" /><text fill="#e1ed5e" style="font-size:6.75px; font-family:Arial;" text-anchor="middle"><textPath startOffset="22.20632615414155" xlink:href="#id58">October</textPath></text><line stroke="#e1ed5e" stroke-width="0.3" x1="26.266209847984243" x2="21.928928074336255" y1="57.711370442889674" y2="55.22380399835377" /><path d="M 25.398753493254645 57.213857153982495 a86.0,86.0 0 0,1 29.58750427330803,-30.492523968695096" fill="none" id="id59" stroke="none" /><text fill="#e1ed5e" style="font-size:6.75px; font-family:Arial;" text-anchor="middle"><textPath startOffset="21.46611528233685" xlink:href="#id59">November</textPath></text><line stroke="#e1ed5e" stroke-width="0.3" x1="56.762969772571076" x2="54.21961505331055" y1="26.818313649435495" y2="22.513508569990535" /><path d="M 56.25429882871897 25.957352633546506 a86.0,86.0 0 0,1 42.265352541879196,-11.944610805530505" fill="none" id="id60" stroke="none" /><text fill="#e1ed5e" style="font-size:6.75px; font-family:Arial;" text-anchor="middle"><textPath startOffset="22.20632615414155" xlink:href="#id60">December</textPath></text></svg>